<svg width="17" height="26" viewBox="0 0 17 26" fill="none" xmlns="http://www.w3.org/2000/svg">
<path d="M0.446824 23.9818L13.5105 13.8314C13.7971 13.6099 13.9578 13.311 13.9578 12.9994C13.9578 12.6879 13.7971 12.389 13.5105 12.1675L0.449658 2.01713C0.163294 1.79429 0.00283437 1.49435 0.00283437 1.18192C0.00283437 0.869488 0.163294 0.569553 0.449658 0.346711C0.589552 0.236977 0.756753 0.149768 0.94141 0.0902232C1.12607 0.030678 1.32444 6.94145e-07 1.52485 6.94145e-07C1.72525 6.94145e-07 1.92362 0.030678 2.10828 0.0902232C2.29293 0.149768 2.46014 0.236977 2.60003 0.346711L15.6609 10.4949C16.5192 11.1633 17 12.0627 17 12.9994C17 13.9362 16.5192 14.8356 15.6609 15.504L2.60003 25.6522C2.46009 25.7622 2.29272 25.8497 2.1078 25.9095C1.92288 25.9692 1.72417 26 1.52343 26C1.32268 26 1.12398 25.9692 0.939059 25.9095C0.75414 25.8497 0.586761 25.7622 0.446824 25.6522C0.16046 25.4293 6.03961e-08 25.1294 6.03961e-08 24.817C6.03961e-08 24.5045 0.16046 24.2046 0.446824 23.9818Z" fill="#FCFDFF"/>
</svg>
