<svg width="17" height="26" viewBox="0 0 17 26" fill="none" xmlns="http://www.w3.org/2000/svg">
<path d="M16.5532 2.01824L3.48945 12.1686C3.20294 12.3901 3.04224 12.689 3.04224 13.0006C3.04224 13.3121 3.20294 13.611 3.48945 13.8325L16.5503 23.9829C16.8367 24.2057 16.9972 24.5056 16.9972 24.8181C16.9972 25.1305 16.8367 25.4304 16.5503 25.6533C16.4104 25.763 16.2432 25.8502 16.0586 25.9098C15.8739 25.9693 15.6756 26 15.4752 26C15.2748 26 15.0764 25.9693 14.8917 25.9098C14.7071 25.8502 14.5399 25.763 14.4 25.6533L1.33908 15.5051C0.480843 14.8367 0 13.9373 0 13.0006C0 12.0638 0.480843 11.1644 1.33908 10.496L14.4 0.347822C14.5399 0.237757 14.7073 0.150266 14.8922 0.0905237C15.0771 0.0307812 15.2758 0 15.4766 0C15.6773 0 15.876 0.0307812 16.0609 0.0905237C16.2459 0.150266 16.4132 0.237757 16.5532 0.347822C16.8395 0.570665 17 0.8706 17 1.18303C17 1.49547 16.8395 1.7954 16.5532 2.01824Z" fill="#FCFDFF"/>
</svg>
