<svg width="88" height="102" viewBox="0 0 88 102" fill="none" xmlns="http://www.w3.org/2000/svg">
<path d="M72.6306 0H68.7117H54.3423H50.4234H36.0541H32.5084H18.139H14.3694H0V14.3164V16.4732V22.3113C4.44144 24.6168 9.25611 27.1083 14.3694 29.7485V16.4732V14.3164H18.139H32.5084H36.0541V16.4732V40.9413L39.861 42.9121L41.1673 43.5815C44.1905 41.9453 47.2883 40.272 50.4607 38.5614V16.4732V14.3164H54.3797H68.749H72.668V19.0762V19.2993V29.1535C77.3707 26.6249 82.148 24.0219 87.0373 21.3817V19.2993V19.0762V14.3164V0H72.6306Z" fill="white"/>
<path d="M36.054 46.296C37.7335 45.4036 39.413 44.4739 41.1299 43.5443C40.682 43.3212 40.2715 43.0981 39.8609 42.8749C38.5919 42.2056 37.3229 41.5735 36.054 40.9041V46.296Z" fill="white"/>
<path d="M54.3423 36.4419V38.0408C53.036 38.7474 51.7297 39.4539 50.4233 40.1604C47.7734 41.5735 45.1981 42.9865 42.6602 44.3624L43.6306 44.8458C43.2946 44.6971 42.9961 44.5111 42.6602 44.3624C40.4208 45.5523 38.2187 46.7423 36.0913 47.9322C34.897 48.5643 33.7026 49.2337 32.5456 49.8658V48.2669V16.4732H18.1389V56.0015V57.6004V66.7481V72.6978V74.2224V89.1338C22.767 91.5137 27.5443 94.0051 32.5083 96.5709V66.7481H31.9858C32.1724 66.6365 32.3217 66.5622 32.5083 66.4878V64.9632C33.6653 64.331 34.8596 63.6989 36.054 63.0295C40.682 60.5381 45.4967 57.9351 50.4233 55.2578C51.7297 54.5512 53.036 53.8447 54.3423 53.1382V54.6628V66.7481V95.9016C59.0076 93.3729 63.8223 90.77 68.7116 88.1298V66.7109V57.7864C66.9574 56.8939 65.2033 55.9643 63.4864 55.0718L68.7116 57.7864V46.8538V45.3664V30.2319V28.6329V16.4732H54.3423V36.4419Z" fill="white"/>
<path d="M36.054 66.7109V98.3558C38.368 99.5457 40.682 100.773 43.0707 102C45.4967 100.698 47.9227 99.3598 50.4233 98.0211V66.7481V56.7823C45.4594 59.4597 40.682 62.0627 36.054 64.5541V66.7109Z" fill="white"/>
</svg>
