<svg width="194" height="228" viewBox="0 0 194 228" fill="none" xmlns="http://www.w3.org/2000/svg">
<g id="Frame" clip-path="url(#clip0_155_417)">
<g id="Group">
<path id="Vector" d="M161.958 0H153.219H121.177H112.438H80.3964H72.4899H40.4479H32.042H0V32.0015V36.8225V49.8724C9.9039 55.0259 20.6401 60.595 32.042 66.4965V36.8225V32.0015H40.4479H72.4899H80.3964V36.8225V91.5159L88.8855 95.9213L91.7984 97.4174C98.5397 93.7601 105.447 90.0197 112.522 86.1961V36.8225V32.0015H121.26H153.302H162.041V42.6409V43.1396V65.1666C172.528 59.5144 183.181 53.696 194.083 47.7944V43.1396V42.6409V32.0015V0H161.958Z" fill="white"/>
<path id="Vector_2" d="M80.3964 103.485C84.1415 101.49 87.8867 99.4123 91.7151 97.3343C90.7164 96.8356 89.8009 96.3369 88.8854 95.8381C86.0557 94.342 83.226 92.9289 80.3964 91.4327V103.485Z" fill="white"/>
<path id="Vector_3" d="M121.177 81.4583V85.0325C118.264 86.6118 115.351 88.191 112.438 89.7703C106.529 92.9289 100.787 96.0875 95.1274 99.163L97.2913 100.244C96.5423 99.9111 95.8764 99.4955 95.1274 99.163C90.1339 101.823 85.2235 104.483 80.4796 107.143C77.8164 108.556 75.1531 110.052 72.5731 111.465V107.891V36.8225H40.4479V125.18V128.754V149.202V162.501V165.909V199.24C50.7679 204.56 61.4208 210.129 72.4899 215.864V149.202H71.3247C71.7409 148.952 72.0738 148.786 72.4899 148.62V145.212C75.0699 143.799 77.7332 142.386 80.3964 140.89C90.7164 135.32 101.453 129.502 112.438 123.517C115.351 121.938 118.264 120.359 121.177 118.779V122.187V149.202V214.368C131.58 208.716 142.317 202.898 153.219 196.996V149.118V129.17C149.308 127.175 145.396 125.097 141.568 123.102L153.219 129.17V104.732V101.407V67.5771V64.0029V36.8225H121.177V81.4583Z" fill="white"/>
<path id="Vector_4" d="M80.3964 149.118V219.854C85.5564 222.514 90.7164 225.257 96.0429 228C101.453 225.091 106.862 222.098 112.438 219.106V149.202V126.925C101.369 132.91 90.7164 138.728 80.3964 144.297V149.118Z" fill="white"/>
</g>
</g>
<defs>
<clipPath id="clip0_155_417">
<rect width="194" height="228" fill="white"/>
</clipPath>
</defs>
</svg>
