<svg width="400" height="200" viewBox="0 0 422 303" fill="none" xmlns="http://www.w3.org/2000/svg">
<path d="M14.3381 0.563863V34.8314H10.0291V5.22856L1.92399 10.1496L0.0516109 7.07393L10.5677 0.563863H14.3381ZM21.7251 32.3453V35.8566H1.33406V32.3453H21.7251Z" fill="#1673FF" fill-opacity="0.6"/>
<path d="M41.3265 0C45.1397 0 48.0209 1.57198 49.9703 4.71595C51.9196 7.85992 52.8942 12.3537 52.8942 18.1974C52.8942 24.0582 51.9196 28.5691 49.9703 31.7302C48.0209 34.8741 45.1397 36.4461 41.3265 36.4461C37.5305 36.4461 34.6492 34.8741 32.6828 31.7302C30.7335 28.5691 29.7588 24.0582 29.7588 18.1974C29.7588 12.3537 30.7335 7.85992 32.6828 4.71595C34.6492 1.57198 37.5305 0 41.3265 0ZM41.3265 3.46007C39.1549 3.46007 37.445 4.61343 36.1967 6.92015C34.9485 9.20978 34.3243 12.9689 34.3243 18.1974C34.3243 20.8459 34.4611 23.1099 34.7347 24.9894C35.0083 26.869 35.4272 28.3982 35.9915 29.5772C36.5729 30.7391 37.2996 31.5935 38.1717 32.1402C39.0609 32.687 40.1125 32.9604 41.3265 32.9604C42.7971 32.9604 44.0539 32.4564 45.0969 31.4482C46.1571 30.4401 46.9608 28.851 47.5079 26.681C48.0722 24.4939 48.3544 21.666 48.3544 18.1974C48.3544 14.6776 48.1064 11.8326 47.6105 9.66258C47.1318 7.49256 46.3708 5.92057 45.3278 4.94662C44.3018 3.95559 42.9681 3.46007 41.3265 3.46007ZM46.5333 4.71595L47.6618 8.48359L36.4276 31.2176L34.8373 28.2188L46.5333 4.71595Z" fill="#1673FF" fill-opacity="0.6"/>
<path d="M72.0853 0C75.8985 0 78.7797 1.57198 80.7291 4.71595C82.6784 7.85992 83.6531 12.3537 83.6531 18.1974C83.6531 24.0582 82.6784 28.5691 80.7291 31.7302C78.7797 34.8741 75.8985 36.4461 72.0853 36.4461C68.2893 36.4461 65.408 34.8741 63.4416 31.7302C61.4923 28.5691 60.5176 24.0582 60.5176 18.1974C60.5176 12.3537 61.4923 7.85992 63.4416 4.71595C65.408 1.57198 68.2893 0 72.0853 0ZM72.0853 3.46007C69.9137 3.46007 68.2038 4.61343 66.9555 6.92015C65.7073 9.20978 65.0832 12.9689 65.0832 18.1974C65.0832 20.8459 65.2199 23.1099 65.4935 24.9894C65.7671 26.869 66.1861 28.3982 66.7503 29.5772C67.3317 30.7391 68.0584 31.5935 68.9305 32.1402C69.8197 32.687 70.8713 32.9604 72.0853 32.9604C73.5559 32.9604 74.8127 32.4564 75.8558 31.4482C76.9159 30.4401 77.7196 28.851 78.2668 26.681C78.831 24.4939 79.1132 21.666 79.1132 18.1974C79.1132 14.6776 78.8652 11.8326 78.3694 9.66258C77.8906 7.49256 77.1297 5.92057 76.0866 4.94662C75.0606 3.95559 73.7269 3.46007 72.0853 3.46007ZM77.2921 4.71595L78.4207 8.48359L67.1864 31.2176L65.5961 28.2188L77.2921 4.71595Z" fill="#1673FF" fill-opacity="0.6"/>
<path d="M102.844 0C106.657 0 109.539 1.57198 111.488 4.71595C113.437 7.85992 114.412 12.3537 114.412 18.1974C114.412 24.0582 113.437 28.5691 111.488 31.7302C109.539 34.8741 106.657 36.4461 102.844 36.4461C99.0481 36.4461 96.1669 34.8741 94.2004 31.7302C92.2511 28.5691 91.2764 24.0582 91.2764 18.1974C91.2764 12.3537 92.2511 7.85992 94.2004 4.71595C96.1669 1.57198 99.0481 0 102.844 0ZM102.844 3.46007C100.673 3.46007 98.9626 4.61343 97.7143 6.92015C96.4661 9.20978 95.842 12.9689 95.842 18.1974C95.842 20.8459 95.9788 23.1099 96.2523 24.9894C96.5259 26.869 96.9449 28.3982 97.5092 29.5772C98.0905 30.7391 98.8173 31.5935 99.6893 32.1402C100.578 32.687 101.63 32.9604 102.844 32.9604C104.315 32.9604 105.572 32.4564 106.615 31.4482C107.675 30.4401 108.478 28.851 109.026 26.681C109.59 24.4939 109.872 21.666 109.872 18.1974C109.872 14.6776 109.624 11.8326 109.128 9.66258C108.649 7.49256 107.888 5.92057 106.845 4.94662C105.819 3.95559 104.486 3.46007 102.844 3.46007ZM108.051 4.71595L109.179 8.48359L97.9452 31.2176L96.3549 28.2188L108.051 4.71595Z" fill="#1673FF" fill-opacity="0.6"/>
<path d="M137.373 0.563863V34.8314H133.064V5.22856L124.959 10.1496L123.087 7.07393L133.603 0.563863H137.373ZM144.76 32.3453V35.8566H124.369V32.3453H144.76Z" fill="#1673FF" fill-opacity="0.6"/>
<path d="M164.362 0C168.175 0 171.056 1.57198 173.005 4.71595C174.955 7.85992 175.929 12.3537 175.929 18.1974C175.929 24.0582 174.955 28.5691 173.005 31.7302C171.056 34.8741 168.175 36.4461 164.362 36.4461C160.566 36.4461 157.684 34.8741 155.718 31.7302C153.769 28.5691 152.794 24.0582 152.794 18.1974C152.794 12.3537 153.769 7.85992 155.718 4.71595C157.684 1.57198 160.566 0 164.362 0ZM164.362 3.46007C162.19 3.46007 160.48 4.61343 159.232 6.92015C157.984 9.20978 157.36 12.9689 157.36 18.1974C157.36 20.8459 157.496 23.1099 157.77 24.9894C158.044 26.869 158.462 28.3982 159.027 29.5772C159.608 30.7391 160.335 31.5935 161.207 32.1402C162.096 32.687 163.148 32.9604 164.362 32.9604C165.832 32.9604 167.089 32.4564 168.132 31.4482C169.192 30.4401 169.996 28.851 170.543 26.681C171.107 24.4939 171.39 21.666 171.39 18.1974C171.39 14.6776 171.142 11.8326 170.646 9.66258C170.167 7.49256 169.406 5.92057 168.363 4.94662C167.337 3.95559 166.003 3.46007 164.362 3.46007ZM169.569 4.71595L170.697 8.48359L159.463 31.2176L157.873 28.2188L169.569 4.71595Z" fill="#1673FF" fill-opacity="0.6"/>
<path d="M198.891 0.563863V34.8314H194.582V5.22856L186.477 10.1496L184.604 7.07393L195.121 0.563863H198.891ZM206.278 32.3453V35.8566H185.887V32.3453H206.278Z" fill="#1673FF" fill-opacity="0.6"/>
<path d="M225.879 0C229.693 0 232.574 1.57198 234.523 4.71595C236.472 7.85992 237.447 12.3537 237.447 18.1974C237.447 24.0582 236.472 28.5691 234.523 31.7302C232.574 34.8741 229.693 36.4461 225.879 36.4461C222.083 36.4461 219.202 34.8741 217.236 31.7302C215.286 28.5691 214.312 24.0582 214.312 18.1974C214.312 12.3537 215.286 7.85992 217.236 4.71595C219.202 1.57198 222.083 0 225.879 0ZM225.879 3.46007C223.708 3.46007 221.998 4.61343 220.75 6.92015C219.501 9.20978 218.877 12.9689 218.877 18.1974C218.877 20.8459 219.014 23.1099 219.288 24.9894C219.561 26.869 219.98 28.3982 220.544 29.5772C221.126 30.7391 221.853 31.5935 222.725 32.1402C223.614 32.687 224.665 32.9604 225.879 32.9604C227.35 32.9604 228.607 32.4564 229.65 31.4482C230.71 30.4401 231.514 28.851 232.061 26.681C232.625 24.4939 232.907 21.666 232.907 18.1974C232.907 14.6776 232.659 11.8326 232.163 9.66258C231.685 7.49256 230.924 5.92057 229.881 4.94662C228.855 3.95559 227.521 3.46007 225.879 3.46007ZM231.086 4.71595L232.215 8.48359L220.98 31.2176L219.39 28.2188L231.086 4.71595Z" fill="#1673FF" fill-opacity="0.6"/>
<path d="M260.409 0.563863V34.8314H256.1V5.22856L247.994 10.1496L246.122 7.07393L256.638 0.563863H260.409ZM267.796 32.3453V35.8566H247.405V32.3453H267.796Z" fill="#1673FF" fill-opacity="0.6"/>
<path d="M287.397 0C291.21 0 294.091 1.57198 296.041 4.71595C297.99 7.85992 298.965 12.3537 298.965 18.1974C298.965 24.0582 297.99 28.5691 296.041 31.7302C294.091 34.8741 291.21 36.4461 287.397 36.4461C283.601 36.4461 280.72 34.8741 278.753 31.7302C276.804 28.5691 275.829 24.0582 275.829 18.1974C275.829 12.3537 276.804 7.85992 278.753 4.71595C280.72 1.57198 283.601 0 287.397 0ZM287.397 3.46007C285.225 3.46007 283.515 4.61343 282.267 6.92015C281.019 9.20978 280.395 12.9689 280.395 18.1974C280.395 20.8459 280.532 23.1099 280.805 24.9894C281.079 26.869 281.498 28.3982 282.062 29.5772C282.643 30.7391 283.37 31.5935 284.242 32.1402C285.131 32.687 286.183 32.9604 287.397 32.9604C288.868 32.9604 290.124 32.4564 291.167 31.4482C292.228 30.4401 293.031 28.851 293.578 26.681C294.143 24.4939 294.425 21.666 294.425 18.1974C294.425 14.6776 294.177 11.8326 293.681 9.66258C293.202 7.49256 292.441 5.92057 291.398 4.94662C290.372 3.95559 289.039 3.46007 287.397 3.46007ZM292.604 4.71595L293.732 8.48359L282.498 31.2176L280.908 28.2188L292.604 4.71595Z" fill="#1673FF" fill-opacity="0.6"/>
<path d="M321.926 0.563863V34.8314H317.617V5.22856L309.512 10.1496L307.64 7.07393L318.156 0.563863H321.926ZM329.313 32.3453V35.8566H308.922V32.3453H329.313Z" fill="#1673FF" fill-opacity="0.6"/>
<path d="M348.915 0C352.728 0 355.609 1.57198 357.558 4.71595C359.508 7.85992 360.482 12.3537 360.482 18.1974C360.482 24.0582 359.508 28.5691 357.558 31.7302C355.609 34.8741 352.728 36.4461 348.915 36.4461C345.119 36.4461 342.237 34.8741 340.271 31.7302C338.322 28.5691 337.347 24.0582 337.347 18.1974C337.347 12.3537 338.322 7.85992 340.271 4.71595C342.237 1.57198 345.119 0 348.915 0ZM348.915 3.46007C346.743 3.46007 345.033 4.61343 343.785 6.92015C342.537 9.20978 341.912 12.9689 341.912 18.1974C341.912 20.8459 342.049 23.1099 342.323 24.9894C342.596 26.869 343.015 28.3982 343.58 29.5772C344.161 30.7391 344.888 31.5935 345.76 32.1402C346.649 32.687 347.701 32.9604 348.915 32.9604C350.385 32.9604 351.642 32.4564 352.685 31.4482C353.745 30.4401 354.549 28.851 355.096 26.681C355.66 24.4939 355.943 21.666 355.943 18.1974C355.943 14.6776 355.695 11.8326 355.199 9.66258C354.72 7.49256 353.959 5.92057 352.916 4.94662C351.89 3.95559 350.556 3.46007 348.915 3.46007ZM354.121 4.71595L355.25 8.48359L344.016 31.2176L342.425 28.2188L354.121 4.71595Z" fill="#1673FF" fill-opacity="0.6"/>
<path d="M383.444 0.563863V34.8314H379.135V5.22856L371.03 10.1496L369.157 7.07393L379.673 0.563863H383.444ZM390.831 32.3453V35.8566H370.44V32.3453H390.831Z" fill="#1673FF" fill-opacity="0.6"/>
<path d="M410.432 0C414.245 0 417.127 1.57198 419.076 4.71595C421.025 7.85992 422 12.3537 422 18.1974C422 24.0582 421.025 28.5691 419.076 31.7302C417.127 34.8741 414.245 36.4461 410.432 36.4461C406.636 36.4461 403.755 34.8741 401.789 31.7302C399.839 28.5691 398.865 24.0582 398.865 18.1974C398.865 12.3537 399.839 7.85992 401.789 4.71595C403.755 1.57198 406.636 0 410.432 0ZM410.432 3.46007C408.261 3.46007 406.551 4.61343 405.302 6.92015C404.054 9.20978 403.43 12.9689 403.43 18.1974C403.43 20.8459 403.567 23.1099 403.84 24.9894C404.114 26.869 404.533 28.3982 405.097 29.5772C405.679 30.7391 406.405 31.5935 407.277 32.1402C408.167 32.687 409.218 32.9604 410.432 32.9604C411.903 32.9604 413.16 32.4564 414.203 31.4482C415.263 30.4401 416.066 28.851 416.614 26.681C417.178 24.4939 417.46 21.666 417.46 18.1974C417.46 14.6776 417.212 11.8326 416.716 9.66258C416.238 7.49256 415.477 5.92057 414.434 4.94662C413.408 3.95559 412.074 3.46007 410.432 3.46007ZM415.639 4.71595L416.768 8.48359L405.533 31.2176L403.943 28.2188L415.639 4.71595Z" fill="#1673FF" fill-opacity="0.6"/>
<path d="M14.3381 67.2023V101.47H10.0291V71.867L1.92399 76.788L0.0516109 73.7124L10.5677 67.2023H14.3381ZM21.7251 98.9838V102.495H1.33406V98.9838H21.7251Z" fill="#1673FF" fill-opacity="0.6"/>
<path d="M41.3265 66.6385C45.1397 66.6385 48.0209 68.2105 49.9703 71.3544C51.9196 74.4984 52.8942 78.9922 52.8942 84.8359C52.8942 90.6967 51.9196 95.2076 49.9703 98.3686C48.0209 101.513 45.1397 103.085 41.3265 103.085C37.5305 103.085 34.6492 101.513 32.6828 98.3686C30.7335 95.2076 29.7588 90.6967 29.7588 84.8359C29.7588 78.9922 30.7335 74.4984 32.6828 71.3544C34.6492 68.2105 37.5305 66.6385 41.3265 66.6385ZM41.3265 70.0985C39.1549 70.0985 37.445 71.2519 36.1967 73.5586C34.9485 75.8483 34.3243 79.6073 34.3243 84.8359C34.3243 87.4843 34.4611 89.7484 34.7347 91.6279C35.0083 93.5074 35.4272 95.0367 35.9915 96.2157C36.5729 97.3776 37.2996 98.2319 38.1717 98.7787C39.0609 99.3255 40.1125 99.5989 41.3265 99.5989C42.7971 99.5989 44.0539 99.0948 45.0969 98.0867C46.1571 97.0786 46.9608 95.4895 47.5079 93.3195C48.0722 91.1324 48.3544 88.3045 48.3544 84.8359C48.3544 81.316 48.1064 78.4711 47.6105 76.301C47.1318 74.131 46.3708 72.559 45.3278 71.5851C44.3018 70.5941 42.9681 70.0985 41.3265 70.0985ZM46.5333 71.3544L47.6618 75.1221L36.4276 97.856L34.8373 94.8573L46.5333 71.3544Z" fill="#1673FF" fill-opacity="0.6"/>
<path d="M75.8558 67.2023V101.47H71.5467V71.867L63.4416 76.788L61.5692 73.7124L72.0853 67.2023H75.8558ZM83.2427 98.9838V102.495H62.8517V98.9838H83.2427Z" fill="#1673FF" fill-opacity="0.6"/>
<path d="M102.844 66.6385C106.657 66.6385 109.539 68.2105 111.488 71.3544C113.437 74.4984 114.412 78.9922 114.412 84.8359C114.412 90.6967 113.437 95.2076 111.488 98.3686C109.539 101.513 106.657 103.085 102.844 103.085C99.0481 103.085 96.1669 101.513 94.2004 98.3686C92.2511 95.2076 91.2764 90.6967 91.2764 84.8359C91.2764 78.9922 92.2511 74.4984 94.2004 71.3544C96.1669 68.2105 99.0481 66.6385 102.844 66.6385ZM102.844 70.0985C100.673 70.0985 98.9626 71.2519 97.7143 73.5586C96.4661 75.8483 95.842 79.6073 95.842 84.8359C95.842 87.4843 95.9788 89.7484 96.2523 91.6279C96.5259 93.5074 96.9449 95.0367 97.5092 96.2157C98.0905 97.3776 98.8173 98.2319 99.6893 98.7787C100.578 99.3255 101.63 99.5989 102.844 99.5989C104.315 99.5989 105.572 99.0948 106.615 98.0867C107.675 97.0786 108.478 95.4895 109.026 93.3195C109.59 91.1324 109.872 88.3045 109.872 84.8359C109.872 81.316 109.624 78.4711 109.128 76.301C108.649 74.131 107.888 72.559 106.845 71.5851C105.819 70.5941 104.486 70.0985 102.844 70.0985ZM108.051 71.3544L109.179 75.1221L97.9452 97.856L96.3549 94.8573L108.051 71.3544Z" fill="#1673FF" fill-opacity="0.6"/>
<path d="M137.373 67.2023V101.47H133.064V71.867L124.959 76.788L123.087 73.7124L133.603 67.2023H137.373ZM144.76 98.9838V102.495H124.369V98.9838H144.76Z" fill="#1673FF" fill-opacity="0.6"/>
<path d="M164.362 66.6385C168.175 66.6385 171.056 68.2105 173.005 71.3544C174.955 74.4984 175.929 78.9922 175.929 84.8359C175.929 90.6967 174.955 95.2076 173.005 98.3686C171.056 101.513 168.175 103.085 164.362 103.085C160.566 103.085 157.684 101.513 155.718 98.3686C153.769 95.2076 152.794 90.6967 152.794 84.8359C152.794 78.9922 153.769 74.4984 155.718 71.3544C157.684 68.2105 160.566 66.6385 164.362 66.6385ZM164.362 70.0985C162.19 70.0985 160.48 71.2519 159.232 73.5586C157.984 75.8483 157.36 79.6073 157.36 84.8359C157.36 87.4843 157.496 89.7484 157.77 91.6279C158.044 93.5074 158.462 95.0367 159.027 96.2157C159.608 97.3776 160.335 98.2319 161.207 98.7787C162.096 99.3255 163.148 99.5989 164.362 99.5989C165.832 99.5989 167.089 99.0948 168.132 98.0867C169.192 97.0786 169.996 95.4895 170.543 93.3195C171.107 91.1324 171.39 88.3045 171.39 84.8359C171.39 81.316 171.142 78.4711 170.646 76.301C170.167 74.131 169.406 72.559 168.363 71.5851C167.337 70.5941 166.003 70.0985 164.362 70.0985ZM169.569 71.3544L170.697 75.1221L159.463 97.856L157.873 94.8573L169.569 71.3544Z" fill="#1673FF" fill-opacity="0.6"/>
<path d="M198.891 67.2023V101.47H194.582V71.867L186.477 76.788L184.604 73.7124L195.121 67.2023H198.891ZM206.278 98.9838V102.495H185.887V98.9838H206.278Z" fill="#1673FF" fill-opacity="0.6"/>
<path d="M225.879 66.6385C229.693 66.6385 232.574 68.2105 234.523 71.3544C236.472 74.4984 237.447 78.9922 237.447 84.8359C237.447 90.6967 236.472 95.2076 234.523 98.3686C232.574 101.513 229.693 103.085 225.879 103.085C222.083 103.085 219.202 101.513 217.236 98.3686C215.286 95.2076 214.312 90.6967 214.312 84.8359C214.312 78.9922 215.286 74.4984 217.236 71.3544C219.202 68.2105 222.083 66.6385 225.879 66.6385ZM225.879 70.0985C223.708 70.0985 221.998 71.2519 220.75 73.5586C219.501 75.8483 218.877 79.6073 218.877 84.8359C218.877 87.4843 219.014 89.7484 219.288 91.6279C219.561 93.5074 219.98 95.0367 220.544 96.2157C221.126 97.3776 221.853 98.2319 222.725 98.7787C223.614 99.3255 224.665 99.5989 225.879 99.5989C227.35 99.5989 228.607 99.0948 229.65 98.0867C230.71 97.0786 231.514 95.4895 232.061 93.3195C232.625 91.1324 232.907 88.3045 232.907 84.8359C232.907 81.316 232.659 78.4711 232.163 76.301C231.685 74.131 230.924 72.559 229.881 71.5851C228.855 70.5941 227.521 70.0985 225.879 70.0985ZM231.086 71.3544L232.215 75.1221L220.98 97.856L219.39 94.8573L231.086 71.3544Z" fill="#1673FF" fill-opacity="0.6"/>
<path d="M260.409 67.2023V101.47H256.1V71.867L247.994 76.788L246.122 73.7124L256.638 67.2023H260.409ZM267.796 98.9838V102.495H247.405V98.9838H267.796Z" fill="#1673FF" fill-opacity="0.6"/>
<path d="M287.397 66.6385C291.21 66.6385 294.091 68.2105 296.041 71.3544C297.99 74.4984 298.965 78.9922 298.965 84.8359C298.965 90.6967 297.99 95.2076 296.041 98.3686C294.091 101.513 291.21 103.085 287.397 103.085C283.601 103.085 280.72 101.513 278.753 98.3686C276.804 95.2076 275.829 90.6967 275.829 84.8359C275.829 78.9922 276.804 74.4984 278.753 71.3544C280.72 68.2105 283.601 66.6385 287.397 66.6385ZM287.397 70.0985C285.225 70.0985 283.515 71.2519 282.267 73.5586C281.019 75.8483 280.395 79.6073 280.395 84.8359C280.395 87.4843 280.532 89.7484 280.805 91.6279C281.079 93.5074 281.498 95.0367 282.062 96.2157C282.643 97.3776 283.37 98.2319 284.242 98.7787C285.131 99.3255 286.183 99.5989 287.397 99.5989C288.868 99.5989 290.124 99.0948 291.167 98.0867C292.228 97.0786 293.031 95.4895 293.578 93.3195C294.143 91.1324 294.425 88.3045 294.425 84.8359C294.425 81.316 294.177 78.4711 293.681 76.301C293.202 74.131 292.441 72.559 291.398 71.5851C290.372 70.5941 289.039 70.0985 287.397 70.0985ZM292.604 71.3544L293.732 75.1221L282.498 97.856L280.908 94.8573L292.604 71.3544Z" fill="#1673FF" fill-opacity="0.6"/>
<path d="M318.156 66.6385C321.969 66.6385 324.85 68.2105 326.8 71.3544C328.749 74.4984 329.724 78.9922 329.724 84.8359C329.724 90.6967 328.749 95.2076 326.8 98.3686C324.85 101.513 321.969 103.085 318.156 103.085C314.36 103.085 311.479 101.513 309.512 98.3686C307.563 95.2076 306.588 90.6967 306.588 84.8359C306.588 78.9922 307.563 74.4984 309.512 71.3544C311.479 68.2105 314.36 66.6385 318.156 66.6385ZM318.156 70.0985C315.984 70.0985 314.274 71.2519 313.026 73.5586C311.778 75.8483 311.154 79.6073 311.154 84.8359C311.154 87.4843 311.29 89.7484 311.564 91.6279C311.838 93.5074 312.257 95.0367 312.821 96.2157C313.402 97.3776 314.129 98.2319 315.001 98.7787C315.89 99.3255 316.942 99.5989 318.156 99.5989C319.626 99.5989 320.883 99.0948 321.926 98.0867C322.986 97.0786 323.79 95.4895 324.337 93.3195C324.902 91.1324 325.184 88.3045 325.184 84.8359C325.184 81.316 324.936 78.4711 324.44 76.301C323.961 74.131 323.2 72.559 322.157 71.5851C321.131 70.5941 319.797 70.0985 318.156 70.0985ZM323.363 71.3544L324.491 75.1221L313.257 97.856L311.667 94.8573L323.363 71.3544Z" fill="#1673FF" fill-opacity="0.6"/>
<path d="M352.685 67.2023V101.47H348.376V71.867L340.271 76.788L338.399 73.7124L348.915 67.2023H352.685ZM360.072 98.9838V102.495H339.681V98.9838H360.072Z" fill="#1673FF" fill-opacity="0.6"/>
<path d="M383.444 67.2023V101.47H379.135V71.867L371.03 76.788L369.157 73.7124L379.673 67.2023H383.444ZM390.831 98.9838V102.495H370.44V98.9838H390.831Z" fill="#1673FF" fill-opacity="0.6"/>
<path d="M414.203 67.2023V101.47H409.894V71.867L401.789 76.788L399.916 73.7124L410.432 67.2023H414.203ZM421.59 98.9838V102.495H401.199V98.9838H421.59Z" fill="#1673FF" fill-opacity="0.6"/>
<path d="M10.5677 133.277C14.3809 133.277 17.2621 134.849 19.2114 137.993C21.1608 141.137 22.1354 145.631 22.1354 151.474C22.1354 157.335 21.1608 161.846 19.2114 165.007C17.2621 168.151 14.3809 169.723 10.5677 169.723C6.77166 169.723 3.89042 168.151 1.92399 165.007C-0.0253363 161.846 -1 157.335 -1 151.474C-1 145.631 -0.0253363 141.137 1.92399 137.993C3.89042 134.849 6.77166 133.277 10.5677 133.277ZM10.5677 136.737C8.3961 136.737 6.68616 137.89 5.43791 140.197C4.18966 142.487 3.56553 146.246 3.56553 151.474C3.56553 154.123 3.70232 156.387 3.97591 158.266C4.2495 160.146 4.66844 161.675 5.23272 162.854C5.8141 164.016 6.54082 164.87 7.41289 165.417C8.30205 165.964 9.35366 166.237 10.5677 166.237C12.0383 166.237 13.2951 165.733 14.3381 164.725C15.3983 163.717 16.202 162.128 16.7491 159.958C17.3134 157.771 17.5956 154.943 17.5956 151.474C17.5956 147.954 17.3476 145.11 16.8517 142.94C16.373 140.77 15.612 139.198 14.569 138.224C13.543 137.233 12.2093 136.737 10.5677 136.737ZM15.7745 137.993L16.903 141.761L5.66875 164.495L4.07851 161.496L15.7745 137.993Z" fill="#1673FF" fill-opacity="0.6"/>
<path d="M45.0969 133.841V168.108H40.7879V138.505L32.6828 143.426L30.8104 140.351L41.3265 133.841H45.0969ZM52.4839 165.622V169.134H32.0929V165.622H52.4839Z" fill="#1673FF" fill-opacity="0.6"/>
<path d="M75.8558 133.841V168.108H71.5467V138.505L63.4416 143.426L61.5692 140.351L72.0853 133.841H75.8558ZM83.2427 165.622V169.134H62.8517V165.622H83.2427Z" fill="#1673FF" fill-opacity="0.6"/>
<path d="M102.844 133.277C106.657 133.277 109.539 134.849 111.488 137.993C113.437 141.137 114.412 145.631 114.412 151.474C114.412 157.335 113.437 161.846 111.488 165.007C109.539 168.151 106.657 169.723 102.844 169.723C99.0481 169.723 96.1669 168.151 94.2004 165.007C92.2511 161.846 91.2764 157.335 91.2764 151.474C91.2764 145.631 92.2511 141.137 94.2004 137.993C96.1669 134.849 99.0481 133.277 102.844 133.277ZM102.844 136.737C100.673 136.737 98.9626 137.89 97.7143 140.197C96.4661 142.487 95.842 146.246 95.842 151.474C95.842 154.123 95.9788 156.387 96.2523 158.266C96.5259 160.146 96.9449 161.675 97.5092 162.854C98.0905 164.016 98.8173 164.87 99.6893 165.417C100.578 165.964 101.63 166.237 102.844 166.237C104.315 166.237 105.572 165.733 106.615 164.725C107.675 163.717 108.478 162.128 109.026 159.958C109.59 157.771 109.872 154.943 109.872 151.474C109.872 147.954 109.624 145.11 109.128 142.94C108.649 140.77 107.888 139.198 106.845 138.224C105.819 137.233 104.486 136.737 102.844 136.737ZM108.051 137.993L109.179 141.761L97.9452 164.495L96.3549 161.496L108.051 137.993Z" fill="#1673FF" fill-opacity="0.6"/>
<path d="M137.373 133.841V168.108H133.064V138.505L124.959 143.426L123.087 140.351L133.603 133.841H137.373ZM144.76 165.622V169.134H124.369V165.622H144.76Z" fill="#1673FF" fill-opacity="0.6"/>
<path d="M164.362 133.277C168.175 133.277 171.056 134.849 173.005 137.993C174.955 141.137 175.929 145.631 175.929 151.474C175.929 157.335 174.955 161.846 173.005 165.007C171.056 168.151 168.175 169.723 164.362 169.723C160.566 169.723 157.684 168.151 155.718 165.007C153.769 161.846 152.794 157.335 152.794 151.474C152.794 145.631 153.769 141.137 155.718 137.993C157.684 134.849 160.566 133.277 164.362 133.277ZM164.362 136.737C162.19 136.737 160.48 137.89 159.232 140.197C157.984 142.487 157.36 146.246 157.36 151.474C157.36 154.123 157.496 156.387 157.77 158.266C158.044 160.146 158.462 161.675 159.027 162.854C159.608 164.016 160.335 164.87 161.207 165.417C162.096 165.964 163.148 166.237 164.362 166.237C165.832 166.237 167.089 165.733 168.132 164.725C169.192 163.717 169.996 162.128 170.543 159.958C171.107 157.771 171.39 154.943 171.39 151.474C171.39 147.954 171.142 145.11 170.646 142.94C170.167 140.77 169.406 139.198 168.363 138.224C167.337 137.233 166.003 136.737 164.362 136.737ZM169.569 137.993L170.697 141.761L159.463 164.495L157.873 161.496L169.569 137.993Z" fill="#1673FF" fill-opacity="0.6"/>
<path d="M198.891 133.841V168.108H194.582V138.505L186.477 143.426L184.604 140.351L195.121 133.841H198.891ZM206.278 165.622V169.134H185.887V165.622H206.278Z" fill="#1673FF" fill-opacity="0.6"/>
<path d="M229.65 133.841V168.108H225.341V138.505L217.236 143.426L215.363 140.351L225.879 133.841H229.65ZM237.037 165.622V169.134H216.646V165.622H237.037Z" fill="#1673FF" fill-opacity="0.6"/>
<path d="M260.409 133.841V168.108H256.1V138.505L247.994 143.426L246.122 140.351L256.638 133.841H260.409ZM267.796 165.622V169.134H247.405V165.622H267.796Z" fill="#1673FF" fill-opacity="0.6"/>
<path d="M291.167 133.841V168.108H286.858V138.505L278.753 143.426L276.881 140.351L287.397 133.841H291.167ZM298.554 165.622V169.134H278.163V165.622H298.554Z" fill="#1673FF" fill-opacity="0.6"/>
<path d="M318.156 133.277C321.969 133.277 324.85 134.849 326.8 137.993C328.749 141.137 329.724 145.631 329.724 151.474C329.724 157.335 328.749 161.846 326.8 165.007C324.85 168.151 321.969 169.723 318.156 169.723C314.36 169.723 311.479 168.151 309.512 165.007C307.563 161.846 306.588 157.335 306.588 151.474C306.588 145.631 307.563 141.137 309.512 137.993C311.479 134.849 314.36 133.277 318.156 133.277ZM318.156 136.737C315.984 136.737 314.274 137.89 313.026 140.197C311.778 142.487 311.154 146.246 311.154 151.474C311.154 154.123 311.29 156.387 311.564 158.266C311.838 160.146 312.257 161.675 312.821 162.854C313.402 164.016 314.129 164.87 315.001 165.417C315.89 165.964 316.942 166.237 318.156 166.237C319.626 166.237 320.883 165.733 321.926 164.725C322.986 163.717 323.79 162.128 324.337 159.958C324.902 157.771 325.184 154.943 325.184 151.474C325.184 147.954 324.936 145.11 324.44 142.94C323.961 140.77 323.2 139.198 322.157 138.224C321.131 137.233 319.797 136.737 318.156 136.737ZM323.363 137.993L324.491 141.761L313.257 164.495L311.667 161.496L323.363 137.993Z" fill="#1673FF" fill-opacity="0.6"/>
<path d="M352.685 133.841V168.108H348.376V138.505L340.271 143.426L338.399 140.351L348.915 133.841H352.685ZM360.072 165.622V169.134H339.681V165.622H360.072Z" fill="#1673FF" fill-opacity="0.6"/>
<path d="M383.444 133.841V168.108H379.135V138.505L371.03 143.426L369.157 140.351L379.673 133.841H383.444ZM390.831 165.622V169.134H370.44V165.622H390.831Z" fill="#1673FF" fill-opacity="0.6"/>
<path d="M410.432 133.277C414.245 133.277 417.127 134.849 419.076 137.993C421.025 141.137 422 145.631 422 151.474C422 157.335 421.025 161.846 419.076 165.007C417.127 168.151 414.245 169.723 410.432 169.723C406.636 169.723 403.755 168.151 401.789 165.007C399.839 161.846 398.865 157.335 398.865 151.474C398.865 145.631 399.839 141.137 401.789 137.993C403.755 134.849 406.636 133.277 410.432 133.277ZM410.432 136.737C408.261 136.737 406.551 137.89 405.302 140.197C404.054 142.487 403.43 146.246 403.43 151.474C403.43 154.123 403.567 156.387 403.84 158.266C404.114 160.146 404.533 161.675 405.097 162.854C405.679 164.016 406.405 164.87 407.277 165.417C408.167 165.964 409.218 166.237 410.432 166.237C411.903 166.237 413.16 165.733 414.203 164.725C415.263 163.717 416.066 162.128 416.614 159.958C417.178 157.771 417.46 154.943 417.46 151.474C417.46 147.954 417.212 145.11 416.716 142.94C416.238 140.77 415.477 139.198 414.434 138.224C413.408 137.233 412.074 136.737 410.432 136.737ZM415.639 137.993L416.768 141.761L405.533 164.495L403.943 161.496L415.639 137.993Z" fill="#1673FF" fill-opacity="0.6"/>
<path d="M14.3381 200.479V234.747H10.0291V205.144L1.92399 210.065L0.0516109 206.989L10.5677 200.479H14.3381ZM21.7251 232.261V235.772H1.33406V232.261H21.7251Z" fill="#1673FF" fill-opacity="0.6"/>
<path d="M41.3265 199.915C45.1397 199.915 48.0209 201.487 49.9703 204.631C51.9196 207.775 52.8942 212.269 52.8942 218.113C52.8942 223.974 51.9196 228.485 49.9703 231.646C48.0209 234.79 45.1397 236.362 41.3265 236.362C37.5305 236.362 34.6492 234.79 32.6828 231.646C30.7335 228.485 29.7588 223.974 29.7588 218.113C29.7588 212.269 30.7335 207.775 32.6828 204.631C34.6492 201.487 37.5305 199.915 41.3265 199.915ZM41.3265 203.375C39.1549 203.375 37.445 204.529 36.1967 206.836C34.9485 209.125 34.3243 212.884 34.3243 218.113C34.3243 220.761 34.4611 223.025 34.7347 224.905C35.0083 226.784 35.4272 228.314 35.9915 229.493C36.5729 230.655 37.2996 231.509 38.1717 232.056C39.0609 232.602 40.1125 232.876 41.3265 232.876C42.7971 232.876 44.0539 232.372 45.0969 231.364C46.1571 230.356 46.9608 228.766 47.5079 226.596C48.0722 224.409 48.3544 221.581 48.3544 218.113C48.3544 214.593 48.1064 211.748 47.6105 209.578C47.1318 207.408 46.3708 205.836 45.3278 204.862C44.3018 203.871 42.9681 203.375 41.3265 203.375ZM46.5333 204.631L47.6618 208.399L36.4276 231.133L34.8373 228.134L46.5333 204.631Z" fill="#1673FF" fill-opacity="0.6"/>
<path d="M72.0853 199.915C75.8985 199.915 78.7797 201.487 80.7291 204.631C82.6784 207.775 83.6531 212.269 83.6531 218.113C83.6531 223.974 82.6784 228.485 80.7291 231.646C78.7797 234.79 75.8985 236.362 72.0853 236.362C68.2893 236.362 65.408 234.79 63.4416 231.646C61.4923 228.485 60.5176 223.974 60.5176 218.113C60.5176 212.269 61.4923 207.775 63.4416 204.631C65.408 201.487 68.2893 199.915 72.0853 199.915ZM72.0853 203.375C69.9137 203.375 68.2038 204.529 66.9555 206.836C65.7073 209.125 65.0832 212.884 65.0832 218.113C65.0832 220.761 65.2199 223.025 65.4935 224.905C65.7671 226.784 66.1861 228.314 66.7503 229.493C67.3317 230.655 68.0584 231.509 68.9305 232.056C69.8197 232.602 70.8713 232.876 72.0853 232.876C73.5559 232.876 74.8127 232.372 75.8558 231.364C76.9159 230.356 77.7196 228.766 78.2668 226.596C78.831 224.409 79.1132 221.581 79.1132 218.113C79.1132 214.593 78.8652 211.748 78.3694 209.578C77.8906 207.408 77.1297 205.836 76.0866 204.862C75.0606 203.871 73.7269 203.375 72.0853 203.375ZM77.2921 204.631L78.4207 208.399L67.1864 231.133L65.5961 228.134L77.2921 204.631Z" fill="#1673FF" fill-opacity="0.6"/>
<path d="M106.615 200.479V234.747H102.306V205.144L94.2004 210.065L92.328 206.989L102.844 200.479H106.615ZM114.001 232.261V235.772H93.6105V232.261H114.001Z" fill="#1673FF" fill-opacity="0.6"/>
<path d="M133.603 199.915C137.416 199.915 140.297 201.487 142.247 204.631C144.196 207.775 145.171 212.269 145.171 218.113C145.171 223.974 144.196 228.485 142.247 231.646C140.297 234.79 137.416 236.362 133.603 236.362C129.807 236.362 126.926 234.79 124.959 231.646C123.01 228.485 122.035 223.974 122.035 218.113C122.035 212.269 123.01 207.775 124.959 204.631C126.926 201.487 129.807 199.915 133.603 199.915ZM133.603 203.375C131.431 203.375 129.721 204.529 128.473 206.836C127.225 209.125 126.601 212.884 126.601 218.113C126.601 220.761 126.738 223.025 127.011 224.905C127.285 226.784 127.704 228.314 128.268 229.493C128.849 230.655 129.576 231.509 130.448 232.056C131.337 232.602 132.389 232.876 133.603 232.876C135.074 232.876 136.33 232.372 137.373 231.364C138.434 230.356 139.237 228.766 139.784 226.596C140.349 224.409 140.631 221.581 140.631 218.113C140.631 214.593 140.383 211.748 139.887 209.578C139.408 207.408 138.647 205.836 137.604 204.862C136.578 203.871 135.245 203.375 133.603 203.375ZM138.81 204.631L139.938 208.399L128.704 231.133L127.114 228.134L138.81 204.631Z" fill="#1673FF" fill-opacity="0.6"/>
<path d="M168.132 200.479V234.747H163.823V205.144L155.718 210.065L153.846 206.989L164.362 200.479H168.132ZM175.519 232.261V235.772H155.128V232.261H175.519Z" fill="#1673FF" fill-opacity="0.6"/>
<path d="M198.891 200.479V234.747H194.582V205.144L186.477 210.065L184.604 206.989L195.121 200.479H198.891ZM206.278 232.261V235.772H185.887V232.261H206.278Z" fill="#1673FF" fill-opacity="0.6"/>
<path d="M225.879 199.915C229.693 199.915 232.574 201.487 234.523 204.631C236.472 207.775 237.447 212.269 237.447 218.113C237.447 223.974 236.472 228.485 234.523 231.646C232.574 234.79 229.693 236.362 225.879 236.362C222.083 236.362 219.202 234.79 217.236 231.646C215.286 228.485 214.312 223.974 214.312 218.113C214.312 212.269 215.286 207.775 217.236 204.631C219.202 201.487 222.083 199.915 225.879 199.915ZM225.879 203.375C223.708 203.375 221.998 204.529 220.75 206.836C219.501 209.125 218.877 212.884 218.877 218.113C218.877 220.761 219.014 223.025 219.288 224.905C219.561 226.784 219.98 228.314 220.544 229.493C221.126 230.655 221.853 231.509 222.725 232.056C223.614 232.602 224.665 232.876 225.879 232.876C227.35 232.876 228.607 232.372 229.65 231.364C230.71 230.356 231.514 228.766 232.061 226.596C232.625 224.409 232.907 221.581 232.907 218.113C232.907 214.593 232.659 211.748 232.163 209.578C231.685 207.408 230.924 205.836 229.881 204.862C228.855 203.871 227.521 203.375 225.879 203.375ZM231.086 204.631L232.215 208.399L220.98 231.133L219.39 228.134L231.086 204.631Z" fill="#1673FF" fill-opacity="0.6"/>
<path d="M260.409 200.479V234.747H256.1V205.144L247.994 210.065L246.122 206.989L256.638 200.479H260.409ZM267.796 232.261V235.772H247.405V232.261H267.796Z" fill="#1673FF" fill-opacity="0.6"/>
<path d="M291.167 200.479V234.747H286.858V205.144L278.753 210.065L276.881 206.989L287.397 200.479H291.167ZM298.554 232.261V235.772H278.163V232.261H298.554Z" fill="#1673FF" fill-opacity="0.6"/>
<path d="M321.926 200.479V234.747H317.617V205.144L309.512 210.065L307.64 206.989L318.156 200.479H321.926ZM329.313 232.261V235.772H308.922V232.261H329.313Z" fill="#1673FF" fill-opacity="0.6"/>
<path d="M348.915 199.915C352.728 199.915 355.609 201.487 357.558 204.631C359.508 207.775 360.482 212.269 360.482 218.113C360.482 223.974 359.508 228.485 357.558 231.646C355.609 234.79 352.728 236.362 348.915 236.362C345.119 236.362 342.237 234.79 340.271 231.646C338.322 228.485 337.347 223.974 337.347 218.113C337.347 212.269 338.322 207.775 340.271 204.631C342.237 201.487 345.119 199.915 348.915 199.915ZM348.915 203.375C346.743 203.375 345.033 204.529 343.785 206.836C342.537 209.125 341.912 212.884 341.912 218.113C341.912 220.761 342.049 223.025 342.323 224.905C342.596 226.784 343.015 228.314 343.58 229.493C344.161 230.655 344.888 231.509 345.76 232.056C346.649 232.602 347.701 232.876 348.915 232.876C350.385 232.876 351.642 232.372 352.685 231.364C353.745 230.356 354.549 228.766 355.096 226.596C355.66 224.409 355.943 221.581 355.943 218.113C355.943 214.593 355.695 211.748 355.199 209.578C354.72 207.408 353.959 205.836 352.916 204.862C351.89 203.871 350.556 203.375 348.915 203.375ZM354.121 204.631L355.25 208.399L344.016 231.133L342.425 228.134L354.121 204.631Z" fill="#1673FF" fill-opacity="0.6"/>
<path d="M383.444 200.479V234.747H379.135V205.144L371.03 210.065L369.157 206.989L379.673 200.479H383.444ZM390.831 232.261V235.772H370.44V232.261H390.831Z" fill="#1673FF" fill-opacity="0.6"/>
<path d="M414.203 200.479V234.747H409.894V205.144L401.789 210.065L399.916 206.989L410.432 200.479H414.203ZM421.59 232.261V235.772H401.199V232.261H421.59Z" fill="#1673FF" fill-opacity="0.6"/>
<path d="M10.5677 266.554C14.3809 266.554 17.2621 268.126 19.2114 271.27C21.1608 274.414 22.1354 278.908 22.1354 284.751C22.1354 290.612 21.1608 295.123 19.2114 298.284C17.2621 301.428 14.3809 303 10.5677 303C6.77166 303 3.89042 301.428 1.92399 298.284C-0.0253363 295.123 -1 290.612 -1 284.751C-1 278.908 -0.0253363 274.414 1.92399 271.27C3.89042 268.126 6.77166 266.554 10.5677 266.554ZM10.5677 270.014C8.3961 270.014 6.68616 271.167 5.43791 273.474C4.18966 275.764 3.56553 279.523 3.56553 284.751C3.56553 287.4 3.70232 289.664 3.97591 291.543C4.2495 293.423 4.66844 294.952 5.23272 296.131C5.8141 297.293 6.54082 298.147 7.41289 298.694C8.30205 299.241 9.35366 299.514 10.5677 299.514C12.0383 299.514 13.2951 299.01 14.3381 298.002C15.3983 296.994 16.202 295.405 16.7491 293.235C17.3134 291.048 17.5956 288.22 17.5956 284.751C17.5956 281.231 17.3476 278.386 16.8517 276.216C16.373 274.046 15.612 272.474 14.569 271.501C13.543 270.509 12.2093 270.014 10.5677 270.014ZM15.7745 271.27L16.903 275.037L5.66875 297.771L4.07851 294.773L15.7745 271.27Z" fill="#1673FF" fill-opacity="0.6"/>
<path d="M45.0969 267.118V301.385H40.7879V271.782L32.6828 276.703L30.8104 273.628L41.3265 267.118H45.0969ZM52.4839 298.899V302.41H32.0929V298.899H52.4839Z" fill="#1673FF" fill-opacity="0.6"/>
<path d="M75.8558 267.118V301.385H71.5467V271.782L63.4416 276.703L61.5692 273.628L72.0853 267.118H75.8558ZM83.2427 298.899V302.41H62.8517V298.899H83.2427Z" fill="#1673FF" fill-opacity="0.6"/>
<path d="M106.615 267.118V301.385H102.306V271.782L94.2004 276.703L92.328 273.628L102.844 267.118H106.615ZM114.001 298.899V302.41H93.6105V298.899H114.001Z" fill="#1673FF" fill-opacity="0.6"/>
<path d="M137.373 267.118V301.385H133.064V271.782L124.959 276.703L123.087 273.628L133.603 267.118H137.373ZM144.76 298.899V302.41H124.369V298.899H144.76Z" fill="#1673FF" fill-opacity="0.6"/>
<path d="M168.132 267.118V301.385H163.823V271.782L155.718 276.703L153.846 273.628L164.362 267.118H168.132ZM175.519 298.899V302.41H155.128V298.899H175.519Z" fill="#1673FF" fill-opacity="0.6"/>
<path d="M198.891 267.118V301.385H194.582V271.782L186.477 276.703L184.604 273.628L195.121 267.118H198.891ZM206.278 298.899V302.41H185.887V298.899H206.278Z" fill="#1673FF" fill-opacity="0.6"/>
<path d="M229.65 267.118V301.385H225.341V271.782L217.236 276.703L215.363 273.628L225.879 267.118H229.65ZM237.037 298.899V302.41H216.646V298.899H237.037Z" fill="#1673FF" fill-opacity="0.6"/>
<path d="M260.409 267.118V301.385H256.1V271.782L247.994 276.703L246.122 273.628L256.638 267.118H260.409ZM267.796 298.899V302.41H247.405V298.899H267.796Z" fill="#1673FF" fill-opacity="0.6"/>
<path d="M287.397 266.554C291.21 266.554 294.091 268.126 296.041 271.27C297.99 274.414 298.965 278.908 298.965 284.751C298.965 290.612 297.99 295.123 296.041 298.284C294.091 301.428 291.21 303 287.397 303C283.601 303 280.72 301.428 278.753 298.284C276.804 295.123 275.829 290.612 275.829 284.751C275.829 278.908 276.804 274.414 278.753 271.27C280.72 268.126 283.601 266.554 287.397 266.554ZM287.397 270.014C285.225 270.014 283.515 271.167 282.267 273.474C281.019 275.764 280.395 279.523 280.395 284.751C280.395 287.4 280.532 289.664 280.805 291.543C281.079 293.423 281.498 294.952 282.062 296.131C282.643 297.293 283.37 298.147 284.242 298.694C285.131 299.241 286.183 299.514 287.397 299.514C288.868 299.514 290.124 299.01 291.167 298.002C292.228 296.994 293.031 295.405 293.578 293.235C294.143 291.048 294.425 288.22 294.425 284.751C294.425 281.231 294.177 278.386 293.681 276.216C293.202 274.046 292.441 272.474 291.398 271.501C290.372 270.509 289.039 270.014 287.397 270.014ZM292.604 271.27L293.732 275.037L282.498 297.771L280.908 294.773L292.604 271.27Z" fill="#1673FF" fill-opacity="0.6"/>
<path d="M321.926 267.118V301.385H317.617V271.782L309.512 276.703L307.64 273.628L318.156 267.118H321.926ZM329.313 298.899V302.41H308.922V298.899H329.313Z" fill="#1673FF" fill-opacity="0.6"/>
<path d="M352.685 267.118V301.385H348.376V271.782L340.271 276.703L338.399 273.628L348.915 267.118H352.685ZM360.072 298.899V302.41H339.681V298.899H360.072Z" fill="#1673FF" fill-opacity="0.6"/>
<path d="M383.444 267.118V301.385H379.135V271.782L371.03 276.703L369.157 273.628L379.673 267.118H383.444ZM390.831 298.899V302.41H370.44V298.899H390.831Z" fill="#1673FF" fill-opacity="0.6"/>
<path d="M414.203 267.118V301.385H409.894V271.782L401.789 276.703L399.916 273.628L410.432 267.118H414.203ZM421.59 298.899V302.41H401.199V298.899H421.59Z" fill="#1673FF" fill-opacity="0.6"/>
</svg>
