<svg width="275" height="260" viewBox="0 0 275 260" fill="none" xmlns="http://www.w3.org/2000/svg">
<path d="M15.0494 11.46V38.2H11.6894V15.1L5.36938 18.94L3.90938 16.54L12.1094 11.46H15.0494ZM20.8094 36.26V39H4.90938V36.26H20.8094ZM36.0938 11.02C39.0671 11.02 41.3138 12.2467 42.8338 14.7C44.3538 17.1533 45.1137 20.66 45.1137 25.22C45.1137 29.7933 44.3538 33.3133 42.8338 35.78C41.3138 38.2333 39.0671 39.46 36.0938 39.46C33.1338 39.46 30.8871 38.2333 29.3538 35.78C27.8338 33.3133 27.0738 29.7933 27.0738 25.22C27.0738 20.66 27.8338 17.1533 29.3538 14.7C30.8871 12.2467 33.1338 11.02 36.0938 11.02ZM36.0938 13.72C34.4004 13.72 33.0671 14.62 32.0938 16.42C31.1204 18.2067 30.6338 21.14 30.6338 25.22C30.6338 27.2867 30.7404 29.0533 30.9538 30.52C31.1671 31.9867 31.4938 33.18 31.9338 34.1C32.3871 35.0067 32.9538 35.6733 33.6338 36.1C34.3271 36.5267 35.1471 36.74 36.0938 36.74C37.2404 36.74 38.2204 36.3467 39.0338 35.56C39.8604 34.7733 40.4871 33.5333 40.9138 31.84C41.3538 30.1333 41.5738 27.9267 41.5738 25.22C41.5738 22.4733 41.3804 20.2533 40.9938 18.56C40.6204 16.8667 40.0271 15.64 39.2138 14.88C38.4138 14.1067 37.3738 13.72 36.0938 13.72ZM40.1538 14.7L41.0338 17.64L32.2738 35.38L31.0338 33.04L40.1538 14.7ZM60.0781 11.02C63.0515 11.02 65.2981 12.2467 66.8181 14.7C68.3381 17.1533 69.0981 20.66 69.0981 25.22C69.0981 29.7933 68.3381 33.3133 66.8181 35.78C65.2981 38.2333 63.0515 39.46 60.0781 39.46C57.1181 39.46 54.8715 38.2333 53.3381 35.78C51.8181 33.3133 51.0581 29.7933 51.0581 25.22C51.0581 20.66 51.8181 17.1533 53.3381 14.7C54.8715 12.2467 57.1181 11.02 60.0781 11.02ZM60.0781 13.72C58.3848 13.72 57.0515 14.62 56.0781 16.42C55.1048 18.2067 54.6181 21.14 54.6181 25.22C54.6181 27.2867 54.7248 29.0533 54.9381 30.52C55.1515 31.9867 55.4781 33.18 55.9181 34.1C56.3715 35.0067 56.9381 35.6733 57.6181 36.1C58.3115 36.5267 59.1315 36.74 60.0781 36.74C61.2248 36.74 62.2048 36.3467 63.0181 35.56C63.8448 34.7733 64.4715 33.5333 64.8981 31.84C65.3381 30.1333 65.5581 27.9267 65.5581 25.22C65.5581 22.4733 65.3648 20.2533 64.9781 18.56C64.6048 16.8667 64.0115 15.64 63.1981 14.88C62.3981 14.1067 61.3581 13.72 60.0781 13.72ZM64.1381 14.7L65.0181 17.64L56.2581 35.38L55.0181 33.04L64.1381 14.7ZM84.0625 11.02C87.0358 11.02 89.2825 12.2467 90.8025 14.7C92.3225 17.1533 93.0825 20.66 93.0825 25.22C93.0825 29.7933 92.3225 33.3133 90.8025 35.78C89.2825 38.2333 87.0358 39.46 84.0625 39.46C81.1025 39.46 78.8558 38.2333 77.3225 35.78C75.8025 33.3133 75.0425 29.7933 75.0425 25.22C75.0425 20.66 75.8025 17.1533 77.3225 14.7C78.8558 12.2467 81.1025 11.02 84.0625 11.02ZM84.0625 13.72C82.3692 13.72 81.0358 14.62 80.0625 16.42C79.0892 18.2067 78.6025 21.14 78.6025 25.22C78.6025 27.2867 78.7092 29.0533 78.9225 30.52C79.1358 31.9867 79.4625 33.18 79.9025 34.1C80.3558 35.0067 80.9225 35.6733 81.6025 36.1C82.2958 36.5267 83.1158 36.74 84.0625 36.74C85.2092 36.74 86.1892 36.3467 87.0025 35.56C87.8292 34.7733 88.4558 33.5333 88.8825 31.84C89.3225 30.1333 89.5425 27.9267 89.5425 25.22C89.5425 22.4733 89.3492 20.2533 88.9625 18.56C88.5892 16.8667 87.9958 15.64 87.1825 14.88C86.3825 14.1067 85.3425 13.72 84.0625 13.72ZM88.1225 14.7L89.0025 17.64L80.2425 35.38L79.0025 33.04L88.1225 14.7ZM110.987 11.46V38.2H107.627V15.1L101.307 18.94L99.8469 16.54L108.047 11.46H110.987ZM116.747 36.26V39H100.847V36.26H116.747ZM132.031 11.02C135.005 11.02 137.251 12.2467 138.771 14.7C140.291 17.1533 141.051 20.66 141.051 25.22C141.051 29.7933 140.291 33.3133 138.771 35.78C137.251 38.2333 135.005 39.46 132.031 39.46C129.071 39.46 126.825 38.2333 125.291 35.78C123.771 33.3133 123.011 29.7933 123.011 25.22C123.011 20.66 123.771 17.1533 125.291 14.7C126.825 12.2467 129.071 11.02 132.031 11.02ZM132.031 13.72C130.338 13.72 129.005 14.62 128.031 16.42C127.058 18.2067 126.571 21.14 126.571 25.22C126.571 27.2867 126.678 29.0533 126.891 30.52C127.105 31.9867 127.431 33.18 127.871 34.1C128.325 35.0067 128.891 35.6733 129.571 36.1C130.265 36.5267 131.085 36.74 132.031 36.74C133.178 36.74 134.158 36.3467 134.971 35.56C135.798 34.7733 136.425 33.5333 136.851 31.84C137.291 30.1333 137.511 27.9267 137.511 25.22C137.511 22.4733 137.318 20.2533 136.931 18.56C136.558 16.8667 135.965 15.64 135.151 14.88C134.351 14.1067 133.311 13.72 132.031 13.72ZM136.091 14.7L136.971 17.64L128.211 35.38L126.971 33.04L136.091 14.7ZM158.956 11.46V38.2H155.596V15.1L149.276 18.94L147.816 16.54L156.016 11.46H158.956ZM164.716 36.26V39H148.816V36.26H164.716ZM180 11.02C182.973 11.02 185.22 12.2467 186.74 14.7C188.26 17.1533 189.02 20.66 189.02 25.22C189.02 29.7933 188.26 33.3133 186.74 35.78C185.22 38.2333 182.973 39.46 180 39.46C177.04 39.46 174.793 38.2333 173.26 35.78C171.74 33.3133 170.98 29.7933 170.98 25.22C170.98 20.66 171.74 17.1533 173.26 14.7C174.793 12.2467 177.04 11.02 180 11.02ZM180 13.72C178.307 13.72 176.973 14.62 176 16.42C175.027 18.2067 174.54 21.14 174.54 25.22C174.54 27.2867 174.647 29.0533 174.86 30.52C175.073 31.9867 175.4 33.18 175.84 34.1C176.293 35.0067 176.86 35.6733 177.54 36.1C178.233 36.5267 179.053 36.74 180 36.74C181.147 36.74 182.127 36.3467 182.94 35.56C183.767 34.7733 184.393 33.5333 184.82 31.84C185.26 30.1333 185.48 27.9267 185.48 25.22C185.48 22.4733 185.287 20.2533 184.9 18.56C184.527 16.8667 183.933 15.64 183.12 14.88C182.32 14.1067 181.28 13.72 180 13.72ZM184.06 14.7L184.94 17.64L176.18 35.38L174.94 33.04L184.06 14.7ZM206.924 11.46V38.2H203.564V15.1L197.244 18.94L195.784 16.54L203.984 11.46H206.924ZM212.684 36.26V39H196.784V36.26H212.684ZM227.969 11.02C230.942 11.02 233.189 12.2467 234.709 14.7C236.229 17.1533 236.989 20.66 236.989 25.22C236.989 29.7933 236.229 33.3133 234.709 35.78C233.189 38.2333 230.942 39.46 227.969 39.46C225.009 39.46 222.762 38.2333 221.229 35.78C219.709 33.3133 218.949 29.7933 218.949 25.22C218.949 20.66 219.709 17.1533 221.229 14.7C222.762 12.2467 225.009 11.02 227.969 11.02ZM227.969 13.72C226.275 13.72 224.942 14.62 223.969 16.42C222.995 18.2067 222.509 21.14 222.509 25.22C222.509 27.2867 222.615 29.0533 222.829 30.52C223.042 31.9867 223.369 33.18 223.809 34.1C224.262 35.0067 224.829 35.6733 225.509 36.1C226.202 36.5267 227.022 36.74 227.969 36.74C229.115 36.74 230.095 36.3467 230.909 35.56C231.735 34.7733 232.362 33.5333 232.789 31.84C233.229 30.1333 233.449 27.9267 233.449 25.22C233.449 22.4733 233.255 20.2533 232.869 18.56C232.495 16.8667 231.902 15.64 231.089 14.88C230.289 14.1067 229.249 13.72 227.969 13.72ZM232.029 14.7L232.909 17.64L224.149 35.38L222.909 33.04L232.029 14.7ZM254.893 11.46V38.2H251.533V15.1L245.213 18.94L243.753 16.54L251.953 11.46H254.893ZM260.653 36.26V39H244.753V36.26H260.653ZM275.938 11.02C278.911 11.02 281.158 12.2467 282.678 14.7C284.198 17.1533 284.957 20.66 284.957 25.22C284.957 29.7933 284.198 33.3133 282.678 35.78C281.158 38.2333 278.911 39.46 275.938 39.46C272.978 39.46 270.731 38.2333 269.198 35.78C267.678 33.3133 266.918 29.7933 266.918 25.22C266.918 20.66 267.678 17.1533 269.198 14.7C270.731 12.2467 272.978 11.02 275.938 11.02ZM275.938 13.72C274.244 13.72 272.911 14.62 271.938 16.42C270.964 18.2067 270.478 21.14 270.478 25.22C270.478 27.2867 270.584 29.0533 270.798 30.52C271.011 31.9867 271.338 33.18 271.778 34.1C272.231 35.0067 272.798 35.6733 273.478 36.1C274.171 36.5267 274.991 36.74 275.938 36.74C277.084 36.74 278.064 36.3467 278.878 35.56C279.704 34.7733 280.331 33.5333 280.758 31.84C281.198 30.1333 281.418 27.9267 281.418 25.22C281.418 22.4733 281.224 20.2533 280.838 18.56C280.464 16.8667 279.871 15.64 279.058 14.88C278.258 14.1067 277.218 13.72 275.938 13.72ZM279.998 14.7L280.878 17.64L272.118 35.38L270.878 33.04L279.998 14.7ZM302.862 11.46V38.2H299.502V15.1L293.182 18.94L291.722 16.54L299.922 11.46H302.862ZM308.622 36.26V39H292.722V36.26H308.622ZM323.906 11.02C326.88 11.02 329.126 12.2467 330.646 14.7C332.166 17.1533 332.926 20.66 332.926 25.22C332.926 29.7933 332.166 33.3133 330.646 35.78C329.126 38.2333 326.88 39.46 323.906 39.46C320.946 39.46 318.7 38.2333 317.166 35.78C315.646 33.3133 314.886 29.7933 314.886 25.22C314.886 20.66 315.646 17.1533 317.166 14.7C318.7 12.2467 320.946 11.02 323.906 11.02ZM323.906 13.72C322.213 13.72 320.88 14.62 319.906 16.42C318.933 18.2067 318.446 21.14 318.446 25.22C318.446 27.2867 318.553 29.0533 318.766 30.52C318.98 31.9867 319.306 33.18 319.746 34.1C320.2 35.0067 320.766 35.6733 321.446 36.1C322.14 36.5267 322.96 36.74 323.906 36.74C325.053 36.74 326.033 36.3467 326.846 35.56C327.673 34.7733 328.3 33.5333 328.726 31.84C329.166 30.1333 329.386 27.9267 329.386 25.22C329.386 22.4733 329.193 20.2533 328.806 18.56C328.433 16.8667 327.84 15.64 327.026 14.88C326.226 14.1067 325.186 13.72 323.906 13.72ZM327.966 14.7L328.846 17.64L320.086 35.38L318.846 33.04L327.966 14.7ZM15.0494 63.46V90.2H11.6894V67.1L5.36938 70.94L3.90938 68.54L12.1094 63.46H15.0494ZM20.8094 88.26V91H4.90938V88.26H20.8094ZM36.0938 63.02C39.0671 63.02 41.3138 64.2467 42.8338 66.7C44.3538 69.1533 45.1137 72.66 45.1137 77.22C45.1137 81.7933 44.3538 85.3133 42.8338 87.78C41.3138 90.2333 39.0671 91.46 36.0938 91.46C33.1338 91.46 30.8871 90.2333 29.3538 87.78C27.8338 85.3133 27.0738 81.7933 27.0738 77.22C27.0738 72.66 27.8338 69.1533 29.3538 66.7C30.8871 64.2467 33.1338 63.02 36.0938 63.02ZM36.0938 65.72C34.4004 65.72 33.0671 66.62 32.0938 68.42C31.1204 70.2067 30.6338 73.14 30.6338 77.22C30.6338 79.2867 30.7404 81.0533 30.9538 82.52C31.1671 83.9867 31.4938 85.18 31.9338 86.1C32.3871 87.0067 32.9538 87.6733 33.6338 88.1C34.3271 88.5267 35.1471 88.74 36.0938 88.74C37.2404 88.74 38.2204 88.3467 39.0338 87.56C39.8604 86.7733 40.4871 85.5333 40.9138 83.84C41.3538 82.1333 41.5738 79.9267 41.5738 77.22C41.5738 74.4733 41.3804 72.2533 40.9938 70.56C40.6204 68.8667 40.0271 67.64 39.2138 66.88C38.4138 66.1067 37.3738 65.72 36.0938 65.72ZM40.1538 66.7L41.0338 69.64L32.2738 87.38L31.0338 85.04L40.1538 66.7ZM63.0181 63.46V90.2H59.6581V67.1L53.3381 70.94L51.8781 68.54L60.0781 63.46H63.0181ZM68.7781 88.26V91H52.8781V88.26H68.7781ZM84.0625 63.02C87.0358 63.02 89.2825 64.2467 90.8025 66.7C92.3225 69.1533 93.0825 72.66 93.0825 77.22C93.0825 81.7933 92.3225 85.3133 90.8025 87.78C89.2825 90.2333 87.0358 91.46 84.0625 91.46C81.1025 91.46 78.8558 90.2333 77.3225 87.78C75.8025 85.3133 75.0425 81.7933 75.0425 77.22C75.0425 72.66 75.8025 69.1533 77.3225 66.7C78.8558 64.2467 81.1025 63.02 84.0625 63.02ZM84.0625 65.72C82.3692 65.72 81.0358 66.62 80.0625 68.42C79.0892 70.2067 78.6025 73.14 78.6025 77.22C78.6025 79.2867 78.7092 81.0533 78.9225 82.52C79.1358 83.9867 79.4625 85.18 79.9025 86.1C80.3558 87.0067 80.9225 87.6733 81.6025 88.1C82.2958 88.5267 83.1158 88.74 84.0625 88.74C85.2092 88.74 86.1892 88.3467 87.0025 87.56C87.8292 86.7733 88.4558 85.5333 88.8825 83.84C89.3225 82.1333 89.5425 79.9267 89.5425 77.22C89.5425 74.4733 89.3492 72.2533 88.9625 70.56C88.5892 68.8667 87.9958 67.64 87.1825 66.88C86.3825 66.1067 85.3425 65.72 84.0625 65.72ZM88.1225 66.7L89.0025 69.64L80.2425 87.38L79.0025 85.04L88.1225 66.7ZM110.987 63.46V90.2H107.627V67.1L101.307 70.94L99.8469 68.54L108.047 63.46H110.987ZM116.747 88.26V91H100.847V88.26H116.747ZM132.031 63.02C135.005 63.02 137.251 64.2467 138.771 66.7C140.291 69.1533 141.051 72.66 141.051 77.22C141.051 81.7933 140.291 85.3133 138.771 87.78C137.251 90.2333 135.005 91.46 132.031 91.46C129.071 91.46 126.825 90.2333 125.291 87.78C123.771 85.3133 123.011 81.7933 123.011 77.22C123.011 72.66 123.771 69.1533 125.291 66.7C126.825 64.2467 129.071 63.02 132.031 63.02ZM132.031 65.72C130.338 65.72 129.005 66.62 128.031 68.42C127.058 70.2067 126.571 73.14 126.571 77.22C126.571 79.2867 126.678 81.0533 126.891 82.52C127.105 83.9867 127.431 85.18 127.871 86.1C128.325 87.0067 128.891 87.6733 129.571 88.1C130.265 88.5267 131.085 88.74 132.031 88.74C133.178 88.74 134.158 88.3467 134.971 87.56C135.798 86.7733 136.425 85.5333 136.851 83.84C137.291 82.1333 137.511 79.9267 137.511 77.22C137.511 74.4733 137.318 72.2533 136.931 70.56C136.558 68.8667 135.965 67.64 135.151 66.88C134.351 66.1067 133.311 65.72 132.031 65.72ZM136.091 66.7L136.971 69.64L128.211 87.38L126.971 85.04L136.091 66.7ZM158.956 63.46V90.2H155.596V67.1L149.276 70.94L147.816 68.54L156.016 63.46H158.956ZM164.716 88.26V91H148.816V88.26H164.716ZM180 63.02C182.973 63.02 185.22 64.2467 186.74 66.7C188.26 69.1533 189.02 72.66 189.02 77.22C189.02 81.7933 188.26 85.3133 186.74 87.78C185.22 90.2333 182.973 91.46 180 91.46C177.04 91.46 174.793 90.2333 173.26 87.78C171.74 85.3133 170.98 81.7933 170.98 77.22C170.98 72.66 171.74 69.1533 173.26 66.7C174.793 64.2467 177.04 63.02 180 63.02ZM180 65.72C178.307 65.72 176.973 66.62 176 68.42C175.027 70.2067 174.54 73.14 174.54 77.22C174.54 79.2867 174.647 81.0533 174.86 82.52C175.073 83.9867 175.4 85.18 175.84 86.1C176.293 87.0067 176.86 87.6733 177.54 88.1C178.233 88.5267 179.053 88.74 180 88.74C181.147 88.74 182.127 88.3467 182.94 87.56C183.767 86.7733 184.393 85.5333 184.82 83.84C185.26 82.1333 185.48 79.9267 185.48 77.22C185.48 74.4733 185.287 72.2533 184.9 70.56C184.527 68.8667 183.933 67.64 183.12 66.88C182.32 66.1067 181.28 65.72 180 65.72ZM184.06 66.7L184.94 69.64L176.18 87.38L174.94 85.04L184.06 66.7ZM206.924 63.46V90.2H203.564V67.1L197.244 70.94L195.784 68.54L203.984 63.46H206.924ZM212.684 88.26V91H196.784V88.26H212.684ZM227.969 63.02C230.942 63.02 233.189 64.2467 234.709 66.7C236.229 69.1533 236.989 72.66 236.989 77.22C236.989 81.7933 236.229 85.3133 234.709 87.78C233.189 90.2333 230.942 91.46 227.969 91.46C225.009 91.46 222.762 90.2333 221.229 87.78C219.709 85.3133 218.949 81.7933 218.949 77.22C218.949 72.66 219.709 69.1533 221.229 66.7C222.762 64.2467 225.009 63.02 227.969 63.02ZM227.969 65.72C226.275 65.72 224.942 66.62 223.969 68.42C222.995 70.2067 222.509 73.14 222.509 77.22C222.509 79.2867 222.615 81.0533 222.829 82.52C223.042 83.9867 223.369 85.18 223.809 86.1C224.262 87.0067 224.829 87.6733 225.509 88.1C226.202 88.5267 227.022 88.74 227.969 88.74C229.115 88.74 230.095 88.3467 230.909 87.56C231.735 86.7733 232.362 85.5333 232.789 83.84C233.229 82.1333 233.449 79.9267 233.449 77.22C233.449 74.4733 233.255 72.2533 232.869 70.56C232.495 68.8667 231.902 67.64 231.089 66.88C230.289 66.1067 229.249 65.72 227.969 65.72ZM232.029 66.7L232.909 69.64L224.149 87.38L222.909 85.04L232.029 66.7ZM251.953 63.02C254.926 63.02 257.173 64.2467 258.693 66.7C260.213 69.1533 260.973 72.66 260.973 77.22C260.973 81.7933 260.213 85.3133 258.693 87.78C257.173 90.2333 254.926 91.46 251.953 91.46C248.993 91.46 246.746 90.2333 245.213 87.78C243.693 85.3133 242.933 81.7933 242.933 77.22C242.933 72.66 243.693 69.1533 245.213 66.7C246.746 64.2467 248.993 63.02 251.953 63.02ZM251.953 65.72C250.26 65.72 248.926 66.62 247.953 68.42C246.98 70.2067 246.493 73.14 246.493 77.22C246.493 79.2867 246.6 81.0533 246.813 82.52C247.026 83.9867 247.353 85.18 247.793 86.1C248.246 87.0067 248.813 87.6733 249.493 88.1C250.186 88.5267 251.006 88.74 251.953 88.74C253.1 88.74 254.08 88.3467 254.893 87.56C255.72 86.7733 256.346 85.5333 256.773 83.84C257.213 82.1333 257.433 79.9267 257.433 77.22C257.433 74.4733 257.24 72.2533 256.853 70.56C256.48 68.8667 255.886 67.64 255.073 66.88C254.273 66.1067 253.233 65.72 251.953 65.72ZM256.013 66.7L256.893 69.64L248.133 87.38L246.893 85.04L256.013 66.7ZM278.878 63.46V90.2H275.518V67.1L269.198 70.94L267.738 68.54L275.938 63.46H278.878ZM284.638 88.26V91H268.738V88.26H284.638ZM302.862 63.46V90.2H299.502V67.1L293.182 70.94L291.722 68.54L299.922 63.46H302.862ZM308.622 88.26V91H292.722V88.26H308.622ZM326.846 63.46V90.2H323.486V67.1L317.166 70.94L315.706 68.54L323.906 63.46H326.846ZM332.606 88.26V91H316.706V88.26H332.606ZM12.1094 115.02C15.0827 115.02 17.3294 116.247 18.8494 118.7C20.3694 121.153 21.1294 124.66 21.1294 129.22C21.1294 133.793 20.3694 137.313 18.8494 139.78C17.3294 142.233 15.0827 143.46 12.1094 143.46C9.14938 143.46 6.90271 142.233 5.36938 139.78C3.84938 137.313 3.08938 133.793 3.08938 129.22C3.08938 124.66 3.84938 121.153 5.36938 118.7C6.90271 116.247 9.14938 115.02 12.1094 115.02ZM12.1094 117.72C10.416 117.72 9.08271 118.62 8.10938 120.42C7.13604 122.207 6.64938 125.14 6.64938 129.22C6.64938 131.287 6.75604 133.053 6.96938 134.52C7.18271 135.987 7.50938 137.18 7.94938 138.1C8.40271 139.007 8.96938 139.673 9.64938 140.1C10.3427 140.527 11.1627 140.74 12.1094 140.74C13.256 140.74 14.236 140.347 15.0494 139.56C15.876 138.773 16.5027 137.533 16.9294 135.84C17.3694 134.133 17.5894 131.927 17.5894 129.22C17.5894 126.473 17.396 124.253 17.0094 122.56C16.636 120.867 16.0427 119.64 15.2294 118.88C14.4294 118.107 13.3894 117.72 12.1094 117.72ZM16.1694 118.7L17.0494 121.64L8.28938 139.38L7.04938 137.04L16.1694 118.7ZM39.0338 115.46V142.2H35.6738V119.1L29.3538 122.94L27.8938 120.54L36.0938 115.46H39.0338ZM44.7938 140.26V143H28.8938V140.26H44.7938ZM63.0181 115.46V142.2H59.6581V119.1L53.3381 122.94L51.8781 120.54L60.0781 115.46H63.0181ZM68.7781 140.26V143H52.8781V140.26H68.7781ZM84.0625 115.02C87.0358 115.02 89.2825 116.247 90.8025 118.7C92.3225 121.153 93.0825 124.66 93.0825 129.22C93.0825 133.793 92.3225 137.313 90.8025 139.78C89.2825 142.233 87.0358 143.46 84.0625 143.46C81.1025 143.46 78.8558 142.233 77.3225 139.78C75.8025 137.313 75.0425 133.793 75.0425 129.22C75.0425 124.66 75.8025 121.153 77.3225 118.7C78.8558 116.247 81.1025 115.02 84.0625 115.02ZM84.0625 117.72C82.3692 117.72 81.0358 118.62 80.0625 120.42C79.0892 122.207 78.6025 125.14 78.6025 129.22C78.6025 131.287 78.7092 133.053 78.9225 134.52C79.1358 135.987 79.4625 137.18 79.9025 138.1C80.3558 139.007 80.9225 139.673 81.6025 140.1C82.2958 140.527 83.1158 140.74 84.0625 140.74C85.2092 140.74 86.1892 140.347 87.0025 139.56C87.8292 138.773 88.4558 137.533 88.8825 135.84C89.3225 134.133 89.5425 131.927 89.5425 129.22C89.5425 126.473 89.3492 124.253 88.9625 122.56C88.5892 120.867 87.9958 119.64 87.1825 118.88C86.3825 118.107 85.3425 117.72 84.0625 117.72ZM88.1225 118.7L89.0025 121.64L80.2425 139.38L79.0025 137.04L88.1225 118.7ZM110.987 115.46V142.2H107.627V119.1L101.307 122.94L99.8469 120.54L108.047 115.46H110.987ZM116.747 140.26V143H100.847V140.26H116.747ZM132.031 115.02C135.005 115.02 137.251 116.247 138.771 118.7C140.291 121.153 141.051 124.66 141.051 129.22C141.051 133.793 140.291 137.313 138.771 139.78C137.251 142.233 135.005 143.46 132.031 143.46C129.071 143.46 126.825 142.233 125.291 139.78C123.771 137.313 123.011 133.793 123.011 129.22C123.011 124.66 123.771 121.153 125.291 118.7C126.825 116.247 129.071 115.02 132.031 115.02ZM132.031 117.72C130.338 117.72 129.005 118.62 128.031 120.42C127.058 122.207 126.571 125.14 126.571 129.22C126.571 131.287 126.678 133.053 126.891 134.52C127.105 135.987 127.431 137.18 127.871 138.1C128.325 139.007 128.891 139.673 129.571 140.1C130.265 140.527 131.085 140.74 132.031 140.74C133.178 140.74 134.158 140.347 134.971 139.56C135.798 138.773 136.425 137.533 136.851 135.84C137.291 134.133 137.511 131.927 137.511 129.22C137.511 126.473 137.318 124.253 136.931 122.56C136.558 120.867 135.965 119.64 135.151 118.88C134.351 118.107 133.311 117.72 132.031 117.72ZM136.091 118.7L136.971 121.64L128.211 139.38L126.971 137.04L136.091 118.7ZM158.956 115.46V142.2H155.596V119.1L149.276 122.94L147.816 120.54L156.016 115.46H158.956ZM164.716 140.26V143H148.816V140.26H164.716ZM182.94 115.46V142.2H179.58V119.1L173.26 122.94L171.8 120.54L180 115.46H182.94ZM188.7 140.26V143H172.8V140.26H188.7ZM206.924 115.46V142.2H203.564V119.1L197.244 122.94L195.784 120.54L203.984 115.46H206.924ZM212.684 140.26V143H196.784V140.26H212.684ZM230.909 115.46V142.2H227.549V119.1L221.229 122.94L219.769 120.54L227.969 115.46H230.909ZM236.669 140.26V143H220.769V140.26H236.669ZM251.953 115.02C254.926 115.02 257.173 116.247 258.693 118.7C260.213 121.153 260.973 124.66 260.973 129.22C260.973 133.793 260.213 137.313 258.693 139.78C257.173 142.233 254.926 143.46 251.953 143.46C248.993 143.46 246.746 142.233 245.213 139.78C243.693 137.313 242.933 133.793 242.933 129.22C242.933 124.66 243.693 121.153 245.213 118.7C246.746 116.247 248.993 115.02 251.953 115.02ZM251.953 117.72C250.26 117.72 248.926 118.62 247.953 120.42C246.98 122.207 246.493 125.14 246.493 129.22C246.493 131.287 246.6 133.053 246.813 134.52C247.026 135.987 247.353 137.18 247.793 138.1C248.246 139.007 248.813 139.673 249.493 140.1C250.186 140.527 251.006 140.74 251.953 140.74C253.1 140.74 254.08 140.347 254.893 139.56C255.72 138.773 256.346 137.533 256.773 135.84C257.213 134.133 257.433 131.927 257.433 129.22C257.433 126.473 257.24 124.253 256.853 122.56C256.48 120.867 255.886 119.64 255.073 118.88C254.273 118.107 253.233 117.72 251.953 117.72ZM256.013 118.7L256.893 121.64L248.133 139.38L246.893 137.04L256.013 118.7ZM278.878 115.46V142.2H275.518V119.1L269.198 122.94L267.738 120.54L275.938 115.46H278.878ZM284.638 140.26V143H268.738V140.26H284.638ZM302.862 115.46V142.2H299.502V119.1L293.182 122.94L291.722 120.54L299.922 115.46H302.862ZM308.622 140.26V143H292.722V140.26H308.622ZM323.906 115.02C326.88 115.02 329.126 116.247 330.646 118.7C332.166 121.153 332.926 124.66 332.926 129.22C332.926 133.793 332.166 137.313 330.646 139.78C329.126 142.233 326.88 143.46 323.906 143.46C320.946 143.46 318.7 142.233 317.166 139.78C315.646 137.313 314.886 133.793 314.886 129.22C314.886 124.66 315.646 121.153 317.166 118.7C318.7 116.247 320.946 115.02 323.906 115.02ZM323.906 117.72C322.213 117.72 320.88 118.62 319.906 120.42C318.933 122.207 318.446 125.14 318.446 129.22C318.446 131.287 318.553 133.053 318.766 134.52C318.98 135.987 319.306 137.18 319.746 138.1C320.2 139.007 320.766 139.673 321.446 140.1C322.14 140.527 322.96 140.74 323.906 140.74C325.053 140.74 326.033 140.347 326.846 139.56C327.673 138.773 328.3 137.533 328.726 135.84C329.166 134.133 329.386 131.927 329.386 129.22C329.386 126.473 329.193 124.253 328.806 122.56C328.433 120.867 327.84 119.64 327.026 118.88C326.226 118.107 325.186 117.72 323.906 117.72ZM327.966 118.7L328.846 121.64L320.086 139.38L318.846 137.04L327.966 118.7ZM15.0494 167.46V194.2H11.6894V171.1L5.36938 174.94L3.90938 172.54L12.1094 167.46H15.0494ZM20.8094 192.26V195H4.90938V192.26H20.8094ZM36.0938 167.02C39.0671 167.02 41.3138 168.247 42.8338 170.7C44.3538 173.153 45.1137 176.66 45.1137 181.22C45.1137 185.793 44.3538 189.313 42.8338 191.78C41.3138 194.233 39.0671 195.46 36.0938 195.46C33.1338 195.46 30.8871 194.233 29.3538 191.78C27.8338 189.313 27.0738 185.793 27.0738 181.22C27.0738 176.66 27.8338 173.153 29.3538 170.7C30.8871 168.247 33.1338 167.02 36.0938 167.02ZM36.0938 169.72C34.4004 169.72 33.0671 170.62 32.0938 172.42C31.1204 174.207 30.6338 177.14 30.6338 181.22C30.6338 183.287 30.7404 185.053 30.9538 186.52C31.1671 187.987 31.4938 189.18 31.9338 190.1C32.3871 191.007 32.9538 191.673 33.6338 192.1C34.3271 192.527 35.1471 192.74 36.0938 192.74C37.2404 192.74 38.2204 192.347 39.0338 191.56C39.8604 190.773 40.4871 189.533 40.9138 187.84C41.3538 186.133 41.5738 183.927 41.5738 181.22C41.5738 178.473 41.3804 176.253 40.9938 174.56C40.6204 172.867 40.0271 171.64 39.2138 170.88C38.4138 170.107 37.3738 169.72 36.0938 169.72ZM40.1538 170.7L41.0338 173.64L32.2738 191.38L31.0338 189.04L40.1538 170.7ZM60.0781 167.02C63.0515 167.02 65.2981 168.247 66.8181 170.7C68.3381 173.153 69.0981 176.66 69.0981 181.22C69.0981 185.793 68.3381 189.313 66.8181 191.78C65.2981 194.233 63.0515 195.46 60.0781 195.46C57.1181 195.46 54.8715 194.233 53.3381 191.78C51.8181 189.313 51.0581 185.793 51.0581 181.22C51.0581 176.66 51.8181 173.153 53.3381 170.7C54.8715 168.247 57.1181 167.02 60.0781 167.02ZM60.0781 169.72C58.3848 169.72 57.0515 170.62 56.0781 172.42C55.1048 174.207 54.6181 177.14 54.6181 181.22C54.6181 183.287 54.7248 185.053 54.9381 186.52C55.1515 187.987 55.4781 189.18 55.9181 190.1C56.3715 191.007 56.9381 191.673 57.6181 192.1C58.3115 192.527 59.1315 192.74 60.0781 192.74C61.2248 192.74 62.2048 192.347 63.0181 191.56C63.8448 190.773 64.4715 189.533 64.8981 187.84C65.3381 186.133 65.5581 183.927 65.5581 181.22C65.5581 178.473 65.3648 176.253 64.9781 174.56C64.6048 172.867 64.0115 171.64 63.1981 170.88C62.3981 170.107 61.3581 169.72 60.0781 169.72ZM64.1381 170.7L65.0181 173.64L56.2581 191.38L55.0181 189.04L64.1381 170.7ZM87.0025 167.46V194.2H83.6425V171.1L77.3225 174.94L75.8625 172.54L84.0625 167.46H87.0025ZM92.7625 192.26V195H76.8625V192.26H92.7625ZM108.047 167.02C111.02 167.02 113.267 168.247 114.787 170.7C116.307 173.153 117.067 176.66 117.067 181.22C117.067 185.793 116.307 189.313 114.787 191.78C113.267 194.233 111.02 195.46 108.047 195.46C105.087 195.46 102.84 194.233 101.307 191.78C99.7869 189.313 99.0269 185.793 99.0269 181.22C99.0269 176.66 99.7869 173.153 101.307 170.7C102.84 168.247 105.087 167.02 108.047 167.02ZM108.047 169.72C106.354 169.72 105.02 170.62 104.047 172.42C103.074 174.207 102.587 177.14 102.587 181.22C102.587 183.287 102.694 185.053 102.907 186.52C103.12 187.987 103.447 189.18 103.887 190.1C104.34 191.007 104.907 191.673 105.587 192.1C106.28 192.527 107.1 192.74 108.047 192.74C109.194 192.74 110.174 192.347 110.987 191.56C111.814 190.773 112.44 189.533 112.867 187.84C113.307 186.133 113.527 183.927 113.527 181.22C113.527 178.473 113.334 176.253 112.947 174.56C112.574 172.867 111.98 171.64 111.167 170.88C110.367 170.107 109.327 169.72 108.047 169.72ZM112.107 170.7L112.987 173.64L104.227 191.38L102.987 189.04L112.107 170.7ZM134.971 167.46V194.2H131.611V171.1L125.291 174.94L123.831 172.54L132.031 167.46H134.971ZM140.731 192.26V195H124.831V192.26H140.731ZM158.956 167.46V194.2H155.596V171.1L149.276 174.94L147.816 172.54L156.016 167.46H158.956ZM164.716 192.26V195H148.816V192.26H164.716ZM180 167.02C182.973 167.02 185.22 168.247 186.74 170.7C188.26 173.153 189.02 176.66 189.02 181.22C189.02 185.793 188.26 189.313 186.74 191.78C185.22 194.233 182.973 195.46 180 195.46C177.04 195.46 174.793 194.233 173.26 191.78C171.74 189.313 170.98 185.793 170.98 181.22C170.98 176.66 171.74 173.153 173.26 170.7C174.793 168.247 177.04 167.02 180 167.02ZM180 169.72C178.307 169.72 176.973 170.62 176 172.42C175.027 174.207 174.54 177.14 174.54 181.22C174.54 183.287 174.647 185.053 174.86 186.52C175.073 187.987 175.4 189.18 175.84 190.1C176.293 191.007 176.86 191.673 177.54 192.1C178.233 192.527 179.053 192.74 180 192.74C181.147 192.74 182.127 192.347 182.94 191.56C183.767 190.773 184.393 189.533 184.82 187.84C185.26 186.133 185.48 183.927 185.48 181.22C185.48 178.473 185.287 176.253 184.9 174.56C184.527 172.867 183.933 171.64 183.12 170.88C182.32 170.107 181.28 169.72 180 169.72ZM184.06 170.7L184.94 173.64L176.18 191.38L174.94 189.04L184.06 170.7ZM206.924 167.46V194.2H203.564V171.1L197.244 174.94L195.784 172.54L203.984 167.46H206.924ZM212.684 192.26V195H196.784V192.26H212.684ZM230.909 167.46V194.2H227.549V171.1L221.229 174.94L219.769 172.54L227.969 167.46H230.909ZM236.669 192.26V195H220.769V192.26H236.669ZM254.893 167.46V194.2H251.533V171.1L245.213 174.94L243.753 172.54L251.953 167.46H254.893ZM260.653 192.26V195H244.753V192.26H260.653ZM275.938 167.02C278.911 167.02 281.158 168.247 282.678 170.7C284.198 173.153 284.957 176.66 284.957 181.22C284.957 185.793 284.198 189.313 282.678 191.78C281.158 194.233 278.911 195.46 275.938 195.46C272.978 195.46 270.731 194.233 269.198 191.78C267.678 189.313 266.918 185.793 266.918 181.22C266.918 176.66 267.678 173.153 269.198 170.7C270.731 168.247 272.978 167.02 275.938 167.02ZM275.938 169.72C274.244 169.72 272.911 170.62 271.938 172.42C270.964 174.207 270.478 177.14 270.478 181.22C270.478 183.287 270.584 185.053 270.798 186.52C271.011 187.987 271.338 189.18 271.778 190.1C272.231 191.007 272.798 191.673 273.478 192.1C274.171 192.527 274.991 192.74 275.938 192.74C277.084 192.74 278.064 192.347 278.878 191.56C279.704 190.773 280.331 189.533 280.758 187.84C281.198 186.133 281.418 183.927 281.418 181.22C281.418 178.473 281.224 176.253 280.838 174.56C280.464 172.867 279.871 171.64 279.058 170.88C278.258 170.107 277.218 169.72 275.938 169.72ZM279.998 170.7L280.878 173.64L272.118 191.38L270.878 189.04L279.998 170.7ZM302.862 167.46V194.2H299.502V171.1L293.182 174.94L291.722 172.54L299.922 167.46H302.862ZM308.622 192.26V195H292.722V192.26H308.622ZM326.846 167.46V194.2H323.486V171.1L317.166 174.94L315.706 172.54L323.906 167.46H326.846ZM332.606 192.26V195H316.706V192.26H332.606ZM12.1094 219.02C15.0827 219.02 17.3294 220.247 18.8494 222.7C20.3694 225.153 21.1294 228.66 21.1294 233.22C21.1294 237.793 20.3694 241.313 18.8494 243.78C17.3294 246.233 15.0827 247.46 12.1094 247.46C9.14938 247.46 6.90271 246.233 5.36938 243.78C3.84938 241.313 3.08938 237.793 3.08938 233.22C3.08938 228.66 3.84938 225.153 5.36938 222.7C6.90271 220.247 9.14938 219.02 12.1094 219.02ZM12.1094 221.72C10.416 221.72 9.08271 222.62 8.10938 224.42C7.13604 226.207 6.64938 229.14 6.64938 233.22C6.64938 235.287 6.75604 237.053 6.96938 238.52C7.18271 239.987 7.50938 241.18 7.94938 242.1C8.40271 243.007 8.96938 243.673 9.64938 244.1C10.3427 244.527 11.1627 244.74 12.1094 244.74C13.256 244.74 14.236 244.347 15.0494 243.56C15.876 242.773 16.5027 241.533 16.9294 239.84C17.3694 238.133 17.5894 235.927 17.5894 233.22C17.5894 230.473 17.396 228.253 17.0094 226.56C16.636 224.867 16.0427 223.64 15.2294 222.88C14.4294 222.107 13.3894 221.72 12.1094 221.72ZM16.1694 222.7L17.0494 225.64L8.28938 243.38L7.04938 241.04L16.1694 222.7ZM39.0338 219.46V246.2H35.6738V223.1L29.3538 226.94L27.8938 224.54L36.0938 219.46H39.0338ZM44.7938 244.26V247H28.8938V244.26H44.7938ZM63.0181 219.46V246.2H59.6581V223.1L53.3381 226.94L51.8781 224.54L60.0781 219.46H63.0181ZM68.7781 244.26V247H52.8781V244.26H68.7781ZM87.0025 219.46V246.2H83.6425V223.1L77.3225 226.94L75.8625 224.54L84.0625 219.46H87.0025ZM92.7625 244.26V247H76.8625V244.26H92.7625ZM110.987 219.46V246.2H107.627V223.1L101.307 226.94L99.8469 224.54L108.047 219.46H110.987ZM116.747 244.26V247H100.847V244.26H116.747ZM134.971 219.46V246.2H131.611V223.1L125.291 226.94L123.831 224.54L132.031 219.46H134.971ZM140.731 244.26V247H124.831V244.26H140.731ZM158.956 219.46V246.2H155.596V223.1L149.276 226.94L147.816 224.54L156.016 219.46H158.956ZM164.716 244.26V247H148.816V244.26H164.716ZM182.94 219.46V246.2H179.58V223.1L173.26 226.94L171.8 224.54L180 219.46H182.94ZM188.7 244.26V247H172.8V244.26H188.7ZM206.924 219.46V246.2H203.564V223.1L197.244 226.94L195.784 224.54L203.984 219.46H206.924ZM212.684 244.26V247H196.784V244.26H212.684ZM227.969 219.02C230.942 219.02 233.189 220.247 234.709 222.7C236.229 225.153 236.989 228.66 236.989 233.22C236.989 237.793 236.229 241.313 234.709 243.78C233.189 246.233 230.942 247.46 227.969 247.46C225.009 247.46 222.762 246.233 221.229 243.78C219.709 241.313 218.949 237.793 218.949 233.22C218.949 228.66 219.709 225.153 221.229 222.7C222.762 220.247 225.009 219.02 227.969 219.02ZM227.969 221.72C226.275 221.72 224.942 222.62 223.969 224.42C222.995 226.207 222.509 229.14 222.509 233.22C222.509 235.287 222.615 237.053 222.829 238.52C223.042 239.987 223.369 241.18 223.809 242.1C224.262 243.007 224.829 243.673 225.509 244.1C226.202 244.527 227.022 244.74 227.969 244.74C229.115 244.74 230.095 244.347 230.909 243.56C231.735 242.773 232.362 241.533 232.789 239.84C233.229 238.133 233.449 235.927 233.449 233.22C233.449 230.473 233.255 228.253 232.869 226.56C232.495 224.867 231.902 223.64 231.089 222.88C230.289 222.107 229.249 221.72 227.969 221.72ZM232.029 222.7L232.909 225.64L224.149 243.38L222.909 241.04L232.029 222.7ZM254.893 219.46V246.2H251.533V223.1L245.213 226.94L243.753 224.54L251.953 219.46H254.893ZM260.653 244.26V247H244.753V244.26H260.653ZM278.878 219.46V246.2H275.518V223.1L269.198 226.94L267.738 224.54L275.938 219.46H278.878ZM284.638 244.26V247H268.738V244.26H284.638ZM302.862 219.46V246.2H299.502V223.1L293.182 226.94L291.722 224.54L299.922 219.46H302.862ZM308.622 244.26V247H292.722V244.26H308.622ZM326.846 219.46V246.2H323.486V223.1L317.166 226.94L315.706 224.54L323.906 219.46H326.846ZM332.606 244.26V247H316.706V244.26H332.606Z" fill="#009BFF" fill-opacity="0.5"/>
</svg>
