<svg width="385" height="116" viewBox="0 0 385 116" fill="none" xmlns="http://www.w3.org/2000/svg">
<path d="M179.375 96.8898C194.345 96.8698 209.325 96.7398 224.295 96.8898C230.135 96.9498 235.425 95.8898 239.935 91.9898C243.195 89.1698 245.215 85.6298 246.085 81.4298C246.355 80.1198 246.465 78.7798 246.655 77.4498C240.615 74.7898 234.755 72.1898 228.875 69.6298C222.685 66.9398 216.475 64.2798 210.265 61.6098C202.695 58.3498 195.115 55.1398 187.575 51.7998C185.405 50.8398 183.325 49.6298 181.355 48.3198C180.625 47.8398 180.025 46.7598 179.885 45.8698C178.535 37.6298 177.985 29.3798 181.135 21.4098C183.245 16.0998 186.865 11.8898 191.225 8.14982C194.925 4.95982 199.075 2.96982 203.735 1.97982C206.455 1.39982 209.275 1.01982 212.045 0.999824C224.185 0.889824 236.325 0.869824 248.465 0.999824C254.565 1.05982 259.615 3.40983 262.035 9.37983C262.965 11.6698 262.985 14.3298 263.465 17.0798H260.565C245.955 17.0798 231.335 17.0498 216.725 17.0998C210.345 17.1198 204.755 19.1098 200.375 23.9998C197.735 26.9498 196.265 30.4498 195.495 34.2698C195.195 35.7898 195.655 36.7398 197.235 37.4198C204.965 40.7098 212.645 44.1398 220.345 47.5198C231.155 52.2798 241.965 57.0398 252.775 61.7898C254.605 62.5898 256.425 63.3898 258.295 64.0798C260.535 64.9098 261.995 66.1298 262.385 68.7598C263.485 76.1998 263.805 83.5898 261.445 90.8398C259.255 97.5598 255.155 102.94 249.465 107.09C247.875 108.24 246.185 109.46 244.355 110.03C240.565 111.23 236.685 112.64 232.775 112.83C222.725 113.31 212.655 113.2 202.585 113.23C198.415 113.25 194.155 113.52 190.105 112.77C183.455 111.54 178.055 105.59 178.995 97.2598C179.115 97.1498 179.245 97.0298 179.375 96.9198V96.8998V96.8898Z" fill="white"/>
<path d="M363.797 40.5399C363.797 44.4599 363.867 48.3899 363.817 52.3099C363.797 54.6199 361.297 57.5799 359.187 58.4099C355.837 59.7399 352.577 61.2799 349.267 62.6999C345.437 64.3399 341.557 65.8899 337.747 67.5799C334.697 68.9299 331.737 70.4799 328.717 71.8799C327.007 72.6699 325.277 73.4899 323.477 74.0599C321.077 74.8099 320.237 75.9599 320.717 78.4199C321.537 82.5499 323.007 86.4999 325.717 89.6599C329.787 94.4199 334.907 97.6299 341.307 98.5499C349.877 99.7799 356.987 97.0099 362.677 90.7099C366.397 86.5899 368.707 81.7699 368.717 75.9699C368.747 63.9399 369.127 51.9099 369.027 39.8799C368.997 36.1899 369.107 32.3099 367.357 28.7999C363.697 21.4499 357.597 17.8499 349.577 17.7399C337.227 17.5599 324.867 17.6899 312.507 17.6899H305.667C304.417 11.0499 307.587 5.49989 313.057 3.13989C314.447 2.53989 316.057 2.17989 317.557 2.16989C329.837 2.09989 342.127 1.7499 354.387 2.2399C366.667 2.7199 377.287 8.95989 382.237 21.3999C383.567 24.7599 384.227 28.5899 384.287 32.2199C384.517 46.4599 384.357 60.7099 384.397 74.9499C384.397 79.9199 383.697 84.8899 381.467 89.1999C379.717 92.5699 378.807 96.5299 375.457 99.1599C372.267 101.67 369.837 105.19 366.617 107.66C362.207 111.04 356.937 113.06 351.477 113.71C342.717 114.76 334.017 114.18 326.177 109.45C323.577 107.88 321.367 105.65 318.827 103.96C314.287 100.96 311.267 96.6199 309.247 91.8799C307.457 87.6899 305.647 83.3199 305.377 78.5599C305.227 76.0799 305.107 73.7599 305.567 71.2199C305.907 69.3299 305.797 67.2799 306.787 65.5299C307.297 64.6299 308.087 63.6699 308.987 63.2499C315.137 60.3899 321.367 57.6899 327.557 54.9099C333.657 52.1699 339.747 49.4099 345.837 46.6499C349.897 44.7999 353.917 42.8699 358.007 41.0699C359.457 40.4299 361.037 40.0899 362.557 39.5999C362.967 39.9199 363.377 40.2299 363.787 40.5499L363.807 40.5299L363.797 40.5399Z" fill="white"/>
<path d="M23.2957 74.0899C23.2757 70.3899 23.2458 66.6799 23.2458 62.9799C23.2458 58.8399 24.0357 57.8499 27.8057 56.2599C34.7157 53.3399 41.5757 50.2999 48.4557 47.3099C53.0257 45.3299 57.5657 43.2699 62.1757 41.4099C64.5157 40.4599 63.9257 38.5399 63.6857 37.0399C62.5757 30.0999 58.8757 24.3899 53.0857 20.7799C48.2857 17.7899 42.6657 15.8199 36.6857 17.4199C33.3157 18.3199 29.6157 18.8499 26.7757 20.6499C23.8257 22.5199 21.4557 25.5099 19.3357 28.3999C16.5457 32.1999 15.7158 36.7099 15.7458 41.4499C15.8358 53.8099 15.7657 66.1599 15.7757 78.5199C15.7757 87.4699 19.8357 93.8799 28.0557 97.4499C29.7657 98.1999 31.7857 98.4999 33.6757 98.5099C47.9957 98.6099 62.3058 98.5799 76.6358 98.5999H78.9858C81.0058 105.06 75.5757 113.31 68.9257 113.75C62.3457 114.18 55.7258 114.04 49.1158 114.12C43.0858 114.19 37.0557 114.38 31.0357 114.22C23.7957 114.03 17.2858 111.85 11.5058 107.17C5.37578 102.21 2.20574 95.7399 0.595743 88.3299C0.125743 86.1799 0.415699 83.8399 0.425699 81.5899C0.445699 66.4099 0.275782 51.2299 0.635782 36.0599C0.765782 30.3399 2.76569 24.8699 6.29569 20.1699C8.21569 17.6199 9.89571 14.8099 12.1857 12.6399C17.9957 7.14993 24.8257 3.39993 32.8357 2.16993C43.7557 0.489931 53.8558 2.62993 62.9858 8.97993C70.8858 14.4799 75.9057 22.0299 78.0957 31.3099C78.9957 35.1599 79.2257 39.1999 79.4057 43.1699C79.5057 45.2499 79.2257 47.5299 78.4157 49.4099C77.7657 50.9299 76.2857 52.4999 74.7857 53.1899C66.8957 56.8499 58.8857 60.2299 50.9257 63.7199C45.6557 66.0399 40.4057 68.3799 35.1557 70.7299C32.4657 71.9299 29.8357 73.2699 27.0757 74.3199C26.0557 74.6999 24.7957 74.4499 23.6557 74.4799C23.5457 74.3499 23.4257 74.2299 23.3057 74.0999L23.2957 74.0899Z" fill="white"/>
<path d="M110.056 66.6999C110.186 67.8899 110.436 69.0799 110.436 70.2699C110.436 84.7699 110.386 99.2899 110.356 113.79C110.246 113.91 110.126 114.04 110.016 114.17H92.9062V3.43994C92.9062 3.14994 92.9263 2.85994 92.9463 2.56994C93.0963 2.27994 93.2363 1.96993 93.3763 1.67993C94.5763 1.39993 95.7863 0.889939 96.9863 0.879939C106.506 0.809939 116.026 0.719928 125.536 0.899928C129.426 0.969928 133.406 1.31993 137.166 2.24993C140.986 3.19993 144.846 4.57994 148.206 6.57994C157.636 12.1999 163.516 20.5499 165.356 31.4499C166.016 35.3899 166.326 39.4299 166.346 43.4299C166.446 61.3799 166.426 79.3399 166.346 97.2999C166.346 99.6199 165.916 101.98 165.386 104.25C164.096 109.69 159.486 113.32 153.876 113.88C152.296 114.04 150.806 115 148.966 115.71V113.13C148.966 88.8499 148.966 64.5699 148.946 40.2799C148.946 38.0499 149.336 35.5799 148.516 33.6599C147.016 30.1499 145.976 26.2499 142.716 23.7099C141.926 23.0999 141.246 22.3499 140.516 21.6599L140.046 21.3399C139.766 21.1499 139.486 20.9599 139.206 20.7699C139.066 20.6599 138.926 20.5499 138.786 20.4399C138.626 20.3899 138.476 20.3499 138.326 20.2999C138.186 20.1999 138.056 20.0999 137.916 19.9999C137.756 19.9499 137.606 19.9099 137.456 19.8599C137.316 19.7599 137.186 19.6599 137.046 19.5599C129.306 16.3799 121.166 17.6399 113.156 17.3699C112.256 17.3399 111.366 17.1099 110.466 16.9699C110.176 17.1999 109.906 17.4199 109.616 17.6499C109.856 17.8599 110.096 18.0699 110.326 18.2799V65.3499C110.226 65.7999 110.126 66.2399 110.036 66.6899L110.056 66.6999Z" fill="white"/>
<path d="M278.356 111.63C275.566 109.64 274.636 106.7 274.496 103.51C274.366 100.55 274.586 97.5598 274.596 94.5898C274.596 73.8998 274.576 53.1898 274.596 32.4998C274.596 31.6998 274.886 30.8999 275.036 30.0999H291.886V114.3C287.336 113.96 282.836 114.4 278.826 111.92C278.676 111.82 278.526 111.73 278.376 111.63H278.356Z" fill="white"/>
<path d="M275.025 20.27C275.025 16.84 274.555 13.43 275.145 10.23C275.795 6.69998 278.725 3.27998 283.095 2.97998C286.115 2.77998 289.165 2.93999 292.395 2.93999V20.27H275.015H275.025Z" fill="white"/>
<path d="M363.796 40.5399C363.386 40.2199 362.976 39.9099 362.566 39.5899C362.926 39.3599 363.286 39.1299 363.656 38.8999C363.706 39.4499 363.756 39.9899 363.796 40.5399Z" fill="#4D4D6B"/>
<path d="M110.335 18.29C110.095 18.08 109.865 17.87 109.625 17.66C109.915 17.43 110.185 17.21 110.475 16.98C110.425 17.41 110.385 17.86 110.335 18.29Z" fill="#424464"/>
</svg>
