<svg width="422" height="248" viewBox="0 0 422 248" fill="none" xmlns="http://www.w3.org/2000/svg">
<path d="M198.004 96.0954C212.974 96.0754 227.954 95.9454 242.924 96.0954C248.764 96.1554 254.054 95.0954 258.564 91.1954C261.824 88.3754 263.844 84.8354 264.714 80.6354C264.984 79.3254 265.094 77.9854 265.284 76.6554C259.244 73.9954 253.384 71.3954 247.504 68.8354C241.314 66.1454 235.104 63.4854 228.894 60.8154C221.324 57.5554 213.744 54.3454 206.204 51.0054C204.034 50.0454 201.954 48.8354 199.984 47.5254C199.254 47.0454 198.654 45.9654 198.514 45.0754C197.164 36.8354 196.614 28.5854 199.764 20.6154C201.874 15.3054 205.494 11.0954 209.854 7.35538C213.554 4.16538 217.704 2.17539 222.364 1.18539C225.084 0.605386 227.904 0.22539 230.674 0.20539C242.814 0.0953901 254.954 0.0753901 267.094 0.20539C273.194 0.26539 278.244 2.6154 280.664 8.58539C281.594 10.8754 281.614 13.5354 282.094 16.2854H279.194C264.584 16.2854 249.964 16.2554 235.354 16.3054C228.974 16.3254 223.384 18.3154 219.004 23.2054C216.364 26.1554 214.894 29.6554 214.124 33.4754C213.824 34.9954 214.284 35.9454 215.864 36.6254C223.594 39.9154 231.274 43.3454 238.974 46.7254C249.784 51.4854 260.594 56.2454 271.404 60.9954C273.234 61.7954 275.054 62.5954 276.924 63.2854C279.164 64.1154 280.624 65.3354 281.014 67.9654C282.114 75.4054 282.434 82.7954 280.074 90.0454C277.884 96.7654 273.784 102.145 268.094 106.295C266.504 107.445 264.814 108.665 262.984 109.235C259.194 110.435 255.314 111.845 251.404 112.035C241.354 112.515 231.284 112.405 221.214 112.435C217.044 112.455 212.784 112.725 208.734 111.975C202.084 110.745 196.684 104.795 197.624 96.4654C197.744 96.3554 197.874 96.2354 198.004 96.1254V96.1054V96.0954Z" fill="white"/>
<path d="M382.426 39.7455C382.426 43.6655 382.496 47.5955 382.446 51.5155C382.426 53.8255 379.926 56.7855 377.816 57.6155C374.466 58.9455 371.206 60.4855 367.896 61.9055C364.066 63.5455 360.186 65.0954 356.376 66.7854C353.326 68.1354 350.366 69.6855 347.346 71.0855C345.636 71.8755 343.906 72.6955 342.106 73.2655C339.706 74.0155 338.866 75.1655 339.346 77.6255C340.166 81.7555 341.636 85.7055 344.346 88.8655C348.416 93.6255 353.536 96.8354 359.936 97.7554C368.506 98.9854 375.616 96.2155 381.306 89.9155C385.026 85.7955 387.336 80.9755 387.346 75.1755C387.376 63.1455 387.756 51.1155 387.656 39.0855C387.626 35.3955 387.735 31.5155 385.985 28.0055C382.325 20.6555 376.226 17.0555 368.206 16.9455C355.856 16.7655 343.496 16.8955 331.136 16.8955H324.296C323.046 10.2555 326.216 4.70546 331.686 2.34546C333.076 1.74546 334.686 1.38546 336.186 1.37546C348.466 1.30546 360.756 0.955462 373.016 1.44546C385.296 1.92546 395.916 8.16545 400.866 20.6055C402.196 23.9655 402.856 27.7955 402.916 31.4255C403.146 45.6655 402.986 59.9155 403.026 74.1555C403.026 79.1255 402.326 84.0955 400.096 88.4055C398.346 91.7755 397.436 95.7355 394.086 98.3655C390.896 100.875 388.466 104.395 385.246 106.865C380.836 110.245 375.566 112.265 370.106 112.915C361.346 113.965 352.646 113.385 344.806 108.655C342.206 107.085 339.996 104.855 337.456 103.165C332.916 100.165 329.896 95.8255 327.876 91.0855C326.086 86.8955 324.276 82.5255 324.006 77.7655C323.856 75.2855 323.736 72.9655 324.196 70.4255C324.536 68.5355 324.426 66.4855 325.416 64.7355C325.926 63.8355 326.716 62.8755 327.616 62.4555C333.766 59.5955 339.996 56.8955 346.186 54.1155C352.286 51.3755 358.375 48.6154 364.465 45.8554C368.525 44.0054 372.546 42.0755 376.636 40.2755C378.086 39.6355 379.666 39.2955 381.186 38.8055C381.596 39.1255 382.006 39.4354 382.416 39.7554L382.436 39.7355L382.426 39.7455Z" fill="white"/>
<path d="M41.9246 73.2952C41.9046 69.5952 41.8747 65.8853 41.8747 62.1853C41.8747 58.0453 42.6646 57.0553 46.4346 55.4653C53.3446 52.5453 60.2046 49.5053 67.0846 46.5153C71.6546 44.5353 76.1946 42.4753 80.8046 40.6153C83.1446 39.6653 82.5546 37.7453 82.3146 36.2453C81.2046 29.3053 77.5046 23.5953 71.7146 19.9853C66.9146 16.9953 61.2946 15.0253 55.3146 16.6253C51.9446 17.5253 48.2446 18.0552 45.4046 19.8552C42.4546 21.7252 40.0846 24.7152 37.9646 27.6052C35.1746 31.4052 34.3447 35.9153 34.3747 40.6553C34.4647 53.0153 34.3946 65.3652 34.4046 77.7252C34.4046 86.6752 38.4646 93.0853 46.6846 96.6553C48.3946 97.4053 50.4146 97.7053 52.3046 97.7153C66.6246 97.8153 80.9347 97.7853 95.2647 97.8053H97.6147C99.6347 104.265 94.2046 112.515 87.5546 112.955C80.9746 113.385 74.3547 113.245 67.7447 113.325C61.7147 113.395 55.6846 113.585 49.6646 113.425C42.4246 113.235 35.9147 111.055 30.1347 106.375C24.0047 101.415 20.8346 94.9452 19.2246 87.5352C18.7546 85.3852 19.0446 83.0452 19.0546 80.7952C19.0746 65.6152 18.9047 50.4353 19.2647 35.2653C19.3947 29.5453 21.3946 24.0753 24.9246 19.3753C26.8446 16.8253 28.5246 14.0153 30.8146 11.8453C36.6246 6.35526 43.4546 2.60525 51.4646 1.37525C62.3846 -0.304747 72.4847 1.83525 81.6147 8.18525C89.5147 13.6853 94.5346 21.2353 96.7246 30.5153C97.6246 34.3653 97.8546 38.4053 98.0346 42.3753C98.1346 44.4553 97.8546 46.7353 97.0446 48.6153C96.3946 50.1353 94.9146 51.7053 93.4146 52.3953C85.5246 56.0553 77.5146 59.4353 69.5546 62.9253C64.2846 65.2453 59.0346 67.5853 53.7846 69.9353C51.0946 71.1353 48.4646 72.4753 45.7046 73.5253C44.6846 73.9053 43.4246 73.6553 42.2846 73.6853C42.1746 73.5553 42.0546 73.4353 41.9346 73.3053L41.9246 73.2952Z" fill="white"/>
<path d="M128.685 65.9055C128.815 67.0955 129.065 68.2855 129.065 69.4755C129.065 83.9755 129.015 98.4955 128.985 112.996C128.875 113.116 128.755 113.246 128.645 113.376H111.535V2.6455C111.535 2.3555 111.555 2.06551 111.575 1.77551C111.725 1.48551 111.865 1.17549 112.005 0.885493C113.205 0.605493 114.415 0.0955051 115.615 0.0855051C125.135 0.0155051 134.655 -0.0745059 144.165 0.105494C148.055 0.175494 152.035 0.5255 155.795 1.4555C159.615 2.4055 163.475 3.7855 166.835 5.7855C176.265 11.4055 182.145 19.7555 183.985 30.6555C184.645 34.5955 184.955 38.6355 184.975 42.6355C185.075 60.5855 185.055 78.5455 184.975 96.5055C184.975 98.8255 184.545 101.185 184.015 103.455C182.725 108.895 178.115 112.526 172.505 113.086C170.925 113.246 169.435 114.205 167.595 114.915V112.336C167.595 88.0555 167.595 63.7755 167.575 39.4855C167.575 37.2555 167.965 34.7855 167.145 32.8655C165.645 29.3555 164.605 25.4555 161.345 22.9155C160.555 22.3055 159.875 21.5555 159.145 20.8655L158.675 20.5455C158.395 20.3555 158.115 20.1655 157.835 19.9755C157.695 19.8655 157.555 19.7555 157.415 19.6455C157.255 19.5955 157.105 19.5555 156.955 19.5055C156.815 19.4055 156.685 19.3055 156.545 19.2055C156.385 19.1555 156.235 19.1155 156.085 19.0655C155.945 18.9655 155.815 18.8655 155.675 18.7655C147.935 15.5855 139.795 16.8455 131.785 16.5755C130.885 16.5455 129.995 16.3155 129.095 16.1755C128.805 16.4055 128.535 16.6255 128.245 16.8555C128.485 17.0655 128.725 17.2755 128.955 17.4855V64.5555C128.855 65.0055 128.755 65.4455 128.665 65.8955L128.685 65.9055Z" fill="white"/>
<path d="M296.985 110.836C294.195 108.846 293.265 105.906 293.125 102.716C292.995 99.7557 293.215 96.7657 293.225 93.7957C293.225 73.1057 293.205 52.3957 293.225 31.7057C293.225 30.9057 293.515 30.1057 293.665 29.3057H310.515V113.506C305.965 113.166 301.465 113.606 297.455 111.126C297.305 111.026 297.155 110.936 297.005 110.836H296.985Z" fill="white"/>
<path d="M293.654 19.4756C293.654 16.0456 293.184 12.6356 293.774 9.43555C294.424 5.90555 297.354 2.48555 301.724 2.18555C304.744 1.98555 307.794 2.14556 311.024 2.14556V19.4756H293.644H293.654Z" fill="white"/>
<path d="M382.425 39.7455C382.015 39.4255 381.605 39.1155 381.195 38.7955C381.555 38.5655 381.915 38.3355 382.285 38.1055C382.335 38.6555 382.385 39.1955 382.425 39.7455Z" fill="#4D4D6B"/>
<path d="M128.964 17.4955C128.724 17.2855 128.494 17.0756 128.254 16.8656C128.544 16.6356 128.814 16.4155 129.104 16.1855C129.054 16.6155 129.014 17.0655 128.964 17.4955Z" fill="#424464"/>
<path d="M19.0858 151.127V153.865H12.0558V176.916H8.68877V153.865H1.62177V151.127H19.0858ZM33.2943 156.27C34.8237 156.27 36.205 156.603 37.4383 157.269C38.6717 157.91 39.6337 158.884 40.3243 160.192C41.0397 161.499 41.3973 163.09 41.3973 164.965V176.916H38.0673V165.446C38.0673 163.423 37.5617 161.881 36.5503 160.821C35.539 159.735 34.1577 159.193 32.4063 159.193C30.6303 159.193 29.212 159.748 28.1513 160.858C27.1153 161.968 26.5973 163.583 26.5973 165.705V176.916H23.2303V149.536H26.5973V159.526C27.2633 158.49 28.176 157.688 29.3353 157.121C30.5193 156.553 31.839 156.27 33.2943 156.27ZM65.3973 166.001C65.3973 166.642 65.3603 167.32 65.2863 168.036H49.0803C49.2037 170.034 49.882 171.6 51.1153 172.735C52.3733 173.845 53.8903 174.4 55.6663 174.4C57.1217 174.4 58.3303 174.067 59.2923 173.401C60.279 172.71 60.9697 171.797 61.3643 170.663H64.9903C64.4477 172.611 63.3623 174.202 61.7343 175.436C60.1063 176.644 58.0837 177.249 55.6663 177.249C53.7423 177.249 52.0157 176.817 50.4863 175.954C48.9817 175.09 47.7977 173.869 46.9343 172.291C46.071 170.687 45.6393 168.837 45.6393 166.741C45.6393 164.644 46.0587 162.806 46.8973 161.228C47.736 159.649 48.9077 158.44 50.4123 157.602C51.9417 156.738 53.693 156.307 55.6663 156.307C57.5903 156.307 59.2923 156.726 60.7723 157.565C62.2523 158.403 63.387 159.563 64.1763 161.043C64.9903 162.498 65.3973 164.151 65.3973 166.001ZM61.9193 165.298C61.9193 164.015 61.6357 162.917 61.0683 162.005C60.501 161.067 59.724 160.364 58.7373 159.896C57.7753 159.402 56.7023 159.156 55.5183 159.156C53.8163 159.156 52.361 159.698 51.1523 160.784C49.9683 161.869 49.29 163.374 49.1173 165.298H61.9193ZM99.9819 176.916H96.6149L83.0729 156.381V176.916H79.7059V151.09H83.0729L96.6149 171.588V151.09H99.9819V176.916ZM104.464 166.704C104.464 164.632 104.883 162.819 105.722 161.265C106.56 159.686 107.707 158.465 109.163 157.602C110.643 156.738 112.283 156.307 114.084 156.307C115.86 156.307 117.401 156.689 118.709 157.454C120.016 158.218 120.99 159.18 121.632 160.34V156.64H125.036V176.916H121.632V173.142C120.966 174.326 119.967 175.312 118.635 176.102C117.327 176.866 115.798 177.249 114.047 177.249C112.246 177.249 110.618 176.805 109.163 175.917C107.707 175.029 106.56 173.783 105.722 172.18C104.883 170.576 104.464 168.751 104.464 166.704ZM121.632 166.741C121.632 165.211 121.323 163.879 120.707 162.745C120.09 161.61 119.251 160.747 118.191 160.155C117.155 159.538 116.008 159.23 114.75 159.23C113.492 159.23 112.345 159.526 111.309 160.118C110.273 160.71 109.446 161.573 108.83 162.708C108.213 163.842 107.905 165.174 107.905 166.704C107.905 168.258 108.213 169.614 108.83 170.774C109.446 171.908 110.273 172.784 111.309 173.401C112.345 173.993 113.492 174.289 114.75 174.289C116.008 174.289 117.155 173.993 118.191 173.401C119.251 172.784 120.09 171.908 120.707 170.774C121.323 169.614 121.632 168.27 121.632 166.741ZM134.832 159.415V171.366C134.832 172.352 135.042 173.055 135.461 173.475C135.881 173.869 136.608 174.067 137.644 174.067H140.123V176.916H137.089C135.215 176.916 133.809 176.484 132.871 175.621C131.934 174.757 131.465 173.339 131.465 171.366V159.415H128.838V156.64H131.465V151.534H134.832V156.64H140.123V159.415H134.832ZM145.942 153.347C145.301 153.347 144.758 153.125 144.314 152.681C143.87 152.237 143.648 151.694 143.648 151.053C143.648 150.411 143.87 149.869 144.314 149.425C144.758 148.981 145.301 148.759 145.942 148.759C146.559 148.759 147.077 148.981 147.496 149.425C147.94 149.869 148.162 150.411 148.162 151.053C148.162 151.694 147.94 152.237 147.496 152.681C147.077 153.125 146.559 153.347 145.942 153.347ZM147.57 156.64V176.916H144.203V156.64H147.57ZM162.151 177.249C160.252 177.249 158.525 176.817 156.971 175.954C155.442 175.09 154.233 173.869 153.345 172.291C152.482 170.687 152.05 168.837 152.05 166.741C152.05 164.669 152.494 162.843 153.382 161.265C154.295 159.661 155.528 158.44 157.082 157.602C158.636 156.738 160.375 156.307 162.299 156.307C164.223 156.307 165.962 156.738 167.516 157.602C169.07 158.44 170.291 159.649 171.179 161.228C172.092 162.806 172.548 164.644 172.548 166.741C172.548 168.837 172.08 170.687 171.142 172.291C170.23 173.869 168.984 175.09 167.405 175.954C165.827 176.817 164.075 177.249 162.151 177.249ZM162.151 174.289C163.36 174.289 164.495 174.005 165.555 173.438C166.616 172.87 167.467 172.019 168.108 170.885C168.774 169.75 169.107 168.369 169.107 166.741C169.107 165.113 168.787 163.731 168.145 162.597C167.504 161.462 166.665 160.623 165.629 160.081C164.593 159.513 163.471 159.23 162.262 159.23C161.029 159.23 159.894 159.513 158.858 160.081C157.847 160.623 157.033 161.462 156.416 162.597C155.8 163.731 155.491 165.113 155.491 166.741C155.491 168.393 155.787 169.787 156.379 170.922C156.996 172.056 157.81 172.907 158.821 173.475C159.833 174.017 160.943 174.289 162.151 174.289ZM186.854 156.27C189.321 156.27 191.319 157.022 192.848 158.527C194.378 160.007 195.142 162.153 195.142 164.965V176.916H191.812V165.446C191.812 163.423 191.307 161.881 190.295 160.821C189.284 159.735 187.903 159.193 186.151 159.193C184.375 159.193 182.957 159.748 181.896 160.858C180.86 161.968 180.342 163.583 180.342 165.705V176.916H176.975V156.64H180.342V159.526C181.008 158.49 181.909 157.688 183.043 157.121C184.203 156.553 185.473 156.27 186.854 156.27ZM199.384 166.704C199.384 164.632 199.804 162.819 200.642 161.265C201.481 159.686 202.628 158.465 204.083 157.602C205.563 156.738 207.204 156.307 209.004 156.307C210.78 156.307 212.322 156.689 213.629 157.454C214.937 158.218 215.911 159.18 216.552 160.34V156.64H219.956V176.916H216.552V173.142C215.886 174.326 214.887 175.312 213.555 176.102C212.248 176.866 210.719 177.249 208.967 177.249C207.167 177.249 205.539 176.805 204.083 175.917C202.628 175.029 201.481 173.783 200.642 172.18C199.804 170.576 199.384 168.751 199.384 166.704ZM216.552 166.741C216.552 165.211 216.244 163.879 215.627 162.745C215.011 161.61 214.172 160.747 213.111 160.155C212.075 159.538 210.928 159.23 209.67 159.23C208.412 159.23 207.265 159.526 206.229 160.118C205.193 160.71 204.367 161.573 203.75 162.708C203.134 163.842 202.825 165.174 202.825 166.704C202.825 168.258 203.134 169.614 203.75 170.774C204.367 171.908 205.193 172.784 206.229 173.401C207.265 173.993 208.412 174.289 209.67 174.289C210.928 174.289 212.075 173.993 213.111 173.401C214.172 172.784 215.011 171.908 215.627 170.774C216.244 169.614 216.552 168.27 216.552 166.741ZM229.013 149.536V176.916H225.646V149.536H229.013ZM252.793 177.175C251.091 177.175 249.562 176.879 248.205 176.287C246.873 175.67 245.825 174.831 245.06 173.771C244.295 172.685 243.901 171.44 243.876 170.034H247.465C247.588 171.242 248.082 172.266 248.945 173.105C249.833 173.919 251.116 174.326 252.793 174.326C254.396 174.326 255.654 173.931 256.567 173.142C257.504 172.328 257.973 171.292 257.973 170.034C257.973 169.047 257.702 168.245 257.159 167.629C256.616 167.012 255.938 166.543 255.124 166.223C254.31 165.902 253.212 165.557 251.831 165.187C250.129 164.743 248.76 164.299 247.724 163.855C246.713 163.411 245.837 162.72 245.097 161.783C244.382 160.821 244.024 159.538 244.024 157.935C244.024 156.529 244.382 155.283 245.097 154.198C245.812 153.112 246.811 152.274 248.094 151.682C249.401 151.09 250.894 150.794 252.571 150.794C254.988 150.794 256.962 151.398 258.491 152.607C260.045 153.815 260.921 155.419 261.118 157.417H257.418C257.295 156.43 256.777 155.567 255.864 154.827C254.951 154.062 253.743 153.68 252.238 153.68C250.832 153.68 249.685 154.05 248.797 154.79C247.909 155.505 247.465 156.516 247.465 157.824C247.465 158.761 247.724 159.526 248.242 160.118C248.785 160.71 249.438 161.166 250.203 161.487C250.992 161.783 252.09 162.128 253.496 162.523C255.198 162.991 256.567 163.46 257.603 163.929C258.639 164.373 259.527 165.076 260.267 166.038C261.007 166.975 261.377 168.258 261.377 169.886C261.377 171.144 261.044 172.328 260.378 173.438C259.712 174.548 258.725 175.448 257.418 176.139C256.111 176.829 254.569 177.175 252.793 177.175ZM265.074 166.741C265.074 164.644 265.493 162.819 266.332 161.265C267.171 159.686 268.33 158.465 269.81 157.602C271.315 156.738 273.029 156.307 274.953 156.307C277.444 156.307 279.492 156.911 281.095 158.12C282.723 159.328 283.796 161.006 284.314 163.152H280.688C280.343 161.918 279.664 160.944 278.653 160.229C277.666 159.513 276.433 159.156 274.953 159.156C273.029 159.156 271.475 159.822 270.291 161.154C269.107 162.461 268.515 164.323 268.515 166.741C268.515 169.183 269.107 171.07 270.291 172.402C271.475 173.734 273.029 174.4 274.953 174.4C276.433 174.4 277.666 174.054 278.653 173.364C279.64 172.673 280.318 171.686 280.688 170.404H284.314C283.771 172.476 282.686 174.141 281.058 175.399C279.43 176.632 277.395 177.249 274.953 177.249C273.029 177.249 271.315 176.817 269.81 175.954C268.33 175.09 267.171 173.869 266.332 172.291C265.493 170.712 265.074 168.862 265.074 166.741ZM298.871 156.27C300.4 156.27 301.781 156.603 303.015 157.269C304.248 157.91 305.21 158.884 305.901 160.192C306.616 161.499 306.974 163.09 306.974 164.965V176.916H303.644V165.446C303.644 163.423 303.138 161.881 302.127 160.821C301.115 159.735 299.734 159.193 297.983 159.193C296.207 159.193 294.788 159.748 293.728 160.858C292.692 161.968 292.174 163.583 292.174 165.705V176.916H288.807V149.536H292.174V159.526C292.84 158.49 293.752 157.688 294.912 157.121C296.096 156.553 297.415 156.27 298.871 156.27ZM321.317 177.249C319.417 177.249 317.691 176.817 316.137 175.954C314.607 175.09 313.399 173.869 312.511 172.291C311.647 170.687 311.216 168.837 311.216 166.741C311.216 164.669 311.66 162.843 312.548 161.265C313.46 159.661 314.694 158.44 316.248 157.602C317.802 156.738 319.541 156.307 321.465 156.307C323.389 156.307 325.128 156.738 326.682 157.602C328.236 158.44 329.457 159.649 330.345 161.228C331.257 162.806 331.714 164.644 331.714 166.741C331.714 168.837 331.245 170.687 330.308 172.291C329.395 173.869 328.149 175.09 326.571 175.954C324.992 176.817 323.241 177.249 321.317 177.249ZM321.317 174.289C322.525 174.289 323.66 174.005 324.721 173.438C325.781 172.87 326.632 172.019 327.274 170.885C327.94 169.75 328.273 168.369 328.273 166.741C328.273 165.113 327.952 163.731 327.311 162.597C326.669 161.462 325.831 160.623 324.795 160.081C323.759 159.513 322.636 159.23 321.428 159.23C320.194 159.23 319.06 159.513 318.024 160.081C317.012 160.623 316.198 161.462 315.582 162.597C314.965 163.731 314.657 165.113 314.657 166.741C314.657 168.393 314.953 169.787 315.545 170.922C316.161 172.056 316.975 172.907 317.987 173.475C318.998 174.017 320.108 174.289 321.317 174.289ZM344.984 177.249C343.084 177.249 341.358 176.817 339.804 175.954C338.274 175.09 337.066 173.869 336.178 172.291C335.314 170.687 334.883 168.837 334.883 166.741C334.883 164.669 335.327 162.843 336.215 161.265C337.127 159.661 338.361 158.44 339.915 157.602C341.469 156.738 343.208 156.307 345.132 156.307C347.056 156.307 348.795 156.738 350.349 157.602C351.903 158.44 353.124 159.649 354.012 161.228C354.924 162.806 355.381 164.644 355.381 166.741C355.381 168.837 354.912 170.687 353.975 172.291C353.062 173.869 351.816 175.09 350.238 175.954C348.659 176.817 346.908 177.249 344.984 177.249ZM344.984 174.289C346.192 174.289 347.327 174.005 348.388 173.438C349.448 172.87 350.299 172.019 350.941 170.885C351.607 169.75 351.94 168.369 351.94 166.741C351.94 165.113 351.619 163.731 350.978 162.597C350.336 161.462 349.498 160.623 348.462 160.081C347.426 159.513 346.303 159.23 345.095 159.23C343.861 159.23 342.727 159.513 341.691 160.081C340.679 160.623 339.865 161.462 339.249 162.597C338.632 163.731 338.324 165.113 338.324 166.741C338.324 168.393 338.62 169.787 339.212 170.922C339.828 172.056 340.642 172.907 341.654 173.475C342.665 174.017 343.775 174.289 344.984 174.289ZM363.174 149.536V176.916H359.807V149.536H363.174ZM387.62 177.249C385.721 177.249 383.994 176.817 382.44 175.954C380.911 175.09 379.702 173.869 378.814 172.291C377.951 170.687 377.519 168.837 377.519 166.741C377.519 164.669 377.963 162.843 378.851 161.265C379.764 159.661 380.997 158.44 382.551 157.602C384.105 156.738 385.844 156.307 387.768 156.307C389.692 156.307 391.431 156.738 392.985 157.602C394.539 158.44 395.76 159.649 396.648 161.228C397.561 162.806 398.017 164.644 398.017 166.741C398.017 168.837 397.549 170.687 396.611 172.291C395.699 173.869 394.453 175.09 392.874 175.954C391.296 176.817 389.544 177.249 387.62 177.249ZM387.62 174.289C388.829 174.289 389.964 174.005 391.024 173.438C392.085 172.87 392.936 172.019 393.577 170.885C394.243 169.75 394.576 168.369 394.576 166.741C394.576 165.113 394.256 163.731 393.614 162.597C392.973 161.462 392.134 160.623 391.098 160.081C390.062 159.513 388.94 159.23 387.731 159.23C386.498 159.23 385.363 159.513 384.327 160.081C383.316 160.623 382.502 161.462 381.885 162.597C381.269 163.731 380.96 165.113 380.96 166.741C380.96 168.393 381.256 169.787 381.848 170.922C382.465 172.056 383.279 172.907 384.29 173.475C385.302 174.017 386.412 174.289 387.62 174.289ZM410.695 159.415H406.44V176.916H403.073V159.415H400.446V156.64H403.073V155.197C403.073 152.927 403.653 151.275 404.812 150.239C405.996 149.178 407.883 148.648 410.473 148.648V151.46C408.993 151.46 407.945 151.756 407.328 152.348C406.736 152.915 406.44 153.865 406.44 155.197V156.64H410.695V159.415ZM31.9972 228.328H22.3032L20.7492 232.916H14.1262L23.5242 206.942H30.8502L40.2482 232.916H33.5512L31.9972 228.328ZM30.3692 223.444L27.1502 213.935L23.9682 223.444H30.3692ZM49.4355 215.711C50.1755 214.576 51.1005 213.688 52.2105 213.047C53.3205 212.381 54.5538 212.048 55.9105 212.048V218.745H54.1715C52.5928 218.745 51.4088 219.09 50.6195 219.781C49.8301 220.447 49.4355 221.631 49.4355 223.333V232.916H43.1085V212.27H49.4355V215.711ZM70.4416 227.551V232.916H67.2226C64.9286 232.916 63.1403 232.361 61.8576 231.251C60.575 230.116 59.9336 228.278 59.9336 225.738V217.524H57.4176V212.27H59.9336V207.238H66.2606V212.27H70.4046V217.524H66.2606V225.812C66.2606 226.428 66.4086 226.872 66.7046 227.144C67.0006 227.415 67.494 227.551 68.1846 227.551H70.4416ZM77.1479 210.124C76.0379 210.124 75.1252 209.803 74.4099 209.162C73.7192 208.496 73.3739 207.682 73.3739 206.72C73.3739 205.733 73.7192 204.919 74.4099 204.278C75.1252 203.612 76.0379 203.279 77.1479 203.279C78.2332 203.279 79.1212 203.612 79.8119 204.278C80.5272 204.919 80.8849 205.733 80.8849 206.72C80.8849 207.682 80.5272 208.496 79.8119 209.162C79.1212 209.803 78.2332 210.124 77.1479 210.124ZM80.2929 212.27V232.916H73.9659V212.27H80.2929ZM95.238 217.524H91.834V232.916H85.507V217.524H83.213V212.27H85.507V211.678C85.507 209.137 86.2347 207.213 87.69 205.906C89.1453 204.574 91.279 203.908 94.091 203.908C94.5597 203.908 94.905 203.92 95.127 203.945V209.31C93.9183 209.236 93.0673 209.408 92.574 209.828C92.0807 210.247 91.834 210.999 91.834 212.085V212.27H95.238V217.524ZM101.393 210.124C100.283 210.124 99.3703 209.803 98.655 209.162C97.9643 208.496 97.619 207.682 97.619 206.72C97.619 205.733 97.9643 204.919 98.655 204.278C99.3703 203.612 100.283 203.279 101.393 203.279C102.478 203.279 103.366 203.612 104.057 204.278C104.772 204.919 105.13 205.733 105.13 206.72C105.13 207.682 104.772 208.496 104.057 209.162C103.366 209.803 102.478 210.124 101.393 210.124ZM104.538 212.27V232.916H98.211V212.27H104.538ZM107.865 222.593C107.865 220.447 108.297 218.572 109.16 216.969C110.048 215.365 111.269 214.132 112.823 213.269C114.402 212.405 116.202 211.974 118.225 211.974C120.815 211.974 122.973 212.652 124.7 214.009C126.451 215.365 127.598 217.277 128.141 219.744H121.407C120.84 218.165 119.742 217.376 118.114 217.376C116.955 217.376 116.03 217.832 115.339 218.745C114.648 219.633 114.303 220.915 114.303 222.593C114.303 224.27 114.648 225.565 115.339 226.478C116.03 227.366 116.955 227.81 118.114 227.81C119.742 227.81 120.84 227.02 121.407 225.442H128.141C127.598 227.859 126.451 229.758 124.7 231.14C122.949 232.521 120.79 233.212 118.225 233.212C116.202 233.212 114.402 232.78 112.823 231.917C111.269 231.053 110.048 229.82 109.16 228.217C108.297 226.613 107.865 224.739 107.865 222.593ZM134.707 210.124C133.597 210.124 132.685 209.803 131.969 209.162C131.279 208.496 130.933 207.682 130.933 206.72C130.933 205.733 131.279 204.919 131.969 204.278C132.685 203.612 133.597 203.279 134.707 203.279C135.793 203.279 136.681 203.612 137.371 204.278C138.087 204.919 138.444 205.733 138.444 206.72C138.444 207.682 138.087 208.496 137.371 209.162C136.681 209.803 135.793 210.124 134.707 210.124ZM137.852 212.27V232.916H131.525V212.27H137.852ZM141.18 222.556C141.18 220.434 141.574 218.572 142.364 216.969C143.178 215.365 144.275 214.132 145.657 213.269C147.038 212.405 148.58 211.974 150.282 211.974C151.737 211.974 153.007 212.27 154.093 212.862C155.203 213.454 156.054 214.231 156.646 215.193V212.27H162.973V232.916H156.646V229.993C156.029 230.955 155.166 231.732 154.056 232.324C152.97 232.916 151.7 233.212 150.245 233.212C148.567 233.212 147.038 232.78 145.657 231.917C144.275 231.029 143.178 229.783 142.364 228.18C141.574 226.552 141.18 224.677 141.18 222.556ZM156.646 222.593C156.646 221.014 156.202 219.768 155.314 218.856C154.45 217.943 153.39 217.487 152.132 217.487C150.874 217.487 149.801 217.943 148.913 218.856C148.049 219.744 147.618 220.977 147.618 222.556C147.618 224.134 148.049 225.392 148.913 226.33C149.801 227.242 150.874 227.699 152.132 227.699C153.39 227.699 154.45 227.242 155.314 226.33C156.202 225.417 156.646 224.171 156.646 222.593ZM173.877 205.536V232.916H167.55V205.536H173.877ZM192.63 206.942V232.916H186.303V206.942H192.63ZM209.795 212.048C212.212 212.048 214.136 212.837 215.567 214.416C217.022 215.97 217.75 218.116 217.75 220.854V232.916H211.46V221.705C211.46 220.323 211.102 219.25 210.387 218.486C209.672 217.721 208.71 217.339 207.501 217.339C206.292 217.339 205.33 217.721 204.615 218.486C203.9 219.25 203.542 220.323 203.542 221.705V232.916H197.215V212.27H203.542V215.008C204.183 214.095 205.047 213.38 206.132 212.862C207.217 212.319 208.438 212.048 209.795 212.048ZM233.654 227.551V232.916H230.435C228.141 232.916 226.352 232.361 225.07 231.251C223.787 230.116 223.146 228.278 223.146 225.738V217.524H220.63V212.27H223.146V207.238H229.473V212.27H233.617V217.524H229.473V225.812C229.473 226.428 229.621 226.872 229.917 227.144C230.213 227.415 230.706 227.551 231.397 227.551H233.654ZM256.64 222.26C256.64 222.852 256.603 223.468 256.529 224.11H242.21C242.308 225.392 242.715 226.379 243.431 227.07C244.171 227.736 245.071 228.069 246.132 228.069C247.71 228.069 248.808 227.403 249.425 226.071H256.159C255.813 227.427 255.184 228.648 254.272 229.734C253.384 230.819 252.261 231.67 250.905 232.287C249.548 232.903 248.031 233.212 246.354 233.212C244.331 233.212 242.53 232.78 240.952 231.917C239.373 231.053 238.14 229.82 237.252 228.217C236.364 226.613 235.92 224.739 235.92 222.593C235.92 220.447 236.351 218.572 237.215 216.969C238.103 215.365 239.336 214.132 240.915 213.269C242.493 212.405 244.306 211.974 246.354 211.974C248.352 211.974 250.128 212.393 251.682 213.232C253.236 214.07 254.444 215.267 255.308 216.821C256.196 218.375 256.64 220.188 256.64 222.26ZM250.165 220.595C250.165 219.509 249.795 218.646 249.055 218.005C248.315 217.363 247.39 217.043 246.28 217.043C245.219 217.043 244.319 217.351 243.579 217.968C242.863 218.584 242.419 219.46 242.247 220.595H250.165ZM266.305 205.536V232.916H259.978V205.536H266.305ZM277.217 205.536V232.916H270.89V205.536H277.217ZM284.984 210.124C283.874 210.124 282.961 209.803 282.246 209.162C281.555 208.496 281.21 207.682 281.21 206.72C281.21 205.733 281.555 204.919 282.246 204.278C282.961 203.612 283.874 203.279 284.984 203.279C286.069 203.279 286.957 203.612 287.648 204.278C288.363 204.919 288.721 205.733 288.721 206.72C288.721 207.682 288.363 208.496 287.648 209.162C286.957 209.803 286.069 210.124 284.984 210.124ZM288.129 212.27V232.916H281.802V212.27H288.129ZM300.558 211.974C302.013 211.974 303.284 212.27 304.369 212.862C305.479 213.454 306.33 214.231 306.922 215.193V212.27H313.249V232.879C313.249 234.778 312.867 236.492 312.102 238.022C311.362 239.576 310.215 240.809 308.661 241.722C307.132 242.634 305.22 243.091 302.926 243.091C299.867 243.091 297.388 242.363 295.489 240.908C293.59 239.477 292.504 237.528 292.233 235.062H298.486C298.683 235.851 299.152 236.468 299.892 236.912C300.632 237.38 301.545 237.615 302.63 237.615C303.937 237.615 304.973 237.232 305.738 236.468C306.527 235.728 306.922 234.531 306.922 232.879V229.956C306.305 230.918 305.454 231.707 304.369 232.324C303.284 232.916 302.013 233.212 300.558 233.212C298.856 233.212 297.314 232.78 295.933 231.917C294.552 231.029 293.454 229.783 292.64 228.18C291.851 226.552 291.456 224.677 291.456 222.556C291.456 220.434 291.851 218.572 292.64 216.969C293.454 215.365 294.552 214.132 295.933 213.269C297.314 212.405 298.856 211.974 300.558 211.974ZM306.922 222.593C306.922 221.014 306.478 219.768 305.59 218.856C304.727 217.943 303.666 217.487 302.408 217.487C301.15 217.487 300.077 217.943 299.189 218.856C298.326 219.744 297.894 220.977 297.894 222.556C297.894 224.134 298.326 225.392 299.189 226.33C300.077 227.242 301.15 227.699 302.408 227.699C303.666 227.699 304.727 227.242 305.59 226.33C306.478 225.417 306.922 224.171 306.922 222.593ZM337.288 222.26C337.288 222.852 337.251 223.468 337.177 224.11H322.858C322.957 225.392 323.364 226.379 324.079 227.07C324.819 227.736 325.72 228.069 326.78 228.069C328.359 228.069 329.457 227.403 330.073 226.071H336.807C336.462 227.427 335.833 228.648 334.92 229.734C334.032 230.819 332.91 231.67 331.553 232.287C330.197 232.903 328.68 233.212 327.002 233.212C324.98 233.212 323.179 232.78 321.6 231.917C320.022 231.053 318.788 229.82 317.9 228.217C317.012 226.613 316.568 224.739 316.568 222.593C316.568 220.447 317 218.572 317.863 216.969C318.751 215.365 319.985 214.132 321.563 213.269C323.142 212.405 324.955 211.974 327.002 211.974C329 211.974 330.776 212.393 332.33 213.232C333.884 214.07 335.093 215.267 335.956 216.821C336.844 218.375 337.288 220.188 337.288 222.26ZM330.813 220.595C330.813 219.509 330.443 218.646 329.703 218.005C328.963 217.363 328.038 217.043 326.928 217.043C325.868 217.043 324.967 217.351 324.227 217.968C323.512 218.584 323.068 219.46 322.895 220.595H330.813ZM353.206 212.048C355.623 212.048 357.547 212.837 358.978 214.416C360.433 215.97 361.161 218.116 361.161 220.854V232.916H354.871V221.705C354.871 220.323 354.513 219.25 353.798 218.486C353.083 217.721 352.121 217.339 350.912 217.339C349.703 217.339 348.741 217.721 348.026 218.486C347.311 219.25 346.953 220.323 346.953 221.705V232.916H340.626V212.27H346.953V215.008C347.594 214.095 348.458 213.38 349.543 212.862C350.628 212.319 351.849 212.048 353.206 212.048ZM364.3 222.593C364.3 220.447 364.731 218.572 365.595 216.969C366.483 215.365 367.704 214.132 369.258 213.269C370.836 212.405 372.637 211.974 374.66 211.974C377.25 211.974 379.408 212.652 381.135 214.009C382.886 215.365 384.033 217.277 384.576 219.744H377.842C377.274 218.165 376.177 217.376 374.549 217.376C373.389 217.376 372.464 217.832 371.774 218.745C371.083 219.633 370.738 220.915 370.738 222.593C370.738 224.27 371.083 225.565 371.774 226.478C372.464 227.366 373.389 227.81 374.549 227.81C376.177 227.81 377.274 227.02 377.842 225.442H384.576C384.033 227.859 382.886 229.758 381.135 231.14C379.383 232.521 377.225 233.212 374.66 233.212C372.637 233.212 370.836 232.78 369.258 231.917C367.704 231.053 366.483 229.82 365.595 228.217C364.731 226.613 364.3 224.739 364.3 222.593ZM407.422 222.26C407.422 222.852 407.385 223.468 407.311 224.11H392.992C393.091 225.392 393.498 226.379 394.213 227.07C394.953 227.736 395.853 228.069 396.914 228.069C398.493 228.069 399.59 227.403 400.207 226.071H406.941C406.596 227.427 405.967 228.648 405.054 229.734C404.166 230.819 403.044 231.67 401.687 232.287C400.33 232.903 398.813 233.212 397.136 233.212C395.113 233.212 393.313 232.78 391.734 231.917C390.155 231.053 388.922 229.82 388.034 228.217C387.146 226.613 386.702 224.739 386.702 222.593C386.702 220.447 387.134 218.572 387.997 216.969C388.885 215.365 390.118 214.132 391.697 213.269C393.276 212.405 395.089 211.974 397.136 211.974C399.134 211.974 400.91 212.393 402.464 213.232C404.018 214.07 405.227 215.267 406.09 216.821C406.978 218.375 407.422 220.188 407.422 222.26ZM400.947 220.595C400.947 219.509 400.577 218.646 399.837 218.005C399.097 217.363 398.172 217.043 397.062 217.043C396.001 217.043 395.101 217.351 394.361 217.968C393.646 218.584 393.202 219.46 393.029 220.595H400.947Z" fill="white"/>
</svg>
