<svg width="51" height="59" viewBox="0 0 51 59" fill="none" xmlns="http://www.w3.org/2000/svg">
<g clip-path="url(#clip0_435_701)">
<path d="M42.2417 0.189453H39.9895H31.7312H29.479H21.2207H19.183H10.9247H8.75826H0.5V8.41729V9.65681V13.0121C3.05255 14.3371 5.81961 15.7689 8.75826 17.2863V9.65681V8.41729H10.9247H19.183H21.2207V9.65681V23.7189L23.4086 24.8516L24.1594 25.2363C25.8968 24.296 27.6772 23.3343 29.5004 22.3512V9.65681V8.41729H31.7527H40.0109H42.2632V11.1528V11.281V16.9443C44.9659 15.4911 47.7115 13.9951 50.5215 12.4778V11.281V11.1528V8.41729V0.189453H42.2417Z" fill="white"/>
<path d="M21.2207 26.7966C22.186 26.2836 23.1512 25.7494 24.1379 25.2151C23.8805 25.0869 23.6446 24.9586 23.4086 24.8304C22.6793 24.4457 21.95 24.0824 21.2207 23.6978V26.7966Z" fill="white"/>
<path d="M31.7313 21.133V22.0519C30.9806 22.458 30.2298 22.864 29.4791 23.2701C27.9561 24.0822 26.4761 24.8943 25.0175 25.685L25.5752 25.9628C25.3821 25.8773 25.2105 25.7705 25.0175 25.685C23.7305 26.3689 22.4649 27.0527 21.2423 27.7366C20.5559 28.0999 19.8695 28.4846 19.2045 28.8479V27.929V9.65674H10.9248V32.3741V33.2931V38.5503V41.9697V42.8459V51.4157C13.5846 52.7834 16.3302 54.2153 19.1831 55.6899V38.5503H18.8828C18.99 38.4862 19.0758 38.4435 19.1831 38.4008V37.5245C19.848 37.1612 20.5344 36.7979 21.2208 36.4132C23.8806 34.9814 26.6477 33.4854 29.4791 31.9467C30.2298 31.5407 30.9806 31.1346 31.7313 30.7286V31.6048V38.5503V55.3052C34.4126 53.852 37.1796 52.356 39.9896 50.8387V38.529V33.3999C38.9814 32.887 37.9733 32.3528 36.9866 31.8398L39.9896 33.3999V27.1169V26.262V17.564V16.6451V9.65674H31.7313V21.133Z" fill="white"/>
<path d="M21.2207 38.5288V56.7155C22.5506 57.3994 23.8805 58.1047 25.2533 58.8099C26.6476 58.0619 28.0418 57.2926 29.479 56.5232V38.5502V32.8228C26.6261 34.3615 23.8805 35.8574 21.2207 37.2893V38.5288Z" fill="white"/>
</g>
<defs>
<clipPath id="clip0_435_701">
<rect width="50" height="58.6207" fill="white" transform="translate(0.5 0.189453)"/>
</clipPath>
</defs>
</svg>
