<svg width="178" height="217" viewBox="0 0 178 217" fill="none" xmlns="http://www.w3.org/2000/svg">
<path d="M148.537 0H140.522H111.136H103.121H73.7341H66.4828H37.0961H29.3868H0V30.3598V34.9335V47.314C9.08319 52.2031 18.9297 57.4865 29.3868 63.0853V34.9335V30.3598H37.0961H66.4828H73.7341V34.9335V86.8212L81.5197 91.0006L84.1913 92.42C90.3739 88.9503 96.7093 85.4018 103.197 81.7743V34.9335V30.3598H111.212H140.599H148.613V40.4535V40.9266V61.8236C158.231 56.4614 168.001 50.9414 178 45.3426V40.9266V40.4535V30.3598V0H148.537Z" fill="url(#paint0_linear_16_10)"/>
<path d="M73.7339 98.1765C77.1687 96.2839 80.6035 94.3125 84.1147 92.3411C83.1987 91.868 82.3591 91.3948 81.5195 90.9217C78.9243 89.5023 76.3291 88.1617 73.7339 86.7423V98.1765Z" fill="url(#paint1_linear_16_10)"/>
<path d="M111.135 77.2795V80.6703C108.464 82.1686 105.792 83.6669 103.121 85.1651C97.7012 88.1617 92.4345 91.1582 87.2441 94.0759L89.2286 95.1011C88.5417 94.7857 87.931 94.3914 87.2441 94.0759C82.6643 96.5994 78.1609 99.1228 73.8101 101.646C71.3676 102.987 68.925 104.406 66.5588 105.747V102.356V34.9335H37.0957V118.758V122.149V141.548V154.165V157.398V189.019C46.5605 194.066 56.3307 199.35 66.4825 204.791V141.548H65.4139C65.7955 141.311 66.1008 141.153 66.4825 140.996V137.763C68.8487 136.422 71.2912 135.081 73.7338 133.662C83.1986 128.379 93.0451 122.859 103.121 117.181C105.792 115.683 108.464 114.184 111.135 112.686V115.919V141.548V203.371C120.676 198.009 130.523 192.489 140.522 186.89V141.469V122.543C136.934 120.651 133.347 118.679 129.836 116.787L140.522 122.543V99.3593V96.2051V64.1104V60.7196V34.9335H111.135V77.2795Z" fill="url(#paint2_linear_16_10)"/>
<path d="M73.7339 141.469V208.576C78.4663 211.099 83.1987 213.702 88.0838 216.304C93.0452 213.544 98.0066 210.705 103.121 207.866V141.548V120.414C92.9689 126.092 83.1987 131.612 73.7339 136.895V141.469Z" fill="url(#paint3_linear_16_10)"/>
<defs>
<linearGradient id="paint0_linear_16_10" x1="194" y1="34.6088" x2="-2.47722" y2="32.2686" gradientUnits="userSpaceOnUse">
<stop offset="0.005" stop-color="#1673FF"/>
<stop offset="1" stop-color="#7002DD"/>
</linearGradient>
<linearGradient id="paint1_linear_16_10" x1="85.0478" y1="91.0241" x2="73.5882" y2="90.9598" gradientUnits="userSpaceOnUse">
<stop offset="0.005" stop-color="#1673FF"/>
<stop offset="1" stop-color="#7002DD"/>
</linearGradient>
<linearGradient id="paint2_linear_16_10" x1="149.819" y1="98.5404" x2="35.6417" y2="98.1105" gradientUnits="userSpaceOnUse">
<stop offset="0.005" stop-color="#1673FF"/>
<stop offset="1" stop-color="#7002DD"/>
</linearGradient>
<linearGradient id="paint3_linear_16_10" x1="105.762" y1="156.322" x2="73.3204" y2="156.261" gradientUnits="userSpaceOnUse">
<stop offset="0.005" stop-color="#1673FF"/>
<stop offset="1" stop-color="#7002DD"/>
</linearGradient>
</defs>
</svg>
