<svg width="335" height="257" viewBox="0 0 335 257" fill="none" xmlns="http://www.w3.org/2000/svg">
<path d="M14.0494 8.46V35.2H10.6894V12.1L4.36938 15.94L2.90938 13.54L11.1094 8.46H14.0494ZM19.8094 33.26V36H3.90938V33.26H19.8094ZM35.0938 8.02C38.0671 8.02 40.3138 9.24667 41.8338 11.7C43.3538 14.1533 44.1137 17.66 44.1137 22.22C44.1137 26.7933 43.3538 30.3133 41.8338 32.78C40.3138 35.2333 38.0671 36.46 35.0938 36.46C32.1338 36.46 29.8871 35.2333 28.3538 32.78C26.8338 30.3133 26.0738 26.7933 26.0738 22.22C26.0738 17.66 26.8338 14.1533 28.3538 11.7C29.8871 9.24667 32.1338 8.02 35.0938 8.02ZM35.0938 10.72C33.4004 10.72 32.0671 11.62 31.0938 13.42C30.1204 15.2067 29.6338 18.14 29.6338 22.22C29.6338 24.2867 29.7404 26.0533 29.9538 27.52C30.1671 28.9867 30.4938 30.18 30.9338 31.1C31.3871 32.0067 31.9538 32.6733 32.6338 33.1C33.3271 33.5267 34.1471 33.74 35.0938 33.74C36.2404 33.74 37.2204 33.3467 38.0338 32.56C38.8604 31.7733 39.4871 30.5333 39.9138 28.84C40.3538 27.1333 40.5738 24.9267 40.5738 22.22C40.5738 19.4733 40.3804 17.2533 39.9938 15.56C39.6204 13.8667 39.0271 12.64 38.2138 11.88C37.4138 11.1067 36.3738 10.72 35.0938 10.72ZM39.1538 11.7L40.0338 14.64L31.2738 32.38L30.0338 30.04L39.1538 11.7ZM59.0781 8.02C62.0515 8.02 64.2981 9.24667 65.8181 11.7C67.3381 14.1533 68.0981 17.66 68.0981 22.22C68.0981 26.7933 67.3381 30.3133 65.8181 32.78C64.2981 35.2333 62.0515 36.46 59.0781 36.46C56.1181 36.46 53.8715 35.2333 52.3381 32.78C50.8181 30.3133 50.0581 26.7933 50.0581 22.22C50.0581 17.66 50.8181 14.1533 52.3381 11.7C53.8715 9.24667 56.1181 8.02 59.0781 8.02ZM59.0781 10.72C57.3848 10.72 56.0515 11.62 55.0781 13.42C54.1048 15.2067 53.6181 18.14 53.6181 22.22C53.6181 24.2867 53.7248 26.0533 53.9381 27.52C54.1515 28.9867 54.4781 30.18 54.9181 31.1C55.3715 32.0067 55.9381 32.6733 56.6181 33.1C57.3115 33.5267 58.1315 33.74 59.0781 33.74C60.2248 33.74 61.2048 33.3467 62.0181 32.56C62.8448 31.7733 63.4715 30.5333 63.8981 28.84C64.3381 27.1333 64.5581 24.9267 64.5581 22.22C64.5581 19.4733 64.3648 17.2533 63.9781 15.56C63.6048 13.8667 63.0115 12.64 62.1981 11.88C61.3981 11.1067 60.3581 10.72 59.0781 10.72ZM63.1381 11.7L64.0181 14.64L55.2581 32.38L54.0181 30.04L63.1381 11.7ZM83.0625 8.02C86.0358 8.02 88.2825 9.24667 89.8025 11.7C91.3225 14.1533 92.0825 17.66 92.0825 22.22C92.0825 26.7933 91.3225 30.3133 89.8025 32.78C88.2825 35.2333 86.0358 36.46 83.0625 36.46C80.1025 36.46 77.8558 35.2333 76.3225 32.78C74.8025 30.3133 74.0425 26.7933 74.0425 22.22C74.0425 17.66 74.8025 14.1533 76.3225 11.7C77.8558 9.24667 80.1025 8.02 83.0625 8.02ZM83.0625 10.72C81.3692 10.72 80.0358 11.62 79.0625 13.42C78.0892 15.2067 77.6025 18.14 77.6025 22.22C77.6025 24.2867 77.7092 26.0533 77.9225 27.52C78.1358 28.9867 78.4625 30.18 78.9025 31.1C79.3558 32.0067 79.9225 32.6733 80.6025 33.1C81.2958 33.5267 82.1158 33.74 83.0625 33.74C84.2092 33.74 85.1892 33.3467 86.0025 32.56C86.8292 31.7733 87.4558 30.5333 87.8825 28.84C88.3225 27.1333 88.5425 24.9267 88.5425 22.22C88.5425 19.4733 88.3492 17.2533 87.9625 15.56C87.5892 13.8667 86.9958 12.64 86.1825 11.88C85.3825 11.1067 84.3425 10.72 83.0625 10.72ZM87.1225 11.7L88.0025 14.64L79.2425 32.38L78.0025 30.04L87.1225 11.7ZM109.987 8.46V35.2H106.627V12.1L100.307 15.94L98.8469 13.54L107.047 8.46H109.987ZM115.747 33.26V36H99.8469V33.26H115.747ZM131.031 8.02C134.005 8.02 136.251 9.24667 137.771 11.7C139.291 14.1533 140.051 17.66 140.051 22.22C140.051 26.7933 139.291 30.3133 137.771 32.78C136.251 35.2333 134.005 36.46 131.031 36.46C128.071 36.46 125.825 35.2333 124.291 32.78C122.771 30.3133 122.011 26.7933 122.011 22.22C122.011 17.66 122.771 14.1533 124.291 11.7C125.825 9.24667 128.071 8.02 131.031 8.02ZM131.031 10.72C129.338 10.72 128.005 11.62 127.031 13.42C126.058 15.2067 125.571 18.14 125.571 22.22C125.571 24.2867 125.678 26.0533 125.891 27.52C126.105 28.9867 126.431 30.18 126.871 31.1C127.325 32.0067 127.891 32.6733 128.571 33.1C129.265 33.5267 130.085 33.74 131.031 33.74C132.178 33.74 133.158 33.3467 133.971 32.56C134.798 31.7733 135.425 30.5333 135.851 28.84C136.291 27.1333 136.511 24.9267 136.511 22.22C136.511 19.4733 136.318 17.2533 135.931 15.56C135.558 13.8667 134.965 12.64 134.151 11.88C133.351 11.1067 132.311 10.72 131.031 10.72ZM135.091 11.7L135.971 14.64L127.211 32.38L125.971 30.04L135.091 11.7ZM157.956 8.46V35.2H154.596V12.1L148.276 15.94L146.816 13.54L155.016 8.46H157.956ZM163.716 33.26V36H147.816V33.26H163.716ZM179 8.02C181.973 8.02 184.22 9.24667 185.74 11.7C187.26 14.1533 188.02 17.66 188.02 22.22C188.02 26.7933 187.26 30.3133 185.74 32.78C184.22 35.2333 181.973 36.46 179 36.46C176.04 36.46 173.793 35.2333 172.26 32.78C170.74 30.3133 169.98 26.7933 169.98 22.22C169.98 17.66 170.74 14.1533 172.26 11.7C173.793 9.24667 176.04 8.02 179 8.02ZM179 10.72C177.307 10.72 175.973 11.62 175 13.42C174.027 15.2067 173.54 18.14 173.54 22.22C173.54 24.2867 173.647 26.0533 173.86 27.52C174.073 28.9867 174.4 30.18 174.84 31.1C175.293 32.0067 175.86 32.6733 176.54 33.1C177.233 33.5267 178.053 33.74 179 33.74C180.147 33.74 181.127 33.3467 181.94 32.56C182.767 31.7733 183.393 30.5333 183.82 28.84C184.26 27.1333 184.48 24.9267 184.48 22.22C184.48 19.4733 184.287 17.2533 183.9 15.56C183.527 13.8667 182.933 12.64 182.12 11.88C181.32 11.1067 180.28 10.72 179 10.72ZM183.06 11.7L183.94 14.64L175.18 32.38L173.94 30.04L183.06 11.7ZM205.924 8.46V35.2H202.564V12.1L196.244 15.94L194.784 13.54L202.984 8.46H205.924ZM211.684 33.26V36H195.784V33.26H211.684ZM226.969 8.02C229.942 8.02 232.189 9.24667 233.709 11.7C235.229 14.1533 235.989 17.66 235.989 22.22C235.989 26.7933 235.229 30.3133 233.709 32.78C232.189 35.2333 229.942 36.46 226.969 36.46C224.009 36.46 221.762 35.2333 220.229 32.78C218.709 30.3133 217.949 26.7933 217.949 22.22C217.949 17.66 218.709 14.1533 220.229 11.7C221.762 9.24667 224.009 8.02 226.969 8.02ZM226.969 10.72C225.275 10.72 223.942 11.62 222.969 13.42C221.995 15.2067 221.509 18.14 221.509 22.22C221.509 24.2867 221.615 26.0533 221.829 27.52C222.042 28.9867 222.369 30.18 222.809 31.1C223.262 32.0067 223.829 32.6733 224.509 33.1C225.202 33.5267 226.022 33.74 226.969 33.74C228.115 33.74 229.095 33.3467 229.909 32.56C230.735 31.7733 231.362 30.5333 231.789 28.84C232.229 27.1333 232.449 24.9267 232.449 22.22C232.449 19.4733 232.255 17.2533 231.869 15.56C231.495 13.8667 230.902 12.64 230.089 11.88C229.289 11.1067 228.249 10.72 226.969 10.72ZM231.029 11.7L231.909 14.64L223.149 32.38L221.909 30.04L231.029 11.7ZM253.893 8.46V35.2H250.533V12.1L244.213 15.94L242.753 13.54L250.953 8.46H253.893ZM259.653 33.26V36H243.753V33.26H259.653ZM274.938 8.02C277.911 8.02 280.158 9.24667 281.678 11.7C283.198 14.1533 283.957 17.66 283.957 22.22C283.957 26.7933 283.198 30.3133 281.678 32.78C280.158 35.2333 277.911 36.46 274.938 36.46C271.978 36.46 269.731 35.2333 268.198 32.78C266.678 30.3133 265.918 26.7933 265.918 22.22C265.918 17.66 266.678 14.1533 268.198 11.7C269.731 9.24667 271.978 8.02 274.938 8.02ZM274.938 10.72C273.244 10.72 271.911 11.62 270.938 13.42C269.964 15.2067 269.478 18.14 269.478 22.22C269.478 24.2867 269.584 26.0533 269.798 27.52C270.011 28.9867 270.338 30.18 270.778 31.1C271.231 32.0067 271.798 32.6733 272.478 33.1C273.171 33.5267 273.991 33.74 274.938 33.74C276.084 33.74 277.064 33.3467 277.878 32.56C278.704 31.7733 279.331 30.5333 279.758 28.84C280.198 27.1333 280.418 24.9267 280.418 22.22C280.418 19.4733 280.224 17.2533 279.838 15.56C279.464 13.8667 278.871 12.64 278.058 11.88C277.258 11.1067 276.218 10.72 274.938 10.72ZM278.998 11.7L279.878 14.64L271.118 32.38L269.878 30.04L278.998 11.7ZM301.862 8.46V35.2H298.502V12.1L292.182 15.94L290.722 13.54L298.922 8.46H301.862ZM307.622 33.26V36H291.722V33.26H307.622ZM322.906 8.02C325.88 8.02 328.126 9.24667 329.646 11.7C331.166 14.1533 331.926 17.66 331.926 22.22C331.926 26.7933 331.166 30.3133 329.646 32.78C328.126 35.2333 325.88 36.46 322.906 36.46C319.946 36.46 317.7 35.2333 316.166 32.78C314.646 30.3133 313.886 26.7933 313.886 22.22C313.886 17.66 314.646 14.1533 316.166 11.7C317.7 9.24667 319.946 8.02 322.906 8.02ZM322.906 10.72C321.213 10.72 319.88 11.62 318.906 13.42C317.933 15.2067 317.446 18.14 317.446 22.22C317.446 24.2867 317.553 26.0533 317.766 27.52C317.98 28.9867 318.306 30.18 318.746 31.1C319.2 32.0067 319.766 32.6733 320.446 33.1C321.14 33.5267 321.96 33.74 322.906 33.74C324.053 33.74 325.033 33.3467 325.846 32.56C326.673 31.7733 327.3 30.5333 327.726 28.84C328.166 27.1333 328.386 24.9267 328.386 22.22C328.386 19.4733 328.193 17.2533 327.806 15.56C327.433 13.8667 326.84 12.64 326.026 11.88C325.226 11.1067 324.186 10.72 322.906 10.72ZM326.966 11.7L327.846 14.64L319.086 32.38L317.846 30.04L326.966 11.7ZM14.0494 60.46V87.2H10.6894V64.1L4.36938 67.94L2.90938 65.54L11.1094 60.46H14.0494ZM19.8094 85.26V88H3.90938V85.26H19.8094ZM35.0938 60.02C38.0671 60.02 40.3138 61.2467 41.8338 63.7C43.3538 66.1533 44.1137 69.66 44.1137 74.22C44.1137 78.7933 43.3538 82.3133 41.8338 84.78C40.3138 87.2333 38.0671 88.46 35.0938 88.46C32.1338 88.46 29.8871 87.2333 28.3538 84.78C26.8338 82.3133 26.0738 78.7933 26.0738 74.22C26.0738 69.66 26.8338 66.1533 28.3538 63.7C29.8871 61.2467 32.1338 60.02 35.0938 60.02ZM35.0938 62.72C33.4004 62.72 32.0671 63.62 31.0938 65.42C30.1204 67.2067 29.6338 70.14 29.6338 74.22C29.6338 76.2867 29.7404 78.0533 29.9538 79.52C30.1671 80.9867 30.4938 82.18 30.9338 83.1C31.3871 84.0067 31.9538 84.6733 32.6338 85.1C33.3271 85.5267 34.1471 85.74 35.0938 85.74C36.2404 85.74 37.2204 85.3467 38.0338 84.56C38.8604 83.7733 39.4871 82.5333 39.9138 80.84C40.3538 79.1333 40.5738 76.9267 40.5738 74.22C40.5738 71.4733 40.3804 69.2533 39.9938 67.56C39.6204 65.8667 39.0271 64.64 38.2138 63.88C37.4138 63.1067 36.3738 62.72 35.0938 62.72ZM39.1538 63.7L40.0338 66.64L31.2738 84.38L30.0338 82.04L39.1538 63.7ZM62.0181 60.46V87.2H58.6581V64.1L52.3381 67.94L50.8781 65.54L59.0781 60.46H62.0181ZM67.7781 85.26V88H51.8781V85.26H67.7781ZM83.0625 60.02C86.0358 60.02 88.2825 61.2467 89.8025 63.7C91.3225 66.1533 92.0825 69.66 92.0825 74.22C92.0825 78.7933 91.3225 82.3133 89.8025 84.78C88.2825 87.2333 86.0358 88.46 83.0625 88.46C80.1025 88.46 77.8558 87.2333 76.3225 84.78C74.8025 82.3133 74.0425 78.7933 74.0425 74.22C74.0425 69.66 74.8025 66.1533 76.3225 63.7C77.8558 61.2467 80.1025 60.02 83.0625 60.02ZM83.0625 62.72C81.3692 62.72 80.0358 63.62 79.0625 65.42C78.0892 67.2067 77.6025 70.14 77.6025 74.22C77.6025 76.2867 77.7092 78.0533 77.9225 79.52C78.1358 80.9867 78.4625 82.18 78.9025 83.1C79.3558 84.0067 79.9225 84.6733 80.6025 85.1C81.2958 85.5267 82.1158 85.74 83.0625 85.74C84.2092 85.74 85.1892 85.3467 86.0025 84.56C86.8292 83.7733 87.4558 82.5333 87.8825 80.84C88.3225 79.1333 88.5425 76.9267 88.5425 74.22C88.5425 71.4733 88.3492 69.2533 87.9625 67.56C87.5892 65.8667 86.9958 64.64 86.1825 63.88C85.3825 63.1067 84.3425 62.72 83.0625 62.72ZM87.1225 63.7L88.0025 66.64L79.2425 84.38L78.0025 82.04L87.1225 63.7ZM109.987 60.46V87.2H106.627V64.1L100.307 67.94L98.8469 65.54L107.047 60.46H109.987ZM115.747 85.26V88H99.8469V85.26H115.747ZM131.031 60.02C134.005 60.02 136.251 61.2467 137.771 63.7C139.291 66.1533 140.051 69.66 140.051 74.22C140.051 78.7933 139.291 82.3133 137.771 84.78C136.251 87.2333 134.005 88.46 131.031 88.46C128.071 88.46 125.825 87.2333 124.291 84.78C122.771 82.3133 122.011 78.7933 122.011 74.22C122.011 69.66 122.771 66.1533 124.291 63.7C125.825 61.2467 128.071 60.02 131.031 60.02ZM131.031 62.72C129.338 62.72 128.005 63.62 127.031 65.42C126.058 67.2067 125.571 70.14 125.571 74.22C125.571 76.2867 125.678 78.0533 125.891 79.52C126.105 80.9867 126.431 82.18 126.871 83.1C127.325 84.0067 127.891 84.6733 128.571 85.1C129.265 85.5267 130.085 85.74 131.031 85.74C132.178 85.74 133.158 85.3467 133.971 84.56C134.798 83.7733 135.425 82.5333 135.851 80.84C136.291 79.1333 136.511 76.9267 136.511 74.22C136.511 71.4733 136.318 69.2533 135.931 67.56C135.558 65.8667 134.965 64.64 134.151 63.88C133.351 63.1067 132.311 62.72 131.031 62.72ZM135.091 63.7L135.971 66.64L127.211 84.38L125.971 82.04L135.091 63.7ZM157.956 60.46V87.2H154.596V64.1L148.276 67.94L146.816 65.54L155.016 60.46H157.956ZM163.716 85.26V88H147.816V85.26H163.716ZM179 60.02C181.973 60.02 184.22 61.2467 185.74 63.7C187.26 66.1533 188.02 69.66 188.02 74.22C188.02 78.7933 187.26 82.3133 185.74 84.78C184.22 87.2333 181.973 88.46 179 88.46C176.04 88.46 173.793 87.2333 172.26 84.78C170.74 82.3133 169.98 78.7933 169.98 74.22C169.98 69.66 170.74 66.1533 172.26 63.7C173.793 61.2467 176.04 60.02 179 60.02ZM179 62.72C177.307 62.72 175.973 63.62 175 65.42C174.027 67.2067 173.54 70.14 173.54 74.22C173.54 76.2867 173.647 78.0533 173.86 79.52C174.073 80.9867 174.4 82.18 174.84 83.1C175.293 84.0067 175.86 84.6733 176.54 85.1C177.233 85.5267 178.053 85.74 179 85.74C180.147 85.74 181.127 85.3467 181.94 84.56C182.767 83.7733 183.393 82.5333 183.82 80.84C184.26 79.1333 184.48 76.9267 184.48 74.22C184.48 71.4733 184.287 69.2533 183.9 67.56C183.527 65.8667 182.933 64.64 182.12 63.88C181.32 63.1067 180.28 62.72 179 62.72ZM183.06 63.7L183.94 66.64L175.18 84.38L173.94 82.04L183.06 63.7ZM205.924 60.46V87.2H202.564V64.1L196.244 67.94L194.784 65.54L202.984 60.46H205.924ZM211.684 85.26V88H195.784V85.26H211.684ZM226.969 60.02C229.942 60.02 232.189 61.2467 233.709 63.7C235.229 66.1533 235.989 69.66 235.989 74.22C235.989 78.7933 235.229 82.3133 233.709 84.78C232.189 87.2333 229.942 88.46 226.969 88.46C224.009 88.46 221.762 87.2333 220.229 84.78C218.709 82.3133 217.949 78.7933 217.949 74.22C217.949 69.66 218.709 66.1533 220.229 63.7C221.762 61.2467 224.009 60.02 226.969 60.02ZM226.969 62.72C225.275 62.72 223.942 63.62 222.969 65.42C221.995 67.2067 221.509 70.14 221.509 74.22C221.509 76.2867 221.615 78.0533 221.829 79.52C222.042 80.9867 222.369 82.18 222.809 83.1C223.262 84.0067 223.829 84.6733 224.509 85.1C225.202 85.5267 226.022 85.74 226.969 85.74C228.115 85.74 229.095 85.3467 229.909 84.56C230.735 83.7733 231.362 82.5333 231.789 80.84C232.229 79.1333 232.449 76.9267 232.449 74.22C232.449 71.4733 232.255 69.2533 231.869 67.56C231.495 65.8667 230.902 64.64 230.089 63.88C229.289 63.1067 228.249 62.72 226.969 62.72ZM231.029 63.7L231.909 66.64L223.149 84.38L221.909 82.04L231.029 63.7ZM250.953 60.02C253.926 60.02 256.173 61.2467 257.693 63.7C259.213 66.1533 259.973 69.66 259.973 74.22C259.973 78.7933 259.213 82.3133 257.693 84.78C256.173 87.2333 253.926 88.46 250.953 88.46C247.993 88.46 245.746 87.2333 244.213 84.78C242.693 82.3133 241.933 78.7933 241.933 74.22C241.933 69.66 242.693 66.1533 244.213 63.7C245.746 61.2467 247.993 60.02 250.953 60.02ZM250.953 62.72C249.26 62.72 247.926 63.62 246.953 65.42C245.98 67.2067 245.493 70.14 245.493 74.22C245.493 76.2867 245.6 78.0533 245.813 79.52C246.026 80.9867 246.353 82.18 246.793 83.1C247.246 84.0067 247.813 84.6733 248.493 85.1C249.186 85.5267 250.006 85.74 250.953 85.74C252.1 85.74 253.08 85.3467 253.893 84.56C254.72 83.7733 255.346 82.5333 255.773 80.84C256.213 79.1333 256.433 76.9267 256.433 74.22C256.433 71.4733 256.24 69.2533 255.853 67.56C255.48 65.8667 254.886 64.64 254.073 63.88C253.273 63.1067 252.233 62.72 250.953 62.72ZM255.013 63.7L255.893 66.64L247.133 84.38L245.893 82.04L255.013 63.7ZM277.878 60.46V87.2H274.518V64.1L268.198 67.94L266.738 65.54L274.938 60.46H277.878ZM283.638 85.26V88H267.738V85.26H283.638ZM301.862 60.46V87.2H298.502V64.1L292.182 67.94L290.722 65.54L298.922 60.46H301.862ZM307.622 85.26V88H291.722V85.26H307.622ZM325.846 60.46V87.2H322.486V64.1L316.166 67.94L314.706 65.54L322.906 60.46H325.846ZM331.606 85.26V88H315.706V85.26H331.606ZM11.1094 112.02C14.0827 112.02 16.3294 113.247 17.8494 115.7C19.3694 118.153 20.1294 121.66 20.1294 126.22C20.1294 130.793 19.3694 134.313 17.8494 136.78C16.3294 139.233 14.0827 140.46 11.1094 140.46C8.14938 140.46 5.90271 139.233 4.36938 136.78C2.84938 134.313 2.08938 130.793 2.08938 126.22C2.08938 121.66 2.84938 118.153 4.36938 115.7C5.90271 113.247 8.14938 112.02 11.1094 112.02ZM11.1094 114.72C9.41604 114.72 8.08271 115.62 7.10938 117.42C6.13604 119.207 5.64938 122.14 5.64938 126.22C5.64938 128.287 5.75604 130.053 5.96938 131.52C6.18271 132.987 6.50938 134.18 6.94938 135.1C7.40271 136.007 7.96938 136.673 8.64938 137.1C9.34271 137.527 10.1627 137.74 11.1094 137.74C12.256 137.74 13.236 137.347 14.0494 136.56C14.876 135.773 15.5027 134.533 15.9294 132.84C16.3694 131.133 16.5894 128.927 16.5894 126.22C16.5894 123.473 16.396 121.253 16.0094 119.56C15.636 117.867 15.0427 116.64 14.2294 115.88C13.4294 115.107 12.3894 114.72 11.1094 114.72ZM15.1694 115.7L16.0494 118.64L7.28938 136.38L6.04938 134.04L15.1694 115.7ZM38.0338 112.46V139.2H34.6738V116.1L28.3538 119.94L26.8938 117.54L35.0938 112.46H38.0338ZM43.7938 137.26V140H27.8938V137.26H43.7938ZM62.0181 112.46V139.2H58.6581V116.1L52.3381 119.94L50.8781 117.54L59.0781 112.46H62.0181ZM67.7781 137.26V140H51.8781V137.26H67.7781ZM83.0625 112.02C86.0358 112.02 88.2825 113.247 89.8025 115.7C91.3225 118.153 92.0825 121.66 92.0825 126.22C92.0825 130.793 91.3225 134.313 89.8025 136.78C88.2825 139.233 86.0358 140.46 83.0625 140.46C80.1025 140.46 77.8558 139.233 76.3225 136.78C74.8025 134.313 74.0425 130.793 74.0425 126.22C74.0425 121.66 74.8025 118.153 76.3225 115.7C77.8558 113.247 80.1025 112.02 83.0625 112.02ZM83.0625 114.72C81.3692 114.72 80.0358 115.62 79.0625 117.42C78.0892 119.207 77.6025 122.14 77.6025 126.22C77.6025 128.287 77.7092 130.053 77.9225 131.52C78.1358 132.987 78.4625 134.18 78.9025 135.1C79.3558 136.007 79.9225 136.673 80.6025 137.1C81.2958 137.527 82.1158 137.74 83.0625 137.74C84.2092 137.74 85.1892 137.347 86.0025 136.56C86.8292 135.773 87.4558 134.533 87.8825 132.84C88.3225 131.133 88.5425 128.927 88.5425 126.22C88.5425 123.473 88.3492 121.253 87.9625 119.56C87.5892 117.867 86.9958 116.64 86.1825 115.88C85.3825 115.107 84.3425 114.72 83.0625 114.72ZM87.1225 115.7L88.0025 118.64L79.2425 136.38L78.0025 134.04L87.1225 115.7ZM109.987 112.46V139.2H106.627V116.1L100.307 119.94L98.8469 117.54L107.047 112.46H109.987ZM115.747 137.26V140H99.8469V137.26H115.747ZM131.031 112.02C134.005 112.02 136.251 113.247 137.771 115.7C139.291 118.153 140.051 121.66 140.051 126.22C140.051 130.793 139.291 134.313 137.771 136.78C136.251 139.233 134.005 140.46 131.031 140.46C128.071 140.46 125.825 139.233 124.291 136.78C122.771 134.313 122.011 130.793 122.011 126.22C122.011 121.66 122.771 118.153 124.291 115.7C125.825 113.247 128.071 112.02 131.031 112.02ZM131.031 114.72C129.338 114.72 128.005 115.62 127.031 117.42C126.058 119.207 125.571 122.14 125.571 126.22C125.571 128.287 125.678 130.053 125.891 131.52C126.105 132.987 126.431 134.18 126.871 135.1C127.325 136.007 127.891 136.673 128.571 137.1C129.265 137.527 130.085 137.74 131.031 137.74C132.178 137.74 133.158 137.347 133.971 136.56C134.798 135.773 135.425 134.533 135.851 132.84C136.291 131.133 136.511 128.927 136.511 126.22C136.511 123.473 136.318 121.253 135.931 119.56C135.558 117.867 134.965 116.64 134.151 115.88C133.351 115.107 132.311 114.72 131.031 114.72ZM135.091 115.7L135.971 118.64L127.211 136.38L125.971 134.04L135.091 115.7ZM157.956 112.46V139.2H154.596V116.1L148.276 119.94L146.816 117.54L155.016 112.46H157.956ZM163.716 137.26V140H147.816V137.26H163.716ZM181.94 112.46V139.2H178.58V116.1L172.26 119.94L170.8 117.54L179 112.46H181.94ZM187.7 137.26V140H171.8V137.26H187.7ZM205.924 112.46V139.2H202.564V116.1L196.244 119.94L194.784 117.54L202.984 112.46H205.924ZM211.684 137.26V140H195.784V137.26H211.684ZM229.909 112.46V139.2H226.549V116.1L220.229 119.94L218.769 117.54L226.969 112.46H229.909ZM235.669 137.26V140H219.769V137.26H235.669ZM250.953 112.02C253.926 112.02 256.173 113.247 257.693 115.7C259.213 118.153 259.973 121.66 259.973 126.22C259.973 130.793 259.213 134.313 257.693 136.78C256.173 139.233 253.926 140.46 250.953 140.46C247.993 140.46 245.746 139.233 244.213 136.78C242.693 134.313 241.933 130.793 241.933 126.22C241.933 121.66 242.693 118.153 244.213 115.7C245.746 113.247 247.993 112.02 250.953 112.02ZM250.953 114.72C249.26 114.72 247.926 115.62 246.953 117.42C245.98 119.207 245.493 122.14 245.493 126.22C245.493 128.287 245.6 130.053 245.813 131.52C246.026 132.987 246.353 134.18 246.793 135.1C247.246 136.007 247.813 136.673 248.493 137.1C249.186 137.527 250.006 137.74 250.953 137.74C252.1 137.74 253.08 137.347 253.893 136.56C254.72 135.773 255.346 134.533 255.773 132.84C256.213 131.133 256.433 128.927 256.433 126.22C256.433 123.473 256.24 121.253 255.853 119.56C255.48 117.867 254.886 116.64 254.073 115.88C253.273 115.107 252.233 114.72 250.953 114.72ZM255.013 115.7L255.893 118.64L247.133 136.38L245.893 134.04L255.013 115.7ZM277.878 112.46V139.2H274.518V116.1L268.198 119.94L266.738 117.54L274.938 112.46H277.878ZM283.638 137.26V140H267.738V137.26H283.638ZM301.862 112.46V139.2H298.502V116.1L292.182 119.94L290.722 117.54L298.922 112.46H301.862ZM307.622 137.26V140H291.722V137.26H307.622ZM322.906 112.02C325.88 112.02 328.126 113.247 329.646 115.7C331.166 118.153 331.926 121.66 331.926 126.22C331.926 130.793 331.166 134.313 329.646 136.78C328.126 139.233 325.88 140.46 322.906 140.46C319.946 140.46 317.7 139.233 316.166 136.78C314.646 134.313 313.886 130.793 313.886 126.22C313.886 121.66 314.646 118.153 316.166 115.7C317.7 113.247 319.946 112.02 322.906 112.02ZM322.906 114.72C321.213 114.72 319.88 115.62 318.906 117.42C317.933 119.207 317.446 122.14 317.446 126.22C317.446 128.287 317.553 130.053 317.766 131.52C317.98 132.987 318.306 134.18 318.746 135.1C319.2 136.007 319.766 136.673 320.446 137.1C321.14 137.527 321.96 137.74 322.906 137.74C324.053 137.74 325.033 137.347 325.846 136.56C326.673 135.773 327.3 134.533 327.726 132.84C328.166 131.133 328.386 128.927 328.386 126.22C328.386 123.473 328.193 121.253 327.806 119.56C327.433 117.867 326.84 116.64 326.026 115.88C325.226 115.107 324.186 114.72 322.906 114.72ZM326.966 115.7L327.846 118.64L319.086 136.38L317.846 134.04L326.966 115.7ZM14.0494 164.46V191.2H10.6894V168.1L4.36938 171.94L2.90938 169.54L11.1094 164.46H14.0494ZM19.8094 189.26V192H3.90938V189.26H19.8094ZM35.0938 164.02C38.0671 164.02 40.3138 165.247 41.8338 167.7C43.3538 170.153 44.1137 173.66 44.1137 178.22C44.1137 182.793 43.3538 186.313 41.8338 188.78C40.3138 191.233 38.0671 192.46 35.0938 192.46C32.1338 192.46 29.8871 191.233 28.3538 188.78C26.8338 186.313 26.0738 182.793 26.0738 178.22C26.0738 173.66 26.8338 170.153 28.3538 167.7C29.8871 165.247 32.1338 164.02 35.0938 164.02ZM35.0938 166.72C33.4004 166.72 32.0671 167.62 31.0938 169.42C30.1204 171.207 29.6338 174.14 29.6338 178.22C29.6338 180.287 29.7404 182.053 29.9538 183.52C30.1671 184.987 30.4938 186.18 30.9338 187.1C31.3871 188.007 31.9538 188.673 32.6338 189.1C33.3271 189.527 34.1471 189.74 35.0938 189.74C36.2404 189.74 37.2204 189.347 38.0338 188.56C38.8604 187.773 39.4871 186.533 39.9138 184.84C40.3538 183.133 40.5738 180.927 40.5738 178.22C40.5738 175.473 40.3804 173.253 39.9938 171.56C39.6204 169.867 39.0271 168.64 38.2138 167.88C37.4138 167.107 36.3738 166.72 35.0938 166.72ZM39.1538 167.7L40.0338 170.64L31.2738 188.38L30.0338 186.04L39.1538 167.7ZM59.0781 164.02C62.0515 164.02 64.2981 165.247 65.8181 167.7C67.3381 170.153 68.0981 173.66 68.0981 178.22C68.0981 182.793 67.3381 186.313 65.8181 188.78C64.2981 191.233 62.0515 192.46 59.0781 192.46C56.1181 192.46 53.8715 191.233 52.3381 188.78C50.8181 186.313 50.0581 182.793 50.0581 178.22C50.0581 173.66 50.8181 170.153 52.3381 167.7C53.8715 165.247 56.1181 164.02 59.0781 164.02ZM59.0781 166.72C57.3848 166.72 56.0515 167.62 55.0781 169.42C54.1048 171.207 53.6181 174.14 53.6181 178.22C53.6181 180.287 53.7248 182.053 53.9381 183.52C54.1515 184.987 54.4781 186.18 54.9181 187.1C55.3715 188.007 55.9381 188.673 56.6181 189.1C57.3115 189.527 58.1315 189.74 59.0781 189.74C60.2248 189.74 61.2048 189.347 62.0181 188.56C62.8448 187.773 63.4715 186.533 63.8981 184.84C64.3381 183.133 64.5581 180.927 64.5581 178.22C64.5581 175.473 64.3648 173.253 63.9781 171.56C63.6048 169.867 63.0115 168.64 62.1981 167.88C61.3981 167.107 60.3581 166.72 59.0781 166.72ZM63.1381 167.7L64.0181 170.64L55.2581 188.38L54.0181 186.04L63.1381 167.7ZM86.0025 164.46V191.2H82.6425V168.1L76.3225 171.94L74.8625 169.54L83.0625 164.46H86.0025ZM91.7625 189.26V192H75.8625V189.26H91.7625ZM107.047 164.02C110.02 164.02 112.267 165.247 113.787 167.7C115.307 170.153 116.067 173.66 116.067 178.22C116.067 182.793 115.307 186.313 113.787 188.78C112.267 191.233 110.02 192.46 107.047 192.46C104.087 192.46 101.84 191.233 100.307 188.78C98.7869 186.313 98.0269 182.793 98.0269 178.22C98.0269 173.66 98.7869 170.153 100.307 167.7C101.84 165.247 104.087 164.02 107.047 164.02ZM107.047 166.72C105.354 166.72 104.02 167.62 103.047 169.42C102.074 171.207 101.587 174.14 101.587 178.22C101.587 180.287 101.694 182.053 101.907 183.52C102.12 184.987 102.447 186.18 102.887 187.1C103.34 188.007 103.907 188.673 104.587 189.1C105.28 189.527 106.1 189.74 107.047 189.74C108.194 189.74 109.174 189.347 109.987 188.56C110.814 187.773 111.44 186.533 111.867 184.84C112.307 183.133 112.527 180.927 112.527 178.22C112.527 175.473 112.334 173.253 111.947 171.56C111.574 169.867 110.98 168.64 110.167 167.88C109.367 167.107 108.327 166.72 107.047 166.72ZM111.107 167.7L111.987 170.64L103.227 188.38L101.987 186.04L111.107 167.7ZM133.971 164.46V191.2H130.611V168.1L124.291 171.94L122.831 169.54L131.031 164.46H133.971ZM139.731 189.26V192H123.831V189.26H139.731ZM157.956 164.46V191.2H154.596V168.1L148.276 171.94L146.816 169.54L155.016 164.46H157.956ZM163.716 189.26V192H147.816V189.26H163.716ZM179 164.02C181.973 164.02 184.22 165.247 185.74 167.7C187.26 170.153 188.02 173.66 188.02 178.22C188.02 182.793 187.26 186.313 185.74 188.78C184.22 191.233 181.973 192.46 179 192.46C176.04 192.46 173.793 191.233 172.26 188.78C170.74 186.313 169.98 182.793 169.98 178.22C169.98 173.66 170.74 170.153 172.26 167.7C173.793 165.247 176.04 164.02 179 164.02ZM179 166.72C177.307 166.72 175.973 167.62 175 169.42C174.027 171.207 173.54 174.14 173.54 178.22C173.54 180.287 173.647 182.053 173.86 183.52C174.073 184.987 174.4 186.18 174.84 187.1C175.293 188.007 175.86 188.673 176.54 189.1C177.233 189.527 178.053 189.74 179 189.74C180.147 189.74 181.127 189.347 181.94 188.56C182.767 187.773 183.393 186.533 183.82 184.84C184.26 183.133 184.48 180.927 184.48 178.22C184.48 175.473 184.287 173.253 183.9 171.56C183.527 169.867 182.933 168.64 182.12 167.88C181.32 167.107 180.28 166.72 179 166.72ZM183.06 167.7L183.94 170.64L175.18 188.38L173.94 186.04L183.06 167.7ZM205.924 164.46V191.2H202.564V168.1L196.244 171.94L194.784 169.54L202.984 164.46H205.924ZM211.684 189.26V192H195.784V189.26H211.684ZM229.909 164.46V191.2H226.549V168.1L220.229 171.94L218.769 169.54L226.969 164.46H229.909ZM235.669 189.26V192H219.769V189.26H235.669ZM253.893 164.46V191.2H250.533V168.1L244.213 171.94L242.753 169.54L250.953 164.46H253.893ZM259.653 189.26V192H243.753V189.26H259.653ZM274.938 164.02C277.911 164.02 280.158 165.247 281.678 167.7C283.198 170.153 283.957 173.66 283.957 178.22C283.957 182.793 283.198 186.313 281.678 188.78C280.158 191.233 277.911 192.46 274.938 192.46C271.978 192.46 269.731 191.233 268.198 188.78C266.678 186.313 265.918 182.793 265.918 178.22C265.918 173.66 266.678 170.153 268.198 167.7C269.731 165.247 271.978 164.02 274.938 164.02ZM274.938 166.72C273.244 166.72 271.911 167.62 270.938 169.42C269.964 171.207 269.478 174.14 269.478 178.22C269.478 180.287 269.584 182.053 269.798 183.52C270.011 184.987 270.338 186.18 270.778 187.1C271.231 188.007 271.798 188.673 272.478 189.1C273.171 189.527 273.991 189.74 274.938 189.74C276.084 189.74 277.064 189.347 277.878 188.56C278.704 187.773 279.331 186.533 279.758 184.84C280.198 183.133 280.418 180.927 280.418 178.22C280.418 175.473 280.224 173.253 279.838 171.56C279.464 169.867 278.871 168.64 278.058 167.88C277.258 167.107 276.218 166.72 274.938 166.72ZM278.998 167.7L279.878 170.64L271.118 188.38L269.878 186.04L278.998 167.7ZM301.862 164.46V191.2H298.502V168.1L292.182 171.94L290.722 169.54L298.922 164.46H301.862ZM307.622 189.26V192H291.722V189.26H307.622ZM325.846 164.46V191.2H322.486V168.1L316.166 171.94L314.706 169.54L322.906 164.46H325.846ZM331.606 189.26V192H315.706V189.26H331.606ZM11.1094 216.02C14.0827 216.02 16.3294 217.247 17.8494 219.7C19.3694 222.153 20.1294 225.66 20.1294 230.22C20.1294 234.793 19.3694 238.313 17.8494 240.78C16.3294 243.233 14.0827 244.46 11.1094 244.46C8.14938 244.46 5.90271 243.233 4.36938 240.78C2.84938 238.313 2.08938 234.793 2.08938 230.22C2.08938 225.66 2.84938 222.153 4.36938 219.7C5.90271 217.247 8.14938 216.02 11.1094 216.02ZM11.1094 218.72C9.41604 218.72 8.08271 219.62 7.10938 221.42C6.13604 223.207 5.64938 226.14 5.64938 230.22C5.64938 232.287 5.75604 234.053 5.96938 235.52C6.18271 236.987 6.50938 238.18 6.94938 239.1C7.40271 240.007 7.96938 240.673 8.64938 241.1C9.34271 241.527 10.1627 241.74 11.1094 241.74C12.256 241.74 13.236 241.347 14.0494 240.56C14.876 239.773 15.5027 238.533 15.9294 236.84C16.3694 235.133 16.5894 232.927 16.5894 230.22C16.5894 227.473 16.396 225.253 16.0094 223.56C15.636 221.867 15.0427 220.64 14.2294 219.88C13.4294 219.107 12.3894 218.72 11.1094 218.72ZM15.1694 219.7L16.0494 222.64L7.28938 240.38L6.04938 238.04L15.1694 219.7ZM38.0338 216.46V243.2H34.6738V220.1L28.3538 223.94L26.8938 221.54L35.0938 216.46H38.0338ZM43.7938 241.26V244H27.8938V241.26H43.7938ZM62.0181 216.46V243.2H58.6581V220.1L52.3381 223.94L50.8781 221.54L59.0781 216.46H62.0181ZM67.7781 241.26V244H51.8781V241.26H67.7781ZM86.0025 216.46V243.2H82.6425V220.1L76.3225 223.94L74.8625 221.54L83.0625 216.46H86.0025ZM91.7625 241.26V244H75.8625V241.26H91.7625ZM109.987 216.46V243.2H106.627V220.1L100.307 223.94L98.8469 221.54L107.047 216.46H109.987ZM115.747 241.26V244H99.8469V241.26H115.747ZM133.971 216.46V243.2H130.611V220.1L124.291 223.94L122.831 221.54L131.031 216.46H133.971ZM139.731 241.26V244H123.831V241.26H139.731ZM157.956 216.46V243.2H154.596V220.1L148.276 223.94L146.816 221.54L155.016 216.46H157.956ZM163.716 241.26V244H147.816V241.26H163.716ZM181.94 216.46V243.2H178.58V220.1L172.26 223.94L170.8 221.54L179 216.46H181.94ZM187.7 241.26V244H171.8V241.26H187.7ZM205.924 216.46V243.2H202.564V220.1L196.244 223.94L194.784 221.54L202.984 216.46H205.924ZM211.684 241.26V244H195.784V241.26H211.684ZM226.969 216.02C229.942 216.02 232.189 217.247 233.709 219.7C235.229 222.153 235.989 225.66 235.989 230.22C235.989 234.793 235.229 238.313 233.709 240.78C232.189 243.233 229.942 244.46 226.969 244.46C224.009 244.46 221.762 243.233 220.229 240.78C218.709 238.313 217.949 234.793 217.949 230.22C217.949 225.66 218.709 222.153 220.229 219.7C221.762 217.247 224.009 216.02 226.969 216.02ZM226.969 218.72C225.275 218.72 223.942 219.62 222.969 221.42C221.995 223.207 221.509 226.14 221.509 230.22C221.509 232.287 221.615 234.053 221.829 235.52C222.042 236.987 222.369 238.18 222.809 239.1C223.262 240.007 223.829 240.673 224.509 241.1C225.202 241.527 226.022 241.74 226.969 241.74C228.115 241.74 229.095 241.347 229.909 240.56C230.735 239.773 231.362 238.533 231.789 236.84C232.229 235.133 232.449 232.927 232.449 230.22C232.449 227.473 232.255 225.253 231.869 223.56C231.495 221.867 230.902 220.64 230.089 219.88C229.289 219.107 228.249 218.72 226.969 218.72ZM231.029 219.7L231.909 222.64L223.149 240.38L221.909 238.04L231.029 219.7ZM253.893 216.46V243.2H250.533V220.1L244.213 223.94L242.753 221.54L250.953 216.46H253.893ZM259.653 241.26V244H243.753V241.26H259.653ZM277.878 216.46V243.2H274.518V220.1L268.198 223.94L266.738 221.54L274.938 216.46H277.878ZM283.638 241.26V244H267.738V241.26H283.638ZM301.862 216.46V243.2H298.502V220.1L292.182 223.94L290.722 221.54L298.922 216.46H301.862ZM307.622 241.26V244H291.722V241.26H307.622ZM325.846 216.46V243.2H322.486V220.1L316.166 223.94L314.706 221.54L322.906 216.46H325.846ZM331.606 241.26V244H315.706V241.26H331.606Z" fill="#9747FF"/>
</svg>
