<svg width="330" height="237" viewBox="0 0 330 237" fill="none" xmlns="http://www.w3.org/2000/svg">
<path d="M12.0494 0.459998V27.2H8.68938V4.1L2.36938 7.94L0.909375 5.54L9.10938 0.459998H12.0494ZM17.8094 25.26V28H1.90938V25.26H17.8094ZM33.0938 0.019999C36.0671 0.019999 38.3138 1.24667 39.8338 3.7C41.3538 6.15333 42.1137 9.66 42.1137 14.22C42.1137 18.7933 41.3538 22.3133 39.8338 24.78C38.3138 27.2333 36.0671 28.46 33.0938 28.46C30.1338 28.46 27.8871 27.2333 26.3538 24.78C24.8338 22.3133 24.0738 18.7933 24.0738 14.22C24.0738 9.66 24.8338 6.15333 26.3538 3.7C27.8871 1.24667 30.1338 0.019999 33.0938 0.019999ZM33.0938 2.72C31.4004 2.72 30.0671 3.62 29.0938 5.42C28.1204 7.20667 27.6338 10.14 27.6338 14.22C27.6338 16.2867 27.7404 18.0533 27.9538 19.52C28.1671 20.9867 28.4938 22.18 28.9338 23.1C29.3871 24.0067 29.9538 24.6733 30.6338 25.1C31.3271 25.5267 32.1471 25.74 33.0938 25.74C34.2404 25.74 35.2204 25.3467 36.0338 24.56C36.8604 23.7733 37.4871 22.5333 37.9138 20.84C38.3538 19.1333 38.5738 16.9267 38.5738 14.22C38.5738 11.4733 38.3804 9.25333 37.9938 7.56C37.6204 5.86667 37.0271 4.64 36.2138 3.88C35.4138 3.10667 34.3738 2.72 33.0938 2.72ZM37.1538 3.7L38.0338 6.64L29.2738 24.38L28.0338 22.04L37.1538 3.7ZM57.0781 0.019999C60.0515 0.019999 62.2981 1.24667 63.8181 3.7C65.3381 6.15333 66.0981 9.66 66.0981 14.22C66.0981 18.7933 65.3381 22.3133 63.8181 24.78C62.2981 27.2333 60.0515 28.46 57.0781 28.46C54.1181 28.46 51.8715 27.2333 50.3381 24.78C48.8181 22.3133 48.0581 18.7933 48.0581 14.22C48.0581 9.66 48.8181 6.15333 50.3381 3.7C51.8715 1.24667 54.1181 0.019999 57.0781 0.019999ZM57.0781 2.72C55.3848 2.72 54.0515 3.62 53.0781 5.42C52.1048 7.20667 51.6181 10.14 51.6181 14.22C51.6181 16.2867 51.7248 18.0533 51.9381 19.52C52.1515 20.9867 52.4781 22.18 52.9181 23.1C53.3715 24.0067 53.9381 24.6733 54.6181 25.1C55.3115 25.5267 56.1315 25.74 57.0781 25.74C58.2248 25.74 59.2048 25.3467 60.0181 24.56C60.8448 23.7733 61.4715 22.5333 61.8981 20.84C62.3381 19.1333 62.5581 16.9267 62.5581 14.22C62.5581 11.4733 62.3648 9.25333 61.9781 7.56C61.6048 5.86667 61.0115 4.64 60.1981 3.88C59.3981 3.10667 58.3581 2.72 57.0781 2.72ZM61.1381 3.7L62.0181 6.64L53.2581 24.38L52.0181 22.04L61.1381 3.7ZM81.0625 0.019999C84.0358 0.019999 86.2825 1.24667 87.8025 3.7C89.3225 6.15333 90.0825 9.66 90.0825 14.22C90.0825 18.7933 89.3225 22.3133 87.8025 24.78C86.2825 27.2333 84.0358 28.46 81.0625 28.46C78.1025 28.46 75.8558 27.2333 74.3225 24.78C72.8025 22.3133 72.0425 18.7933 72.0425 14.22C72.0425 9.66 72.8025 6.15333 74.3225 3.7C75.8558 1.24667 78.1025 0.019999 81.0625 0.019999ZM81.0625 2.72C79.3692 2.72 78.0358 3.62 77.0625 5.42C76.0892 7.20667 75.6025 10.14 75.6025 14.22C75.6025 16.2867 75.7092 18.0533 75.9225 19.52C76.1358 20.9867 76.4625 22.18 76.9025 23.1C77.3558 24.0067 77.9225 24.6733 78.6025 25.1C79.2958 25.5267 80.1158 25.74 81.0625 25.74C82.2092 25.74 83.1892 25.3467 84.0025 24.56C84.8292 23.7733 85.4558 22.5333 85.8825 20.84C86.3225 19.1333 86.5425 16.9267 86.5425 14.22C86.5425 11.4733 86.3492 9.25333 85.9625 7.56C85.5892 5.86667 84.9958 4.64 84.1825 3.88C83.3825 3.10667 82.3425 2.72 81.0625 2.72ZM85.1225 3.7L86.0025 6.64L77.2425 24.38L76.0025 22.04L85.1225 3.7ZM107.987 0.459998V27.2H104.627V4.1L98.3069 7.94L96.8469 5.54L105.047 0.459998H107.987ZM113.747 25.26V28H97.8469V25.26H113.747ZM129.031 0.019999C132.005 0.019999 134.251 1.24667 135.771 3.7C137.291 6.15333 138.051 9.66 138.051 14.22C138.051 18.7933 137.291 22.3133 135.771 24.78C134.251 27.2333 132.005 28.46 129.031 28.46C126.071 28.46 123.825 27.2333 122.291 24.78C120.771 22.3133 120.011 18.7933 120.011 14.22C120.011 9.66 120.771 6.15333 122.291 3.7C123.825 1.24667 126.071 0.019999 129.031 0.019999ZM129.031 2.72C127.338 2.72 126.005 3.62 125.031 5.42C124.058 7.20667 123.571 10.14 123.571 14.22C123.571 16.2867 123.678 18.0533 123.891 19.52C124.105 20.9867 124.431 22.18 124.871 23.1C125.325 24.0067 125.891 24.6733 126.571 25.1C127.265 25.5267 128.085 25.74 129.031 25.74C130.178 25.74 131.158 25.3467 131.971 24.56C132.798 23.7733 133.425 22.5333 133.851 20.84C134.291 19.1333 134.511 16.9267 134.511 14.22C134.511 11.4733 134.318 9.25333 133.931 7.56C133.558 5.86667 132.965 4.64 132.151 3.88C131.351 3.10667 130.311 2.72 129.031 2.72ZM133.091 3.7L133.971 6.64L125.211 24.38L123.971 22.04L133.091 3.7ZM155.956 0.459998V27.2H152.596V4.1L146.276 7.94L144.816 5.54L153.016 0.459998H155.956ZM161.716 25.26V28H145.816V25.26H161.716ZM177 0.019999C179.973 0.019999 182.22 1.24667 183.74 3.7C185.26 6.15333 186.02 9.66 186.02 14.22C186.02 18.7933 185.26 22.3133 183.74 24.78C182.22 27.2333 179.973 28.46 177 28.46C174.04 28.46 171.793 27.2333 170.26 24.78C168.74 22.3133 167.98 18.7933 167.98 14.22C167.98 9.66 168.74 6.15333 170.26 3.7C171.793 1.24667 174.04 0.019999 177 0.019999ZM177 2.72C175.307 2.72 173.973 3.62 173 5.42C172.027 7.20667 171.54 10.14 171.54 14.22C171.54 16.2867 171.647 18.0533 171.86 19.52C172.073 20.9867 172.4 22.18 172.84 23.1C173.293 24.0067 173.86 24.6733 174.54 25.1C175.233 25.5267 176.053 25.74 177 25.74C178.147 25.74 179.127 25.3467 179.94 24.56C180.767 23.7733 181.393 22.5333 181.82 20.84C182.26 19.1333 182.48 16.9267 182.48 14.22C182.48 11.4733 182.287 9.25333 181.9 7.56C181.527 5.86667 180.933 4.64 180.12 3.88C179.32 3.10667 178.28 2.72 177 2.72ZM181.06 3.7L181.94 6.64L173.18 24.38L171.94 22.04L181.06 3.7ZM203.924 0.459998V27.2H200.564V4.1L194.244 7.94L192.784 5.54L200.984 0.459998H203.924ZM209.684 25.26V28H193.784V25.26H209.684ZM224.969 0.019999C227.942 0.019999 230.189 1.24667 231.709 3.7C233.229 6.15333 233.989 9.66 233.989 14.22C233.989 18.7933 233.229 22.3133 231.709 24.78C230.189 27.2333 227.942 28.46 224.969 28.46C222.009 28.46 219.762 27.2333 218.229 24.78C216.709 22.3133 215.949 18.7933 215.949 14.22C215.949 9.66 216.709 6.15333 218.229 3.7C219.762 1.24667 222.009 0.019999 224.969 0.019999ZM224.969 2.72C223.275 2.72 221.942 3.62 220.969 5.42C219.995 7.20667 219.509 10.14 219.509 14.22C219.509 16.2867 219.615 18.0533 219.829 19.52C220.042 20.9867 220.369 22.18 220.809 23.1C221.262 24.0067 221.829 24.6733 222.509 25.1C223.202 25.5267 224.022 25.74 224.969 25.74C226.115 25.74 227.095 25.3467 227.909 24.56C228.735 23.7733 229.362 22.5333 229.789 20.84C230.229 19.1333 230.449 16.9267 230.449 14.22C230.449 11.4733 230.255 9.25333 229.869 7.56C229.495 5.86667 228.902 4.64 228.089 3.88C227.289 3.10667 226.249 2.72 224.969 2.72ZM229.029 3.7L229.909 6.64L221.149 24.38L219.909 22.04L229.029 3.7ZM251.893 0.459998V27.2H248.533V4.1L242.213 7.94L240.753 5.54L248.953 0.459998H251.893ZM257.653 25.26V28H241.753V25.26H257.653ZM272.938 0.019999C275.911 0.019999 278.158 1.24667 279.678 3.7C281.198 6.15333 281.957 9.66 281.957 14.22C281.957 18.7933 281.198 22.3133 279.678 24.78C278.158 27.2333 275.911 28.46 272.938 28.46C269.978 28.46 267.731 27.2333 266.198 24.78C264.678 22.3133 263.918 18.7933 263.918 14.22C263.918 9.66 264.678 6.15333 266.198 3.7C267.731 1.24667 269.978 0.019999 272.938 0.019999ZM272.938 2.72C271.244 2.72 269.911 3.62 268.938 5.42C267.964 7.20667 267.478 10.14 267.478 14.22C267.478 16.2867 267.584 18.0533 267.798 19.52C268.011 20.9867 268.338 22.18 268.778 23.1C269.231 24.0067 269.798 24.6733 270.478 25.1C271.171 25.5267 271.991 25.74 272.938 25.74C274.084 25.74 275.064 25.3467 275.878 24.56C276.704 23.7733 277.331 22.5333 277.758 20.84C278.198 19.1333 278.418 16.9267 278.418 14.22C278.418 11.4733 278.224 9.25333 277.838 7.56C277.464 5.86667 276.871 4.64 276.058 3.88C275.258 3.10667 274.218 2.72 272.938 2.72ZM276.998 3.7L277.878 6.64L269.118 24.38L267.878 22.04L276.998 3.7ZM299.862 0.459998V27.2H296.502V4.1L290.182 7.94L288.722 5.54L296.922 0.459998H299.862ZM305.622 25.26V28H289.722V25.26H305.622ZM320.906 0.019999C323.88 0.019999 326.126 1.24667 327.646 3.7C329.166 6.15333 329.926 9.66 329.926 14.22C329.926 18.7933 329.166 22.3133 327.646 24.78C326.126 27.2333 323.88 28.46 320.906 28.46C317.946 28.46 315.7 27.2333 314.166 24.78C312.646 22.3133 311.886 18.7933 311.886 14.22C311.886 9.66 312.646 6.15333 314.166 3.7C315.7 1.24667 317.946 0.019999 320.906 0.019999ZM320.906 2.72C319.213 2.72 317.88 3.62 316.906 5.42C315.933 7.20667 315.446 10.14 315.446 14.22C315.446 16.2867 315.553 18.0533 315.766 19.52C315.98 20.9867 316.306 22.18 316.746 23.1C317.2 24.0067 317.766 24.6733 318.446 25.1C319.14 25.5267 319.96 25.74 320.906 25.74C322.053 25.74 323.033 25.3467 323.846 24.56C324.673 23.7733 325.3 22.5333 325.726 20.84C326.166 19.1333 326.386 16.9267 326.386 14.22C326.386 11.4733 326.193 9.25333 325.806 7.56C325.433 5.86667 324.84 4.64 324.026 3.88C323.226 3.10667 322.186 2.72 320.906 2.72ZM324.966 3.7L325.846 6.64L317.086 24.38L315.846 22.04L324.966 3.7ZM12.0494 52.46V79.2H8.68938V56.1L2.36938 59.94L0.909375 57.54L9.10938 52.46H12.0494ZM17.8094 77.26V80H1.90938V77.26H17.8094ZM33.0938 52.02C36.0671 52.02 38.3138 53.2467 39.8338 55.7C41.3538 58.1533 42.1137 61.66 42.1137 66.22C42.1137 70.7933 41.3538 74.3133 39.8338 76.78C38.3138 79.2333 36.0671 80.46 33.0938 80.46C30.1338 80.46 27.8871 79.2333 26.3538 76.78C24.8338 74.3133 24.0738 70.7933 24.0738 66.22C24.0738 61.66 24.8338 58.1533 26.3538 55.7C27.8871 53.2467 30.1338 52.02 33.0938 52.02ZM33.0938 54.72C31.4004 54.72 30.0671 55.62 29.0938 57.42C28.1204 59.2067 27.6338 62.14 27.6338 66.22C27.6338 68.2867 27.7404 70.0533 27.9538 71.52C28.1671 72.9867 28.4938 74.18 28.9338 75.1C29.3871 76.0067 29.9538 76.6733 30.6338 77.1C31.3271 77.5267 32.1471 77.74 33.0938 77.74C34.2404 77.74 35.2204 77.3467 36.0338 76.56C36.8604 75.7733 37.4871 74.5333 37.9138 72.84C38.3538 71.1333 38.5738 68.9267 38.5738 66.22C38.5738 63.4733 38.3804 61.2533 37.9938 59.56C37.6204 57.8667 37.0271 56.64 36.2138 55.88C35.4138 55.1067 34.3738 54.72 33.0938 54.72ZM37.1538 55.7L38.0338 58.64L29.2738 76.38L28.0338 74.04L37.1538 55.7ZM60.0181 52.46V79.2H56.6581V56.1L50.3381 59.94L48.8781 57.54L57.0781 52.46H60.0181ZM65.7781 77.26V80H49.8781V77.26H65.7781ZM81.0625 52.02C84.0358 52.02 86.2825 53.2467 87.8025 55.7C89.3225 58.1533 90.0825 61.66 90.0825 66.22C90.0825 70.7933 89.3225 74.3133 87.8025 76.78C86.2825 79.2333 84.0358 80.46 81.0625 80.46C78.1025 80.46 75.8558 79.2333 74.3225 76.78C72.8025 74.3133 72.0425 70.7933 72.0425 66.22C72.0425 61.66 72.8025 58.1533 74.3225 55.7C75.8558 53.2467 78.1025 52.02 81.0625 52.02ZM81.0625 54.72C79.3692 54.72 78.0358 55.62 77.0625 57.42C76.0892 59.2067 75.6025 62.14 75.6025 66.22C75.6025 68.2867 75.7092 70.0533 75.9225 71.52C76.1358 72.9867 76.4625 74.18 76.9025 75.1C77.3558 76.0067 77.9225 76.6733 78.6025 77.1C79.2958 77.5267 80.1158 77.74 81.0625 77.74C82.2092 77.74 83.1892 77.3467 84.0025 76.56C84.8292 75.7733 85.4558 74.5333 85.8825 72.84C86.3225 71.1333 86.5425 68.9267 86.5425 66.22C86.5425 63.4733 86.3492 61.2533 85.9625 59.56C85.5892 57.8667 84.9958 56.64 84.1825 55.88C83.3825 55.1067 82.3425 54.72 81.0625 54.72ZM85.1225 55.7L86.0025 58.64L77.2425 76.38L76.0025 74.04L85.1225 55.7ZM107.987 52.46V79.2H104.627V56.1L98.3069 59.94L96.8469 57.54L105.047 52.46H107.987ZM113.747 77.26V80H97.8469V77.26H113.747ZM129.031 52.02C132.005 52.02 134.251 53.2467 135.771 55.7C137.291 58.1533 138.051 61.66 138.051 66.22C138.051 70.7933 137.291 74.3133 135.771 76.78C134.251 79.2333 132.005 80.46 129.031 80.46C126.071 80.46 123.825 79.2333 122.291 76.78C120.771 74.3133 120.011 70.7933 120.011 66.22C120.011 61.66 120.771 58.1533 122.291 55.7C123.825 53.2467 126.071 52.02 129.031 52.02ZM129.031 54.72C127.338 54.72 126.005 55.62 125.031 57.42C124.058 59.2067 123.571 62.14 123.571 66.22C123.571 68.2867 123.678 70.0533 123.891 71.52C124.105 72.9867 124.431 74.18 124.871 75.1C125.325 76.0067 125.891 76.6733 126.571 77.1C127.265 77.5267 128.085 77.74 129.031 77.74C130.178 77.74 131.158 77.3467 131.971 76.56C132.798 75.7733 133.425 74.5333 133.851 72.84C134.291 71.1333 134.511 68.9267 134.511 66.22C134.511 63.4733 134.318 61.2533 133.931 59.56C133.558 57.8667 132.965 56.64 132.151 55.88C131.351 55.1067 130.311 54.72 129.031 54.72ZM133.091 55.7L133.971 58.64L125.211 76.38L123.971 74.04L133.091 55.7ZM155.956 52.46V79.2H152.596V56.1L146.276 59.94L144.816 57.54L153.016 52.46H155.956ZM161.716 77.26V80H145.816V77.26H161.716ZM177 52.02C179.973 52.02 182.22 53.2467 183.74 55.7C185.26 58.1533 186.02 61.66 186.02 66.22C186.02 70.7933 185.26 74.3133 183.74 76.78C182.22 79.2333 179.973 80.46 177 80.46C174.04 80.46 171.793 79.2333 170.26 76.78C168.74 74.3133 167.98 70.7933 167.98 66.22C167.98 61.66 168.74 58.1533 170.26 55.7C171.793 53.2467 174.04 52.02 177 52.02ZM177 54.72C175.307 54.72 173.973 55.62 173 57.42C172.027 59.2067 171.54 62.14 171.54 66.22C171.54 68.2867 171.647 70.0533 171.86 71.52C172.073 72.9867 172.4 74.18 172.84 75.1C173.293 76.0067 173.86 76.6733 174.54 77.1C175.233 77.5267 176.053 77.74 177 77.74C178.147 77.74 179.127 77.3467 179.94 76.56C180.767 75.7733 181.393 74.5333 181.82 72.84C182.26 71.1333 182.48 68.9267 182.48 66.22C182.48 63.4733 182.287 61.2533 181.9 59.56C181.527 57.8667 180.933 56.64 180.12 55.88C179.32 55.1067 178.28 54.72 177 54.72ZM181.06 55.7L181.94 58.64L173.18 76.38L171.94 74.04L181.06 55.7ZM203.924 52.46V79.2H200.564V56.1L194.244 59.94L192.784 57.54L200.984 52.46H203.924ZM209.684 77.26V80H193.784V77.26H209.684ZM224.969 52.02C227.942 52.02 230.189 53.2467 231.709 55.7C233.229 58.1533 233.989 61.66 233.989 66.22C233.989 70.7933 233.229 74.3133 231.709 76.78C230.189 79.2333 227.942 80.46 224.969 80.46C222.009 80.46 219.762 79.2333 218.229 76.78C216.709 74.3133 215.949 70.7933 215.949 66.22C215.949 61.66 216.709 58.1533 218.229 55.7C219.762 53.2467 222.009 52.02 224.969 52.02ZM224.969 54.72C223.275 54.72 221.942 55.62 220.969 57.42C219.995 59.2067 219.509 62.14 219.509 66.22C219.509 68.2867 219.615 70.0533 219.829 71.52C220.042 72.9867 220.369 74.18 220.809 75.1C221.262 76.0067 221.829 76.6733 222.509 77.1C223.202 77.5267 224.022 77.74 224.969 77.74C226.115 77.74 227.095 77.3467 227.909 76.56C228.735 75.7733 229.362 74.5333 229.789 72.84C230.229 71.1333 230.449 68.9267 230.449 66.22C230.449 63.4733 230.255 61.2533 229.869 59.56C229.495 57.8667 228.902 56.64 228.089 55.88C227.289 55.1067 226.249 54.72 224.969 54.72ZM229.029 55.7L229.909 58.64L221.149 76.38L219.909 74.04L229.029 55.7ZM248.953 52.02C251.926 52.02 254.173 53.2467 255.693 55.7C257.213 58.1533 257.973 61.66 257.973 66.22C257.973 70.7933 257.213 74.3133 255.693 76.78C254.173 79.2333 251.926 80.46 248.953 80.46C245.993 80.46 243.746 79.2333 242.213 76.78C240.693 74.3133 239.933 70.7933 239.933 66.22C239.933 61.66 240.693 58.1533 242.213 55.7C243.746 53.2467 245.993 52.02 248.953 52.02ZM248.953 54.72C247.26 54.72 245.926 55.62 244.953 57.42C243.98 59.2067 243.493 62.14 243.493 66.22C243.493 68.2867 243.6 70.0533 243.813 71.52C244.026 72.9867 244.353 74.18 244.793 75.1C245.246 76.0067 245.813 76.6733 246.493 77.1C247.186 77.5267 248.006 77.74 248.953 77.74C250.1 77.74 251.08 77.3467 251.893 76.56C252.72 75.7733 253.346 74.5333 253.773 72.84C254.213 71.1333 254.433 68.9267 254.433 66.22C254.433 63.4733 254.24 61.2533 253.853 59.56C253.48 57.8667 252.886 56.64 252.073 55.88C251.273 55.1067 250.233 54.72 248.953 54.72ZM253.013 55.7L253.893 58.64L245.133 76.38L243.893 74.04L253.013 55.7ZM275.878 52.46V79.2H272.518V56.1L266.198 59.94L264.738 57.54L272.938 52.46H275.878ZM281.638 77.26V80H265.738V77.26H281.638ZM299.862 52.46V79.2H296.502V56.1L290.182 59.94L288.722 57.54L296.922 52.46H299.862ZM305.622 77.26V80H289.722V77.26H305.622ZM323.846 52.46V79.2H320.486V56.1L314.166 59.94L312.706 57.54L320.906 52.46H323.846ZM329.606 77.26V80H313.706V77.26H329.606ZM9.10938 104.02C12.0827 104.02 14.3294 105.247 15.8494 107.7C17.3694 110.153 18.1294 113.66 18.1294 118.22C18.1294 122.793 17.3694 126.313 15.8494 128.78C14.3294 131.233 12.0827 132.46 9.10938 132.46C6.14938 132.46 3.90271 131.233 2.36938 128.78C0.849375 126.313 0.0893751 122.793 0.0893751 118.22C0.0893751 113.66 0.849375 110.153 2.36938 107.7C3.90271 105.247 6.14938 104.02 9.10938 104.02ZM9.10938 106.72C7.41604 106.72 6.08271 107.62 5.10938 109.42C4.13604 111.207 3.64938 114.14 3.64938 118.22C3.64938 120.287 3.75604 122.053 3.96938 123.52C4.18271 124.987 4.50938 126.18 4.94938 127.1C5.40271 128.007 5.96938 128.673 6.64938 129.1C7.34271 129.527 8.16271 129.74 9.10938 129.74C10.256 129.74 11.236 129.347 12.0494 128.56C12.876 127.773 13.5027 126.533 13.9294 124.84C14.3694 123.133 14.5894 120.927 14.5894 118.22C14.5894 115.473 14.396 113.253 14.0094 111.56C13.636 109.867 13.0427 108.64 12.2294 107.88C11.4294 107.107 10.3894 106.72 9.10938 106.72ZM13.1694 107.7L14.0494 110.64L5.28938 128.38L4.04938 126.04L13.1694 107.7ZM36.0338 104.46V131.2H32.6738V108.1L26.3538 111.94L24.8938 109.54L33.0938 104.46H36.0338ZM41.7938 129.26V132H25.8938V129.26H41.7938ZM60.0181 104.46V131.2H56.6581V108.1L50.3381 111.94L48.8781 109.54L57.0781 104.46H60.0181ZM65.7781 129.26V132H49.8781V129.26H65.7781ZM81.0625 104.02C84.0358 104.02 86.2825 105.247 87.8025 107.7C89.3225 110.153 90.0825 113.66 90.0825 118.22C90.0825 122.793 89.3225 126.313 87.8025 128.78C86.2825 131.233 84.0358 132.46 81.0625 132.46C78.1025 132.46 75.8558 131.233 74.3225 128.78C72.8025 126.313 72.0425 122.793 72.0425 118.22C72.0425 113.66 72.8025 110.153 74.3225 107.7C75.8558 105.247 78.1025 104.02 81.0625 104.02ZM81.0625 106.72C79.3692 106.72 78.0358 107.62 77.0625 109.42C76.0892 111.207 75.6025 114.14 75.6025 118.22C75.6025 120.287 75.7092 122.053 75.9225 123.52C76.1358 124.987 76.4625 126.18 76.9025 127.1C77.3558 128.007 77.9225 128.673 78.6025 129.1C79.2958 129.527 80.1158 129.74 81.0625 129.74C82.2092 129.74 83.1892 129.347 84.0025 128.56C84.8292 127.773 85.4558 126.533 85.8825 124.84C86.3225 123.133 86.5425 120.927 86.5425 118.22C86.5425 115.473 86.3492 113.253 85.9625 111.56C85.5892 109.867 84.9958 108.64 84.1825 107.88C83.3825 107.107 82.3425 106.72 81.0625 106.72ZM85.1225 107.7L86.0025 110.64L77.2425 128.38L76.0025 126.04L85.1225 107.7ZM107.987 104.46V131.2H104.627V108.1L98.3069 111.94L96.8469 109.54L105.047 104.46H107.987ZM113.747 129.26V132H97.8469V129.26H113.747ZM129.031 104.02C132.005 104.02 134.251 105.247 135.771 107.7C137.291 110.153 138.051 113.66 138.051 118.22C138.051 122.793 137.291 126.313 135.771 128.78C134.251 131.233 132.005 132.46 129.031 132.46C126.071 132.46 123.825 131.233 122.291 128.78C120.771 126.313 120.011 122.793 120.011 118.22C120.011 113.66 120.771 110.153 122.291 107.7C123.825 105.247 126.071 104.02 129.031 104.02ZM129.031 106.72C127.338 106.72 126.005 107.62 125.031 109.42C124.058 111.207 123.571 114.14 123.571 118.22C123.571 120.287 123.678 122.053 123.891 123.52C124.105 124.987 124.431 126.18 124.871 127.1C125.325 128.007 125.891 128.673 126.571 129.1C127.265 129.527 128.085 129.74 129.031 129.74C130.178 129.74 131.158 129.347 131.971 128.56C132.798 127.773 133.425 126.533 133.851 124.84C134.291 123.133 134.511 120.927 134.511 118.22C134.511 115.473 134.318 113.253 133.931 111.56C133.558 109.867 132.965 108.64 132.151 107.88C131.351 107.107 130.311 106.72 129.031 106.72ZM133.091 107.7L133.971 110.64L125.211 128.38L123.971 126.04L133.091 107.7ZM155.956 104.46V131.2H152.596V108.1L146.276 111.94L144.816 109.54L153.016 104.46H155.956ZM161.716 129.26V132H145.816V129.26H161.716ZM179.94 104.46V131.2H176.58V108.1L170.26 111.94L168.8 109.54L177 104.46H179.94ZM185.7 129.26V132H169.8V129.26H185.7ZM203.924 104.46V131.2H200.564V108.1L194.244 111.94L192.784 109.54L200.984 104.46H203.924ZM209.684 129.26V132H193.784V129.26H209.684ZM227.909 104.46V131.2H224.549V108.1L218.229 111.94L216.769 109.54L224.969 104.46H227.909ZM233.669 129.26V132H217.769V129.26H233.669ZM248.953 104.02C251.926 104.02 254.173 105.247 255.693 107.7C257.213 110.153 257.973 113.66 257.973 118.22C257.973 122.793 257.213 126.313 255.693 128.78C254.173 131.233 251.926 132.46 248.953 132.46C245.993 132.46 243.746 131.233 242.213 128.78C240.693 126.313 239.933 122.793 239.933 118.22C239.933 113.66 240.693 110.153 242.213 107.7C243.746 105.247 245.993 104.02 248.953 104.02ZM248.953 106.72C247.26 106.72 245.926 107.62 244.953 109.42C243.98 111.207 243.493 114.14 243.493 118.22C243.493 120.287 243.6 122.053 243.813 123.52C244.026 124.987 244.353 126.18 244.793 127.1C245.246 128.007 245.813 128.673 246.493 129.1C247.186 129.527 248.006 129.74 248.953 129.74C250.1 129.74 251.08 129.347 251.893 128.56C252.72 127.773 253.346 126.533 253.773 124.84C254.213 123.133 254.433 120.927 254.433 118.22C254.433 115.473 254.24 113.253 253.853 111.56C253.48 109.867 252.886 108.64 252.073 107.88C251.273 107.107 250.233 106.72 248.953 106.72ZM253.013 107.7L253.893 110.64L245.133 128.38L243.893 126.04L253.013 107.7ZM275.878 104.46V131.2H272.518V108.1L266.198 111.94L264.738 109.54L272.938 104.46H275.878ZM281.638 129.26V132H265.738V129.26H281.638ZM299.862 104.46V131.2H296.502V108.1L290.182 111.94L288.722 109.54L296.922 104.46H299.862ZM305.622 129.26V132H289.722V129.26H305.622ZM320.906 104.02C323.88 104.02 326.126 105.247 327.646 107.7C329.166 110.153 329.926 113.66 329.926 118.22C329.926 122.793 329.166 126.313 327.646 128.78C326.126 131.233 323.88 132.46 320.906 132.46C317.946 132.46 315.7 131.233 314.166 128.78C312.646 126.313 311.886 122.793 311.886 118.22C311.886 113.66 312.646 110.153 314.166 107.7C315.7 105.247 317.946 104.02 320.906 104.02ZM320.906 106.72C319.213 106.72 317.88 107.62 316.906 109.42C315.933 111.207 315.446 114.14 315.446 118.22C315.446 120.287 315.553 122.053 315.766 123.52C315.98 124.987 316.306 126.18 316.746 127.1C317.2 128.007 317.766 128.673 318.446 129.1C319.14 129.527 319.96 129.74 320.906 129.74C322.053 129.74 323.033 129.347 323.846 128.56C324.673 127.773 325.3 126.533 325.726 124.84C326.166 123.133 326.386 120.927 326.386 118.22C326.386 115.473 326.193 113.253 325.806 111.56C325.433 109.867 324.84 108.64 324.026 107.88C323.226 107.107 322.186 106.72 320.906 106.72ZM324.966 107.7L325.846 110.64L317.086 128.38L315.846 126.04L324.966 107.7ZM12.0494 156.46V183.2H8.68938V160.1L2.36938 163.94L0.909375 161.54L9.10938 156.46H12.0494ZM17.8094 181.26V184H1.90938V181.26H17.8094ZM33.0938 156.02C36.0671 156.02 38.3138 157.247 39.8338 159.7C41.3538 162.153 42.1137 165.66 42.1137 170.22C42.1137 174.793 41.3538 178.313 39.8338 180.78C38.3138 183.233 36.0671 184.46 33.0938 184.46C30.1338 184.46 27.8871 183.233 26.3538 180.78C24.8338 178.313 24.0738 174.793 24.0738 170.22C24.0738 165.66 24.8338 162.153 26.3538 159.7C27.8871 157.247 30.1338 156.02 33.0938 156.02ZM33.0938 158.72C31.4004 158.72 30.0671 159.62 29.0938 161.42C28.1204 163.207 27.6338 166.14 27.6338 170.22C27.6338 172.287 27.7404 174.053 27.9538 175.52C28.1671 176.987 28.4938 178.18 28.9338 179.1C29.3871 180.007 29.9538 180.673 30.6338 181.1C31.3271 181.527 32.1471 181.74 33.0938 181.74C34.2404 181.74 35.2204 181.347 36.0338 180.56C36.8604 179.773 37.4871 178.533 37.9138 176.84C38.3538 175.133 38.5738 172.927 38.5738 170.22C38.5738 167.473 38.3804 165.253 37.9938 163.56C37.6204 161.867 37.0271 160.64 36.2138 159.88C35.4138 159.107 34.3738 158.72 33.0938 158.72ZM37.1538 159.7L38.0338 162.64L29.2738 180.38L28.0338 178.04L37.1538 159.7ZM57.0781 156.02C60.0515 156.02 62.2981 157.247 63.8181 159.7C65.3381 162.153 66.0981 165.66 66.0981 170.22C66.0981 174.793 65.3381 178.313 63.8181 180.78C62.2981 183.233 60.0515 184.46 57.0781 184.46C54.1181 184.46 51.8715 183.233 50.3381 180.78C48.8181 178.313 48.0581 174.793 48.0581 170.22C48.0581 165.66 48.8181 162.153 50.3381 159.7C51.8715 157.247 54.1181 156.02 57.0781 156.02ZM57.0781 158.72C55.3848 158.72 54.0515 159.62 53.0781 161.42C52.1048 163.207 51.6181 166.14 51.6181 170.22C51.6181 172.287 51.7248 174.053 51.9381 175.52C52.1515 176.987 52.4781 178.18 52.9181 179.1C53.3715 180.007 53.9381 180.673 54.6181 181.1C55.3115 181.527 56.1315 181.74 57.0781 181.74C58.2248 181.74 59.2048 181.347 60.0181 180.56C60.8448 179.773 61.4715 178.533 61.8981 176.84C62.3381 175.133 62.5581 172.927 62.5581 170.22C62.5581 167.473 62.3648 165.253 61.9781 163.56C61.6048 161.867 61.0115 160.64 60.1981 159.88C59.3981 159.107 58.3581 158.72 57.0781 158.72ZM61.1381 159.7L62.0181 162.64L53.2581 180.38L52.0181 178.04L61.1381 159.7ZM84.0025 156.46V183.2H80.6425V160.1L74.3225 163.94L72.8625 161.54L81.0625 156.46H84.0025ZM89.7625 181.26V184H73.8625V181.26H89.7625ZM105.047 156.02C108.02 156.02 110.267 157.247 111.787 159.7C113.307 162.153 114.067 165.66 114.067 170.22C114.067 174.793 113.307 178.313 111.787 180.78C110.267 183.233 108.02 184.46 105.047 184.46C102.087 184.46 99.8402 183.233 98.3069 180.78C96.7869 178.313 96.0269 174.793 96.0269 170.22C96.0269 165.66 96.7869 162.153 98.3069 159.7C99.8402 157.247 102.087 156.02 105.047 156.02ZM105.047 158.72C103.354 158.72 102.02 159.62 101.047 161.42C100.074 163.207 99.5869 166.14 99.5869 170.22C99.5869 172.287 99.6935 174.053 99.9069 175.52C100.12 176.987 100.447 178.18 100.887 179.1C101.34 180.007 101.907 180.673 102.587 181.1C103.28 181.527 104.1 181.74 105.047 181.74C106.194 181.74 107.174 181.347 107.987 180.56C108.814 179.773 109.44 178.533 109.867 176.84C110.307 175.133 110.527 172.927 110.527 170.22C110.527 167.473 110.334 165.253 109.947 163.56C109.574 161.867 108.98 160.64 108.167 159.88C107.367 159.107 106.327 158.72 105.047 158.72ZM109.107 159.7L109.987 162.64L101.227 180.38L99.9869 178.04L109.107 159.7ZM131.971 156.46V183.2H128.611V160.1L122.291 163.94L120.831 161.54L129.031 156.46H131.971ZM137.731 181.26V184H121.831V181.26H137.731ZM155.956 156.46V183.2H152.596V160.1L146.276 163.94L144.816 161.54L153.016 156.46H155.956ZM161.716 181.26V184H145.816V181.26H161.716ZM177 156.02C179.973 156.02 182.22 157.247 183.74 159.7C185.26 162.153 186.02 165.66 186.02 170.22C186.02 174.793 185.26 178.313 183.74 180.78C182.22 183.233 179.973 184.46 177 184.46C174.04 184.46 171.793 183.233 170.26 180.78C168.74 178.313 167.98 174.793 167.98 170.22C167.98 165.66 168.74 162.153 170.26 159.7C171.793 157.247 174.04 156.02 177 156.02ZM177 158.72C175.307 158.72 173.973 159.62 173 161.42C172.027 163.207 171.54 166.14 171.54 170.22C171.54 172.287 171.647 174.053 171.86 175.52C172.073 176.987 172.4 178.18 172.84 179.1C173.293 180.007 173.86 180.673 174.54 181.1C175.233 181.527 176.053 181.74 177 181.74C178.147 181.74 179.127 181.347 179.94 180.56C180.767 179.773 181.393 178.533 181.82 176.84C182.26 175.133 182.48 172.927 182.48 170.22C182.48 167.473 182.287 165.253 181.9 163.56C181.527 161.867 180.933 160.64 180.12 159.88C179.32 159.107 178.28 158.72 177 158.72ZM181.06 159.7L181.94 162.64L173.18 180.38L171.94 178.04L181.06 159.7ZM203.924 156.46V183.2H200.564V160.1L194.244 163.94L192.784 161.54L200.984 156.46H203.924ZM209.684 181.26V184H193.784V181.26H209.684ZM227.909 156.46V183.2H224.549V160.1L218.229 163.94L216.769 161.54L224.969 156.46H227.909ZM233.669 181.26V184H217.769V181.26H233.669ZM251.893 156.46V183.2H248.533V160.1L242.213 163.94L240.753 161.54L248.953 156.46H251.893ZM257.653 181.26V184H241.753V181.26H257.653ZM272.938 156.02C275.911 156.02 278.158 157.247 279.678 159.7C281.198 162.153 281.957 165.66 281.957 170.22C281.957 174.793 281.198 178.313 279.678 180.78C278.158 183.233 275.911 184.46 272.938 184.46C269.978 184.46 267.731 183.233 266.198 180.78C264.678 178.313 263.918 174.793 263.918 170.22C263.918 165.66 264.678 162.153 266.198 159.7C267.731 157.247 269.978 156.02 272.938 156.02ZM272.938 158.72C271.244 158.72 269.911 159.62 268.938 161.42C267.964 163.207 267.478 166.14 267.478 170.22C267.478 172.287 267.584 174.053 267.798 175.52C268.011 176.987 268.338 178.18 268.778 179.1C269.231 180.007 269.798 180.673 270.478 181.1C271.171 181.527 271.991 181.74 272.938 181.74C274.084 181.74 275.064 181.347 275.878 180.56C276.704 179.773 277.331 178.533 277.758 176.84C278.198 175.133 278.418 172.927 278.418 170.22C278.418 167.473 278.224 165.253 277.838 163.56C277.464 161.867 276.871 160.64 276.058 159.88C275.258 159.107 274.218 158.72 272.938 158.72ZM276.998 159.7L277.878 162.64L269.118 180.38L267.878 178.04L276.998 159.7ZM299.862 156.46V183.2H296.502V160.1L290.182 163.94L288.722 161.54L296.922 156.46H299.862ZM305.622 181.26V184H289.722V181.26H305.622ZM323.846 156.46V183.2H320.486V160.1L314.166 163.94L312.706 161.54L320.906 156.46H323.846ZM329.606 181.26V184H313.706V181.26H329.606ZM9.10938 208.02C12.0827 208.02 14.3294 209.247 15.8494 211.7C17.3694 214.153 18.1294 217.66 18.1294 222.22C18.1294 226.793 17.3694 230.313 15.8494 232.78C14.3294 235.233 12.0827 236.46 9.10938 236.46C6.14938 236.46 3.90271 235.233 2.36938 232.78C0.849375 230.313 0.0893751 226.793 0.0893751 222.22C0.0893751 217.66 0.849375 214.153 2.36938 211.7C3.90271 209.247 6.14938 208.02 9.10938 208.02ZM9.10938 210.72C7.41604 210.72 6.08271 211.62 5.10938 213.42C4.13604 215.207 3.64938 218.14 3.64938 222.22C3.64938 224.287 3.75604 226.053 3.96938 227.52C4.18271 228.987 4.50938 230.18 4.94938 231.1C5.40271 232.007 5.96938 232.673 6.64938 233.1C7.34271 233.527 8.16271 233.74 9.10938 233.74C10.256 233.74 11.236 233.347 12.0494 232.56C12.876 231.773 13.5027 230.533 13.9294 228.84C14.3694 227.133 14.5894 224.927 14.5894 222.22C14.5894 219.473 14.396 217.253 14.0094 215.56C13.636 213.867 13.0427 212.64 12.2294 211.88C11.4294 211.107 10.3894 210.72 9.10938 210.72ZM13.1694 211.7L14.0494 214.64L5.28938 232.38L4.04938 230.04L13.1694 211.7ZM36.0338 208.46V235.2H32.6738V212.1L26.3538 215.94L24.8938 213.54L33.0938 208.46H36.0338ZM41.7938 233.26V236H25.8938V233.26H41.7938ZM60.0181 208.46V235.2H56.6581V212.1L50.3381 215.94L48.8781 213.54L57.0781 208.46H60.0181ZM65.7781 233.26V236H49.8781V233.26H65.7781ZM84.0025 208.46V235.2H80.6425V212.1L74.3225 215.94L72.8625 213.54L81.0625 208.46H84.0025ZM89.7625 233.26V236H73.8625V233.26H89.7625ZM107.987 208.46V235.2H104.627V212.1L98.3069 215.94L96.8469 213.54L105.047 208.46H107.987ZM113.747 233.26V236H97.8469V233.26H113.747ZM131.971 208.46V235.2H128.611V212.1L122.291 215.94L120.831 213.54L129.031 208.46H131.971ZM137.731 233.26V236H121.831V233.26H137.731ZM155.956 208.46V235.2H152.596V212.1L146.276 215.94L144.816 213.54L153.016 208.46H155.956ZM161.716 233.26V236H145.816V233.26H161.716ZM179.94 208.46V235.2H176.58V212.1L170.26 215.94L168.8 213.54L177 208.46H179.94ZM185.7 233.26V236H169.8V233.26H185.7ZM203.924 208.46V235.2H200.564V212.1L194.244 215.94L192.784 213.54L200.984 208.46H203.924ZM209.684 233.26V236H193.784V233.26H209.684ZM224.969 208.02C227.942 208.02 230.189 209.247 231.709 211.7C233.229 214.153 233.989 217.66 233.989 222.22C233.989 226.793 233.229 230.313 231.709 232.78C230.189 235.233 227.942 236.46 224.969 236.46C222.009 236.46 219.762 235.233 218.229 232.78C216.709 230.313 215.949 226.793 215.949 222.22C215.949 217.66 216.709 214.153 218.229 211.7C219.762 209.247 222.009 208.02 224.969 208.02ZM224.969 210.72C223.275 210.72 221.942 211.62 220.969 213.42C219.995 215.207 219.509 218.14 219.509 222.22C219.509 224.287 219.615 226.053 219.829 227.52C220.042 228.987 220.369 230.18 220.809 231.1C221.262 232.007 221.829 232.673 222.509 233.1C223.202 233.527 224.022 233.74 224.969 233.74C226.115 233.74 227.095 233.347 227.909 232.56C228.735 231.773 229.362 230.533 229.789 228.84C230.229 227.133 230.449 224.927 230.449 222.22C230.449 219.473 230.255 217.253 229.869 215.56C229.495 213.867 228.902 212.64 228.089 211.88C227.289 211.107 226.249 210.72 224.969 210.72ZM229.029 211.7L229.909 214.64L221.149 232.38L219.909 230.04L229.029 211.7ZM251.893 208.46V235.2H248.533V212.1L242.213 215.94L240.753 213.54L248.953 208.46H251.893ZM257.653 233.26V236H241.753V233.26H257.653ZM275.878 208.46V235.2H272.518V212.1L266.198 215.94L264.738 213.54L272.938 208.46H275.878ZM281.638 233.26V236H265.738V233.26H281.638ZM299.862 208.46V235.2H296.502V212.1L290.182 215.94L288.722 213.54L296.922 208.46H299.862ZM305.622 233.26V236H289.722V233.26H305.622ZM323.846 208.46V235.2H320.486V212.1L314.166 215.94L312.706 213.54L320.906 208.46H323.846ZM329.606 233.26V236H313.706V233.26H329.606Z" fill="#9747FF"/>
</svg>
