<svg width="640" height="593" viewBox="0 0 640 593" fill="none" xmlns="http://www.w3.org/2000/svg">
<path fill-rule="evenodd" clip-rule="evenodd" d="M122.951 -188.334C184.335 -179.037 245.272 -166.096 297.133 -131.99C347.351 -98.966 367.759 -37.5363 412.784 2.26891C484.072 65.2931 618.642 76.3836 638.134 169.481C656.074 255.165 539.934 309.094 492.423 382.64C447.679 451.904 446.464 571.462 366.183 590.463C276.617 611.661 211.898 493.746 122.951 470.087C64.4185 454.517 4.95801 482.359 -55.4771 478.303C-153.945 471.695 -273.88 508.361 -343.8 438.764C-408.758 374.106 -397.12 255.563 -365.731 169.481C-336.171 88.415 -234.729 61.7795 -181.549 -6.19382C-138.16 -61.6529 -145.082 -153.654 -84.6371 -189.81C-24.2345 -225.94 53.3491 -198.875 122.951 -188.334Z" fill="#7002DD" fill-opacity="0.5"/>
</svg>
