<svg width="1065" height="745" viewBox="0 0 1065 745" fill="none" xmlns="http://www.w3.org/2000/svg">
<path fill-rule="evenodd" clip-rule="evenodd" d="M536.214 20.6783C628.465 42.1234 711.452 94.5782 776.017 163.897C831.746 223.73 837.05 311.331 874.597 383.976C910.002 452.475 965.586 506.548 990.789 579.425C1023.78 674.839 1102.91 790.816 1043.52 872.443C981.413 957.801 831.401 880.078 737.283 927.834C651.099 971.564 632.678 1135.6 536.214 1129.85C437.005 1123.94 438.431 947.02 348.508 904.682C244.794 855.851 71.0725 980.459 11.2081 882.667C-47.7904 786.289 145.138 692.36 149.398 579.425C153.394 473.504 19.5654 394.178 33.5985 289.116C47.8009 182.786 127.506 85.6505 222.1 35.13C316.167 -15.1093 432.349 -3.46681 536.214 20.6783Z" fill="#1673FF" fill-opacity="0.5"/>
</svg>
