<svg width="702" height="844" viewBox="0 0 702 844" fill="none" xmlns="http://www.w3.org/2000/svg">
<path fill-rule="evenodd" clip-rule="evenodd" d="M398.023 -225.817C477.752 -188.541 481.75 -60.7836 562.039 -24.7294C657.583 18.175 790.288 -80.6341 870.71 -13.5546C942.247 46.1144 901.05 166.12 902.493 259.242C903.958 353.739 935.141 460.743 879.244 536.964C823.059 613.58 700.728 593.478 620.288 644.063C535.304 697.506 496.671 820.907 398.023 839.585C299.827 858.177 183.286 816.83 121.176 738.563C58.0163 658.975 106.938 540.061 82.1447 441.541C65.6162 375.863 6.08807 326.74 0.551443 259.242C-5.17621 189.415 35.2486 127.152 50.7519 58.8258C73.2714 -40.4212 33.9314 -170.299 112.657 -234.827C187.525 -296.192 310.322 -266.819 398.023 -225.817Z" fill="#2D0679" fill-opacity="0.48"/>
</svg>
