<svg width="12" height="24" viewBox="0 0 12 24" fill="none" xmlns="http://www.w3.org/2000/svg">
<g id="Group 122">
<path id="Vector" d="M0.856934 14.8216L0.856934 18.8571C0.856934 20.2211 1.39878 21.5292 2.36327 22.4937C3.32776 23.4582 4.63588 24 5.99988 24C7.36387 24 8.672 23.4582 9.63649 22.4937C10.601 21.5292 11.1428 20.2211 11.1428 18.8571V13.7141C11.1432 12.8911 10.9462 12.08 10.5681 11.349C10.1901 10.618 9.64211 9.98834 8.97025 9.51301C8.2984 9.03767 7.52229 8.73051 6.70711 8.61734C5.89193 8.50416 5.06149 8.58828 4.28556 8.86261V10.2855C4.28556 10.4341 4.30328 10.5769 4.33871 10.7141C4.86072 10.4249 5.44916 10.2771 6.04584 10.2851C6.64253 10.2931 7.22679 10.4567 7.74087 10.7597C8.25494 11.0627 8.68104 11.4946 8.97702 12.0128C9.27301 12.5309 9.42863 13.1174 9.4285 13.7141V18.8571C9.4285 19.7664 9.06727 20.6385 8.42428 21.2815C7.78129 21.9245 6.9092 22.2857 5.99988 22.2857C5.09055 22.2857 4.21846 21.9245 3.57547 21.2815C2.93248 20.6385 2.57125 19.7664 2.57125 18.8571V16.2256C1.92667 15.8519 1.34723 15.3787 0.856934 14.8216Z" fill="#1673FF"/>
<path id="Vector_2" d="M0.85669 10.2858C0.856259 11.1088 1.05334 11.9199 1.43139 12.6509C1.80944 13.3819 2.3574 14.0116 3.02925 14.4869C3.7011 14.9622 4.47722 15.2694 5.2924 15.3826C6.10758 15.4957 6.93801 15.4116 7.71395 15.1373V13.255C7.19273 13.5559 6.6015 13.7143 5.99965 13.7143C5.39781 13.7143 4.80657 13.5559 4.28536 13.255C3.76414 12.9541 3.33132 12.5213 3.03039 12.0001C2.72945 11.4789 2.57102 10.8876 2.571 10.2858L2.571 5.14285C2.571 4.23352 2.93223 3.36143 3.57523 2.71844C4.21822 2.07545 5.0903 1.71422 5.99963 1.71422C6.90896 1.71422 7.78104 2.07545 8.42404 2.71844C9.06703 3.36143 9.42826 4.23352 9.42826 5.14285V7.77432C10.0722 8.14681 10.6512 8.62159 11.1426 9.18005V5.14285C11.1426 4.46747 11.0095 3.7987 10.7511 3.17473C10.4926 2.55076 10.1138 1.9838 9.63624 1.50624C9.15868 1.02867 8.59172 0.649844 7.96775 0.391387C7.34378 0.13293 6.67501 -9.53674e-05 5.99963 -9.53674e-05C5.32425 -9.53674e-05 4.65548 0.13293 4.03151 0.391387C3.40754 0.649844 2.84059 1.02867 2.36302 1.50624C1.88546 1.9838 1.50663 2.55076 1.24817 3.17473C0.989717 3.7987 0.85669 4.46747 0.85669 5.14285L0.85669 10.2858Z" fill="#1673FF"/>
</g>
</svg>
