<svg width="25" height="22" viewBox="0 0 25 22" fill="none" xmlns="http://www.w3.org/2000/svg">
<path id="Vector" d="M24.2345 11.6894C24.3694 11.6316 24.4845 11.5355 24.5653 11.413C24.6461 11.2904 24.6892 11.1468 24.6892 11C24.6892 10.8532 24.6461 10.7096 24.5653 10.5871C24.4845 10.4645 24.3694 10.3684 24.2345 10.3106L2.63371 1.05362L2.63265 1.05256L1.96233 0.764078C1.83531 0.709497 1.69568 0.69109 1.55885 0.710888C1.42202 0.730685 1.29333 0.787916 1.18699 0.876261C1.08065 0.964607 1.00079 1.08063 0.956245 1.21151C0.911699 1.34238 0.904197 1.48303 0.934566 1.6179L1.09365 2.32852L1.09259 2.33171L3.01967 11.0003L1.0924 19.6688V19.6731L0.933298 20.3837C0.903414 20.5184 0.911279 20.6588 0.95603 20.7893C1.00078 20.9199 1.08068 21.0355 1.18693 21.1236C1.29319 21.2116 1.42168 21.2687 1.55826 21.2884C1.69484 21.3081 1.83421 21.2898 1.96104 21.2354L24.2345 11.6894ZM20.2857 11.7499L4.38894 11.7501L4.51941 11.1636C4.54341 11.056 4.54341 10.9445 4.51941 10.8369L4.38896 10.2504L20.2858 10.2502L22.0347 11L20.2857 11.7499Z" fill="#F8F8F8" fill-opacity="0.7"/>
</svg>
